G04*
G04 #@! TF.GenerationSoftware,Altium Limited,Altium Designer,20.1.14 (287)*
G04*
G04 Layer_Color=8421504*
%FSLAX25Y25*%
%MOIN*%
G70*
G04*
G04 #@! TF.SameCoordinates,279C02DF-711F-4997-8B9F-8018C1F95EB8*
G04*
G04*
G04 #@! TF.FilePolarity,Positive*
G04*
G01*
G75*
%ADD13R,0.10630X0.14173*%
%ADD14R,0.02756X0.02441*%
%ADD15R,0.08465X0.01772*%
%ADD16R,0.08386X0.11811*%
%ADD17R,0.05276X0.07087*%
%ADD18R,0.02165X0.02165*%
%ADD19R,0.02165X0.02165*%
%ADD20R,0.11024X0.04921*%
%ADD21R,0.04921X0.11024*%
%ADD22R,0.01968X0.01654*%
%ADD23R,0.05118X0.05512*%
%ADD24R,0.05512X0.05118*%
D13*
X68339Y97000D02*
D03*
X35661D02*
D03*
D14*
X39886Y68000D02*
D03*
X43114D02*
D03*
D15*
X63319Y62000D02*
D03*
Y57000D02*
D03*
Y47000D02*
D03*
Y52000D02*
D03*
X40681Y47000D02*
D03*
Y52000D02*
D03*
Y62000D02*
D03*
Y57000D02*
D03*
D16*
X52000Y54500D02*
D03*
D17*
X51370Y71000D02*
D03*
X62630D02*
D03*
D18*
X61228Y41000D02*
D03*
X64772D02*
D03*
X72228Y43000D02*
D03*
X75772D02*
D03*
X61228Y37000D02*
D03*
X64772D02*
D03*
D19*
X32000Y55543D02*
D03*
Y52000D02*
D03*
Y44457D02*
D03*
Y48000D02*
D03*
D20*
X18500Y52397D02*
D03*
Y64405D02*
D03*
Y83263D02*
D03*
Y71255D02*
D03*
D21*
X82996Y67000D02*
D03*
X95004D02*
D03*
X82996Y80000D02*
D03*
X95004D02*
D03*
D22*
X43220Y41500D02*
D03*
X40780D02*
D03*
D23*
X72850Y49000D02*
D03*
X79150D02*
D03*
D24*
X72228Y37150D02*
D03*
Y30850D02*
D03*
M02*
