G04*
G04 #@! TF.GenerationSoftware,Altium Limited,Altium Designer,20.1.14 (287)*
G04*
G04 Layer_Physical_Order=1*
G04 Layer_Color=255*
%FSLAX25Y25*%
%MOIN*%
G70*
G04*
G04 #@! TF.SameCoordinates,279C02DF-711F-4997-8B9F-8018C1F95EB8*
G04*
G04*
G04 #@! TF.FilePolarity,Positive*
G04*
G01*
G75*
%ADD13R,0.10630X0.14173*%
%ADD14R,0.02756X0.02441*%
%ADD15R,0.08465X0.01772*%
%ADD16R,0.08386X0.11811*%
%ADD17R,0.05276X0.07087*%
%ADD18R,0.02165X0.02165*%
%ADD19R,0.02165X0.02165*%
%ADD20R,0.11024X0.04921*%
%ADD21R,0.04921X0.11024*%
%ADD22R,0.01968X0.01654*%
%ADD23R,0.05118X0.05512*%
%ADD24R,0.05512X0.05118*%
%ADD39C,0.03150*%
%ADD40C,0.01500*%
%ADD41C,0.01181*%
%ADD42C,0.08661*%
%ADD43C,0.27559*%
%ADD44C,0.02362*%
G36*
X54869Y152397D02*
X56737Y151948D01*
X58539Y151282D01*
X60251Y150409D01*
X61848Y149340D01*
X63308Y148091D01*
X64611Y146679D01*
X65168Y145911D01*
X94135Y103926D01*
X95084Y102442D01*
X96783Y99316D01*
X98256Y96077D01*
X99495Y92742D01*
X100493Y89327D01*
X101247Y85850D01*
X101751Y82328D01*
X102004Y78779D01*
Y75221D01*
X101751Y71672D01*
X101247Y68150D01*
X100493Y64673D01*
X99495Y61258D01*
X98256Y57923D01*
X96783Y54684D01*
X95084Y51558D01*
X94135Y50074D01*
X65168Y8089D01*
X64611Y7321D01*
X63308Y5909D01*
X61848Y4660D01*
X60251Y3591D01*
X58539Y2718D01*
X56737Y2052D01*
X54869Y1603D01*
X52961Y1377D01*
X51039D01*
X49131Y1603D01*
X47263Y2052D01*
X45461Y2718D01*
X43749Y3591D01*
X42152Y4660D01*
X40692Y5909D01*
X39389Y7321D01*
X38832Y8089D01*
X9865Y50074D01*
X8916Y51558D01*
X7217Y54684D01*
X5744Y57923D01*
X4505Y61258D01*
X3507Y64673D01*
X2753Y68150D01*
X2249Y71672D01*
X1996Y75221D01*
Y78779D01*
X2249Y82328D01*
X2753Y85850D01*
X3507Y89327D01*
X4505Y92742D01*
X5744Y96077D01*
X7217Y99316D01*
X8916Y102442D01*
X9865Y103926D01*
X38832Y145911D01*
X39389Y146679D01*
X40692Y148091D01*
X42152Y149340D01*
X43749Y150409D01*
X45461Y151282D01*
X47263Y151948D01*
X49131Y152397D01*
X51039Y152623D01*
X52961D01*
X54869Y152397D01*
D02*
G37*
%LPC*%
G36*
X31500Y123624D02*
Y122000D01*
X33124D01*
X33055Y122351D01*
X32572Y123073D01*
X31851Y123555D01*
X31500Y123624D01*
D02*
G37*
G36*
X30500D02*
X30149Y123555D01*
X29427Y123073D01*
X28945Y122351D01*
X28876Y122000D01*
X30500D01*
Y123624D01*
D02*
G37*
G36*
X33124Y121000D02*
X31500D01*
Y119376D01*
X31851Y119446D01*
X32572Y119928D01*
X33055Y120649D01*
X33124Y121000D01*
D02*
G37*
G36*
X30500D02*
X28876D01*
X28945Y120649D01*
X29427Y119928D01*
X30149Y119446D01*
X30500Y119376D01*
Y121000D01*
D02*
G37*
G36*
X38500Y114124D02*
Y112500D01*
X40124D01*
X40055Y112851D01*
X39573Y113573D01*
X38851Y114055D01*
X38500Y114124D01*
D02*
G37*
G36*
X37500D02*
X37149Y114055D01*
X36428Y113573D01*
X35945Y112851D01*
X35876Y112500D01*
X37500D01*
Y114124D01*
D02*
G37*
G36*
X40124Y111500D02*
X38500D01*
Y109876D01*
X38851Y109945D01*
X39573Y110427D01*
X40055Y111149D01*
X40124Y111500D01*
D02*
G37*
G36*
X37500D02*
X35876D01*
X35945Y111149D01*
X36428Y110427D01*
X37149Y109945D01*
X37500Y109876D01*
Y111500D01*
D02*
G37*
G36*
X80199Y106803D02*
X60801D01*
X60494Y106742D01*
X60494Y106742D01*
X60126Y106589D01*
X59866Y106415D01*
X59585Y106134D01*
X59411Y105874D01*
X59258Y105506D01*
X59255Y105489D01*
X58745D01*
X58742Y105506D01*
X58742Y105506D01*
X58590Y105874D01*
X58415Y106134D01*
X58134Y106415D01*
X57874Y106589D01*
X57506Y106742D01*
X57199Y106803D01*
X29301D01*
X28994Y106742D01*
X28994Y106742D01*
X28626Y106589D01*
X28366Y106415D01*
X28085Y106134D01*
X27911Y105874D01*
X27758Y105506D01*
X27697Y105199D01*
Y98567D01*
X27197D01*
X26768Y98854D01*
X26000Y99007D01*
X25232Y98854D01*
X24581Y98419D01*
X24146Y97768D01*
X23993Y97000D01*
X24146Y96232D01*
X24581Y95581D01*
X25232Y95146D01*
X26000Y94993D01*
X26768Y95146D01*
X27197Y95433D01*
X27697D01*
Y88801D01*
X27758Y88494D01*
X27911Y88126D01*
X28085Y87866D01*
X28366Y87585D01*
X28626Y87410D01*
X28994Y87258D01*
X29301Y87197D01*
X49461D01*
X49498Y87194D01*
X49601Y87151D01*
X49651Y87101D01*
X49694Y86998D01*
X49697Y86961D01*
Y81801D01*
X49758Y81494D01*
X49911Y81126D01*
X50085Y80866D01*
X50366Y80585D01*
X50626Y80410D01*
X50994Y80258D01*
X51301Y80197D01*
X57461D01*
X57498Y80194D01*
X57601Y80151D01*
X57651Y80101D01*
X57693Y79998D01*
X57697Y79961D01*
Y64477D01*
X57713Y64399D01*
Y64320D01*
X57743Y64247D01*
X57758Y64170D01*
X57765Y64160D01*
X57772Y64126D01*
X57787D01*
Y64047D01*
Y60583D01*
X57849Y60276D01*
X57911Y60126D01*
X58085Y59866D01*
X58366Y59585D01*
X58626Y59411D01*
X58994Y59258D01*
X59301Y59197D01*
X67699D01*
X68006Y59258D01*
X68197Y59337D01*
X68615Y59123D01*
X68697Y59025D01*
Y57301D01*
X68758Y56994D01*
X68910Y56626D01*
X69085Y56366D01*
X69366Y56085D01*
X69626Y55910D01*
X69994Y55758D01*
X70301Y55697D01*
X87099D01*
X87407Y55758D01*
X87590Y55834D01*
X87851Y56008D01*
X87992Y56149D01*
X88166Y56410D01*
X88242Y56593D01*
X88242Y56593D01*
X88303Y56901D01*
Y86699D01*
X88242Y87006D01*
X88242Y87006D01*
X88090Y87374D01*
X87915Y87634D01*
X87634Y87915D01*
X87374Y88090D01*
X87006Y88242D01*
X86699Y88303D01*
X82039D01*
X82002Y88306D01*
X81899Y88349D01*
X81849Y88399D01*
X81806Y88502D01*
X81803Y88539D01*
Y105199D01*
X81742Y105506D01*
X81742Y105506D01*
X81590Y105874D01*
X81415Y106134D01*
X81134Y106415D01*
X80874Y106589D01*
X80506Y106742D01*
X80199Y106803D01*
D02*
G37*
G36*
X20000Y95624D02*
Y94000D01*
X21624D01*
X21555Y94351D01*
X21072Y95073D01*
X20351Y95555D01*
X20000Y95624D01*
D02*
G37*
G36*
X19000D02*
X18649Y95555D01*
X17928Y95073D01*
X17445Y94351D01*
X17376Y94000D01*
X19000D01*
Y95624D01*
D02*
G37*
G36*
X95500Y93624D02*
Y92000D01*
X97124D01*
X97054Y92351D01*
X96573Y93072D01*
X95851Y93555D01*
X95500Y93624D01*
D02*
G37*
G36*
X94500D02*
X94149Y93555D01*
X93427Y93072D01*
X92945Y92351D01*
X92876Y92000D01*
X94500D01*
Y93624D01*
D02*
G37*
G36*
X21624Y93000D02*
X20000D01*
Y91376D01*
X20351Y91445D01*
X21072Y91927D01*
X21555Y92649D01*
X21624Y93000D01*
D02*
G37*
G36*
X19000D02*
X17376D01*
X17445Y92649D01*
X17928Y91927D01*
X18649Y91445D01*
X19000Y91376D01*
Y93000D01*
D02*
G37*
G36*
X10500Y92124D02*
Y90500D01*
X12124D01*
X12055Y90851D01*
X11573Y91572D01*
X10851Y92054D01*
X10500Y92124D01*
D02*
G37*
G36*
X9500D02*
X9149Y92054D01*
X8427Y91572D01*
X7945Y90851D01*
X7876Y90500D01*
X9500D01*
Y92124D01*
D02*
G37*
G36*
X97124Y91000D02*
X95500D01*
Y89376D01*
X95851Y89446D01*
X96573Y89928D01*
X97054Y90649D01*
X97124Y91000D01*
D02*
G37*
G36*
X94500D02*
X92876D01*
X92945Y90649D01*
X93427Y89928D01*
X94149Y89446D01*
X94500Y89376D01*
Y91000D01*
D02*
G37*
G36*
X12124Y89500D02*
X10500D01*
Y87876D01*
X10851Y87945D01*
X11573Y88428D01*
X12055Y89149D01*
X12124Y89500D01*
D02*
G37*
G36*
X9500D02*
X7876D01*
X7945Y89149D01*
X8427Y88428D01*
X9149Y87945D01*
X9500Y87876D01*
Y89500D01*
D02*
G37*
G36*
X25012Y86724D02*
X19484D01*
Y84247D01*
X25012D01*
Y86724D01*
D02*
G37*
G36*
X17516D02*
X11988D01*
Y84247D01*
X17516D01*
Y86724D01*
D02*
G37*
G36*
X45500Y84124D02*
Y82500D01*
X47124D01*
X47055Y82851D01*
X46573Y83573D01*
X45851Y84054D01*
X45500Y84124D01*
D02*
G37*
G36*
X44500D02*
X44149Y84054D01*
X43428Y83573D01*
X42945Y82851D01*
X42876Y82500D01*
X44500D01*
Y84124D01*
D02*
G37*
G36*
X98465Y86512D02*
X95988D01*
Y80984D01*
X98465D01*
Y86512D01*
D02*
G37*
G36*
X94020D02*
X91543D01*
Y80984D01*
X94020D01*
Y86512D01*
D02*
G37*
G36*
X47124Y81500D02*
X45500D01*
Y79876D01*
X45851Y79945D01*
X46573Y80427D01*
X47055Y81149D01*
X47124Y81500D01*
D02*
G37*
G36*
X44500D02*
X42876D01*
X42945Y81149D01*
X43428Y80427D01*
X44149Y79945D01*
X44500Y79876D01*
Y81500D01*
D02*
G37*
G36*
X25012Y82279D02*
X19484D01*
Y79803D01*
X25012D01*
Y82279D01*
D02*
G37*
G36*
X17516D02*
X11988D01*
Y79803D01*
X17516D01*
Y82279D01*
D02*
G37*
G36*
X55008Y75543D02*
X51870D01*
Y71500D01*
X55008D01*
Y75543D01*
D02*
G37*
G36*
X50870D02*
X47732D01*
Y71500D01*
X50870D01*
Y75543D01*
D02*
G37*
G36*
X51370Y71000D02*
D01*
D01*
D01*
D02*
G37*
G36*
X6500Y70124D02*
X6149Y70055D01*
X5427Y69573D01*
X4945Y68851D01*
X4876Y68500D01*
X6500D01*
Y70124D01*
D02*
G37*
G36*
X34699Y76303D02*
X11301D01*
X10994Y76242D01*
X10994Y76242D01*
X10626Y76090D01*
X10366Y75915D01*
X10085Y75634D01*
X9911Y75374D01*
X9758Y75006D01*
X9697Y74699D01*
Y68183D01*
X9197Y68134D01*
X9157Y68336D01*
X9055Y68851D01*
X8573Y69573D01*
X7851Y70055D01*
X7500Y70124D01*
Y68000D01*
Y65876D01*
X7851Y65946D01*
X8573Y66427D01*
X9055Y67149D01*
X9157Y67664D01*
X9197Y67866D01*
X9697Y67817D01*
Y60801D01*
X9758Y60494D01*
X9911Y60126D01*
X10085Y59866D01*
X10366Y59585D01*
X10626Y59411D01*
X10994Y59258D01*
X11301Y59197D01*
X27461D01*
X27498Y59193D01*
X27601Y59151D01*
X27651Y59101D01*
X27694Y58998D01*
X27697Y58961D01*
Y54801D01*
X27758Y54494D01*
X27911Y54126D01*
X28085Y53866D01*
X28366Y53585D01*
X28626Y53411D01*
X28994Y53258D01*
X29301Y53197D01*
X29917D01*
X30130Y53023D01*
Y50130D01*
X30130D01*
Y49870D01*
X30130D01*
Y46539D01*
X29917D01*
Y44957D01*
X32000D01*
X34083D01*
Y46539D01*
X33870D01*
Y49870D01*
X33870D01*
Y49933D01*
X34245Y50432D01*
X35661D01*
Y50327D01*
X45701D01*
Y53673D01*
X45701Y53673D01*
X45609Y54173D01*
X45742Y54494D01*
X45803Y54801D01*
Y58199D01*
X45742Y58506D01*
X45742Y58506D01*
X45701Y58605D01*
Y58673D01*
X45673D01*
X45590Y58874D01*
X45415Y59134D01*
X45134Y59415D01*
X44874Y59589D01*
X44506Y59742D01*
X44199Y59803D01*
X36904D01*
X36875Y59819D01*
X36870Y59827D01*
X37126Y60317D01*
X37148Y60327D01*
X45701D01*
Y63673D01*
X42249D01*
Y65136D01*
X42178Y65492D01*
X42513Y65992D01*
X45279D01*
Y70008D01*
X44339D01*
X44249Y70457D01*
X43910Y70966D01*
X41932Y72943D01*
X41580Y73178D01*
X41419Y73419D01*
X40768Y73854D01*
X40000Y74007D01*
X39232Y73854D01*
X38581Y73419D01*
X38146Y72768D01*
X37993Y72000D01*
X38146Y71232D01*
X38581Y70581D01*
X38690Y70508D01*
X38538Y70008D01*
X37721D01*
Y65992D01*
X38631D01*
Y65618D01*
X38751Y65018D01*
X39090Y64510D01*
X39114Y64486D01*
Y63673D01*
X36303D01*
Y74699D01*
X36242Y75006D01*
X36242Y75006D01*
X36090Y75374D01*
X35915Y75634D01*
X35634Y75915D01*
X35374Y76090D01*
X35006Y76242D01*
X34699Y76303D01*
D02*
G37*
G36*
X98465Y79016D02*
X95004D01*
X91543D01*
Y73488D01*
Y67984D01*
X95004D01*
X98465D01*
Y73488D01*
Y79016D01*
D02*
G37*
G36*
X55008Y70500D02*
X51870D01*
Y66457D01*
X55008D01*
Y70500D01*
D02*
G37*
G36*
X50870D02*
X47732D01*
Y66457D01*
X50870D01*
Y70500D01*
D02*
G37*
G36*
X6500Y67500D02*
X4876D01*
X4945Y67149D01*
X5427Y66427D01*
X6149Y65946D01*
X6500Y65876D01*
Y67500D01*
D02*
G37*
G36*
X98465Y66016D02*
X95988D01*
Y60488D01*
X98465D01*
Y66016D01*
D02*
G37*
G36*
X94020D02*
X91543D01*
Y60488D01*
X94020D01*
Y66016D01*
D02*
G37*
G36*
X95000Y58624D02*
Y57000D01*
X96624D01*
X96554Y57351D01*
X96073Y58073D01*
X95351Y58555D01*
X95000Y58624D01*
D02*
G37*
G36*
X94000D02*
X93649Y58555D01*
X92927Y58073D01*
X92445Y57351D01*
X92376Y57000D01*
X94000D01*
Y58624D01*
D02*
G37*
G36*
X96624Y56000D02*
X95000D01*
Y54376D01*
X95351Y54445D01*
X96073Y54927D01*
X96554Y55649D01*
X96624Y56000D01*
D02*
G37*
G36*
X94000D02*
X92376D01*
X92445Y55649D01*
X92927Y54927D01*
X93649Y54445D01*
X94000Y54376D01*
Y56000D01*
D02*
G37*
G36*
X25012Y55858D02*
X19484D01*
Y53381D01*
X25012D01*
Y55858D01*
D02*
G37*
G36*
X17516D02*
X11988D01*
Y53381D01*
X17516D01*
Y55858D01*
D02*
G37*
G36*
X87000Y51124D02*
Y49500D01*
X88624D01*
X88555Y49851D01*
X88073Y50573D01*
X87351Y51055D01*
X87000Y51124D01*
D02*
G37*
G36*
X86000D02*
X85649Y51055D01*
X84927Y50573D01*
X84446Y49851D01*
X84376Y49500D01*
X86000D01*
Y51124D01*
D02*
G37*
G36*
X82709Y52756D02*
X79650D01*
Y49500D01*
X82709D01*
Y52756D01*
D02*
G37*
G36*
X25012Y51413D02*
X19484D01*
Y48937D01*
X25012D01*
Y51413D01*
D02*
G37*
G36*
X17516D02*
X11988D01*
Y48937D01*
X17516D01*
Y51413D01*
D02*
G37*
G36*
X88624Y48500D02*
X87000D01*
Y46876D01*
X87351Y46945D01*
X88073Y47427D01*
X88555Y48149D01*
X88624Y48500D01*
D02*
G37*
G36*
X86000D02*
X84376D01*
X84446Y48149D01*
X84927Y47427D01*
X85649Y46945D01*
X86000Y46876D01*
Y48500D01*
D02*
G37*
G36*
X82709Y48500D02*
X79650D01*
Y45244D01*
X82709D01*
Y48500D01*
D02*
G37*
G36*
X24000Y46124D02*
Y44500D01*
X25624D01*
X25555Y44851D01*
X25073Y45573D01*
X24351Y46055D01*
X24000Y46124D01*
D02*
G37*
G36*
X23000D02*
X22649Y46055D01*
X21927Y45573D01*
X21445Y44851D01*
X21376Y44500D01*
X23000D01*
Y46124D01*
D02*
G37*
G36*
X68339Y53673D02*
X58299D01*
Y50327D01*
X68339D01*
Y50432D01*
X69504D01*
Y45457D01*
X70661D01*
Y44870D01*
X70358D01*
Y42797D01*
X69858Y42748D01*
X69854Y42768D01*
X69419Y43419D01*
X68768Y43854D01*
X68000Y44007D01*
X67232Y43854D01*
X66581Y43419D01*
X66214Y42870D01*
X62796D01*
Y44909D01*
X62794Y44917D01*
X63089Y45327D01*
X68339D01*
Y48673D01*
X58299D01*
Y45327D01*
X59335D01*
X59665Y44951D01*
X59660Y44909D01*
X59661D01*
Y42870D01*
X59358D01*
Y39130D01*
X59358D01*
X59358Y38870D01*
X59358D01*
Y35130D01*
X62689D01*
Y34917D01*
X64272D01*
Y37000D01*
X64772D01*
Y37500D01*
X66854D01*
Y39083D01*
X67209Y39432D01*
X68000D01*
X68185Y39469D01*
X68685Y39059D01*
Y34409D01*
X68472D01*
Y31350D01*
X75984D01*
Y34409D01*
X75772D01*
Y37008D01*
X75852Y37069D01*
X76666Y38131D01*
X77178Y39367D01*
X77353Y40693D01*
X77353D01*
X77505Y41130D01*
X77642D01*
Y44870D01*
X77946Y45244D01*
X78650D01*
Y49000D01*
X79150D01*
D01*
X78650D01*
Y52756D01*
X75591D01*
Y52543D01*
X72686D01*
X72139Y52963D01*
X71035Y53421D01*
X69850Y53576D01*
Y53567D01*
X68339D01*
Y53673D01*
D02*
G37*
G36*
X34083Y43957D02*
X32500D01*
Y42374D01*
X34083D01*
Y43957D01*
D02*
G37*
G36*
X31500D02*
X29917D01*
Y42374D01*
X31500D01*
Y43957D01*
D02*
G37*
G36*
X45205Y43327D02*
X43720D01*
Y42000D01*
X45205D01*
Y43327D01*
D02*
G37*
G36*
X25624Y43500D02*
X24000D01*
Y41876D01*
X24351Y41945D01*
X25073Y42428D01*
X25555Y43149D01*
X25624Y43500D01*
D02*
G37*
G36*
X23000D02*
X21376D01*
X21445Y43149D01*
X21927Y42428D01*
X22649Y41945D01*
X23000Y41876D01*
Y43500D01*
D02*
G37*
G36*
X45205Y41000D02*
X43720D01*
Y39673D01*
X45205D01*
Y41000D01*
D02*
G37*
G36*
X45701Y48673D02*
X35661D01*
Y45327D01*
X39375D01*
Y43114D01*
X39008D01*
Y39886D01*
X41236D01*
Y39673D01*
X42720D01*
Y41500D01*
Y43327D01*
X42184D01*
Y45327D01*
X45701D01*
Y48673D01*
D02*
G37*
G36*
X55000Y38124D02*
Y36500D01*
X56624D01*
X56555Y36851D01*
X56072Y37573D01*
X55351Y38055D01*
X55000Y38124D01*
D02*
G37*
G36*
X54000D02*
X53649Y38055D01*
X52928Y37573D01*
X52446Y36851D01*
X52376Y36500D01*
X54000D01*
Y38124D01*
D02*
G37*
G36*
X48500D02*
Y36500D01*
X50124D01*
X50055Y36851D01*
X49573Y37573D01*
X48851Y38055D01*
X48500Y38124D01*
D02*
G37*
G36*
X47500D02*
X47149Y38055D01*
X46428Y37573D01*
X45945Y36851D01*
X45876Y36500D01*
X47500D01*
Y38124D01*
D02*
G37*
G36*
X66854Y36500D02*
X65272D01*
Y34917D01*
X66854D01*
Y36500D01*
D02*
G37*
G36*
X56624Y35500D02*
X55000D01*
Y33876D01*
X55351Y33945D01*
X56072Y34427D01*
X56555Y35149D01*
X56624Y35500D01*
D02*
G37*
G36*
X54000D02*
X52376D01*
X52446Y35149D01*
X52928Y34427D01*
X53649Y33945D01*
X54000Y33876D01*
Y35500D01*
D02*
G37*
G36*
X50124D02*
X48500D01*
Y33876D01*
X48851Y33945D01*
X49573Y34427D01*
X50055Y35149D01*
X50124Y35500D01*
D02*
G37*
G36*
X47500D02*
X45876D01*
X45945Y35149D01*
X46428Y34427D01*
X47149Y33945D01*
X47500Y33876D01*
Y35500D01*
D02*
G37*
G36*
X75984Y30350D02*
X72728D01*
Y27291D01*
X75984D01*
Y30350D01*
D02*
G37*
G36*
X71728D02*
X68472D01*
Y27291D01*
X71728D01*
Y30350D01*
D02*
G37*
G36*
X72500Y26124D02*
Y24500D01*
X74124D01*
X74054Y24851D01*
X73572Y25572D01*
X72851Y26055D01*
X72500Y26124D01*
D02*
G37*
G36*
X71500D02*
X71149Y26055D01*
X70428Y25572D01*
X69946Y24851D01*
X69876Y24500D01*
X71500D01*
Y26124D01*
D02*
G37*
G36*
X74124Y23500D02*
X72500D01*
Y21876D01*
X72851Y21945D01*
X73572Y22427D01*
X74054Y23149D01*
X74124Y23500D01*
D02*
G37*
G36*
X71500D02*
X69876D01*
X69946Y23149D01*
X70428Y22427D01*
X71149Y21945D01*
X71500Y21876D01*
Y23500D01*
D02*
G37*
%LPD*%
G36*
X57566Y105848D02*
X57848Y105567D01*
X58000Y105199D01*
Y105000D01*
Y87599D01*
Y87500D01*
X58019Y87305D01*
X58169Y86944D01*
X58444Y86668D01*
X58805Y86519D01*
X59000Y86500D01*
X71199D01*
X71566Y86348D01*
X71848Y86066D01*
X72000Y85699D01*
Y85500D01*
Y78000D01*
Y77801D01*
X71848Y77434D01*
X71566Y77152D01*
X71199Y77000D01*
X67000D01*
X66805Y76981D01*
X66444Y76832D01*
X66168Y76556D01*
X66019Y76195D01*
X66000Y76000D01*
Y72500D01*
Y68000D01*
X66019Y67805D01*
X66168Y67444D01*
X66444Y67168D01*
X66805Y67019D01*
X67000Y67000D01*
X67699D01*
X68066Y66848D01*
X68348Y66566D01*
X68500Y66199D01*
Y66000D01*
Y61000D01*
Y60801D01*
X68348Y60434D01*
X68066Y60152D01*
X67699Y60000D01*
X59301D01*
X58934Y60152D01*
X58652Y60434D01*
X58590Y60583D01*
Y64126D01*
X58529Y64433D01*
X58500Y64477D01*
Y80000D01*
X58481Y80195D01*
X58332Y80556D01*
X58056Y80831D01*
X57695Y80981D01*
X57500Y81000D01*
X51301D01*
X50933Y81152D01*
X50652Y81433D01*
X50500Y81801D01*
Y82000D01*
Y87000D01*
X50481Y87195D01*
X50331Y87556D01*
X50056Y87831D01*
X49695Y87981D01*
X49500Y88000D01*
X29301D01*
X28934Y88152D01*
X28652Y88433D01*
X28500Y88801D01*
Y89000D01*
Y105000D01*
Y105199D01*
X28652Y105567D01*
X28934Y105848D01*
X29301Y106000D01*
X57199D01*
X57566Y105848D01*
D02*
G37*
G36*
X80566D02*
X80848Y105567D01*
X81000Y105199D01*
Y105000D01*
Y88500D01*
X81019Y88305D01*
X81169Y87944D01*
X81444Y87669D01*
X81805Y87519D01*
X82000Y87500D01*
X86699D01*
X87066Y87348D01*
X87348Y87066D01*
X87500Y86699D01*
Y86500D01*
Y57000D01*
Y56901D01*
X87424Y56717D01*
X87283Y56576D01*
X87099Y56500D01*
X70301D01*
X69933Y56652D01*
X69652Y56933D01*
X69500Y57301D01*
Y57500D01*
Y65500D01*
Y67000D01*
D01*
X69481Y67195D01*
X69332Y67556D01*
X69056Y67831D01*
X68695Y67981D01*
X68500Y68000D01*
X68301D01*
X67933Y68152D01*
X67652Y68433D01*
X67500Y68801D01*
Y69000D01*
Y74500D01*
Y74699D01*
X67652Y75066D01*
X67933Y75348D01*
X68301Y75500D01*
X72000D01*
X72195Y75519D01*
X72556Y75669D01*
X72831Y75944D01*
X72981Y76305D01*
X73000Y76500D01*
Y76699D01*
D01*
Y88000D01*
X60801D01*
X60434Y88152D01*
X60152Y88433D01*
X60000Y88801D01*
Y89000D01*
Y90301D01*
Y90500D01*
Y105000D01*
Y105199D01*
X60152Y105567D01*
X60434Y105848D01*
X60801Y106000D01*
X80199D01*
X80566Y105848D01*
D02*
G37*
%LPC*%
G36*
X41976Y105087D02*
X36646D01*
Y97984D01*
X41976D01*
Y105087D01*
D02*
G37*
G36*
X34677D02*
X29346D01*
Y97984D01*
X34677D01*
Y105087D01*
D02*
G37*
G36*
X41976Y96016D02*
X36646D01*
Y88913D01*
X41976D01*
Y96016D01*
D02*
G37*
G36*
X34677D02*
X29346D01*
Y88913D01*
X34677D01*
Y96016D01*
D02*
G37*
G36*
X74654Y105087D02*
X69323D01*
Y97984D01*
X74654D01*
Y105087D01*
D02*
G37*
G36*
X67354D02*
X62024D01*
Y97984D01*
X67354D01*
Y105087D01*
D02*
G37*
G36*
X74654Y96016D02*
X69323D01*
Y88913D01*
X74654D01*
Y90500D01*
Y96016D01*
D02*
G37*
G36*
X67354D02*
X62024D01*
Y89500D01*
Y88913D01*
X67354D01*
Y96016D01*
D02*
G37*
G36*
X86457Y86512D02*
X83980D01*
Y80984D01*
X86457D01*
Y86512D01*
D02*
G37*
G36*
X82012D02*
X79535D01*
Y80984D01*
X82012D01*
Y86512D01*
D02*
G37*
G36*
X86457Y79016D02*
X82996D01*
X79535D01*
Y73488D01*
Y67984D01*
X82996D01*
X86457D01*
Y73488D01*
Y79016D01*
D02*
G37*
G36*
Y66016D02*
X83980D01*
Y60488D01*
X86457D01*
Y66016D01*
D02*
G37*
G36*
X82012D02*
X79535D01*
Y60488D01*
X82012D01*
Y66016D01*
D02*
G37*
%LPD*%
G36*
X35066Y75348D02*
X35348Y75066D01*
X35500Y74699D01*
Y74500D01*
Y60000D01*
X35519Y59805D01*
X35669Y59444D01*
X35944Y59168D01*
X36305Y59019D01*
X36500Y59000D01*
X44199D01*
X44566Y58848D01*
X44848Y58566D01*
X45000Y58199D01*
Y58000D01*
Y55000D01*
Y54801D01*
X44848Y54434D01*
X44566Y54152D01*
X44199Y54000D01*
X34083D01*
Y55043D01*
X32000D01*
X29917D01*
Y54000D01*
X29301D01*
X28934Y54152D01*
X28652Y54434D01*
X28500Y54801D01*
Y55000D01*
Y59000D01*
X28481Y59195D01*
X28332Y59556D01*
X28056Y59832D01*
X27695Y59981D01*
X27500Y60000D01*
X11301D01*
X10933Y60152D01*
X10652Y60434D01*
X10500Y60801D01*
Y61000D01*
Y74500D01*
Y74699D01*
X10652Y75066D01*
X10933Y75348D01*
X11301Y75500D01*
X34699D01*
X35066Y75348D01*
D02*
G37*
%LPC*%
G36*
X25012Y74716D02*
X19484D01*
Y72240D01*
X25012D01*
Y74716D01*
D02*
G37*
G36*
X17516D02*
X11988D01*
Y72240D01*
X17516D01*
Y74716D01*
D02*
G37*
G36*
X25012Y70271D02*
X11988D01*
Y67795D01*
Y65389D01*
X18500D01*
Y64405D01*
D01*
Y65389D01*
X25012D01*
Y67795D01*
Y70271D01*
D02*
G37*
G36*
Y63421D02*
X19484D01*
Y60944D01*
X25012D01*
Y63421D01*
D02*
G37*
G36*
X17516D02*
X11988D01*
Y60944D01*
X17516D01*
Y63421D01*
D02*
G37*
G36*
X34083Y57626D02*
X32500D01*
Y56043D01*
X34083D01*
Y57626D01*
D02*
G37*
G36*
X31500D02*
X29917D01*
Y56043D01*
X31500D01*
Y57626D01*
D02*
G37*
%LPD*%
D13*
X68339Y97000D02*
D03*
X35661D02*
D03*
D14*
X39886Y68000D02*
D03*
X43114D02*
D03*
D15*
X63319Y62000D02*
D03*
Y57000D02*
D03*
Y47000D02*
D03*
Y52000D02*
D03*
X40681Y47000D02*
D03*
Y52000D02*
D03*
Y62000D02*
D03*
Y57000D02*
D03*
D16*
X52000Y54500D02*
D03*
D17*
X51370Y71000D02*
D03*
X62630D02*
D03*
D18*
X61228Y41000D02*
D03*
X64772D02*
D03*
X72228Y43000D02*
D03*
X75772D02*
D03*
X61228Y37000D02*
D03*
X64772D02*
D03*
D19*
X32000Y55543D02*
D03*
Y52000D02*
D03*
Y44457D02*
D03*
Y48000D02*
D03*
D20*
X18500Y52397D02*
D03*
Y64405D02*
D03*
Y83263D02*
D03*
Y71255D02*
D03*
D21*
X82996Y67000D02*
D03*
X95004D02*
D03*
X82996Y80000D02*
D03*
X95004D02*
D03*
D22*
X43220Y41500D02*
D03*
X40780D02*
D03*
D23*
X72850Y49000D02*
D03*
X79150D02*
D03*
D24*
X72228Y37150D02*
D03*
Y30850D02*
D03*
D39*
X54100Y54500D02*
D03*
X49800D02*
D03*
Y58600D02*
D03*
X54100D02*
D03*
Y50300D02*
D03*
X49900D02*
D03*
D40*
X72228Y37150D02*
X73145Y37270D01*
X74000Y37624D01*
X74734Y38187D01*
X75297Y38921D01*
X75651Y39776D01*
X75772Y40693D01*
X72850Y49000D02*
X72228Y48378D01*
X72850Y49000D02*
X72704Y49927D01*
X72277Y50763D01*
X71614Y51427D01*
X70777Y51853D01*
X69850Y52000D01*
X63319Y47000D02*
X62274Y46720D01*
X61508Y45955D01*
X61228Y44909D01*
X40780Y46902D02*
X40681Y47000D01*
X26000Y97000D02*
X35661D01*
X40000Y72000D02*
X40165Y71835D01*
X40823D01*
X42801Y69857D01*
X39886Y68000D02*
X40199Y67687D01*
Y65618D02*
Y67687D01*
Y65618D02*
X40681Y65136D01*
Y62000D02*
Y65136D01*
X42801Y68313D02*
Y69857D01*
Y68313D02*
X43114Y68000D01*
X18000Y70755D02*
X18500Y71255D01*
X18000Y64905D02*
Y70755D01*
Y64905D02*
X18500Y64405D01*
X64772Y41000D02*
X68000D01*
Y42000D01*
X75772Y40693D02*
Y43000D01*
X72228D02*
Y48378D01*
X63319Y52000D02*
X69850D01*
X61228Y41000D02*
Y44909D01*
Y37000D02*
Y41000D01*
X61228Y37000D02*
X61228D01*
X32000Y48000D02*
Y52000D01*
X40681D01*
D41*
X40780Y41500D02*
Y46902D01*
D42*
X73506Y69854D02*
D03*
X30494D02*
D03*
D43*
X52000Y17500D02*
D03*
Y136350D02*
D03*
D44*
X19500Y93500D02*
D03*
X38000Y112000D02*
D03*
X31000Y121500D02*
D03*
X10000Y90000D02*
D03*
X7000Y68000D02*
D03*
X23500Y44000D02*
D03*
X45000Y82000D02*
D03*
X54500Y36000D02*
D03*
X48000D02*
D03*
X72000Y24000D02*
D03*
X86500Y49000D02*
D03*
X94500Y56500D02*
D03*
X95000Y91500D02*
D03*
X26000Y97000D02*
D03*
X40000Y72000D02*
D03*
X68000Y42000D02*
D03*
M02*
