M48
;Layer_Color=9474304
;FILE_FORMAT=2:5
INCH,TZ
;TYPE=PLATED
T1F00S00C0.01181
T2F00S00C0.01968
T3F00S00C0.04291
T4F00S00C0.15748
%
T01
X23500Y44000
X48000Y36000
X54500
X68000Y42000
X72000Y24000
X86500Y49000
X94500Y56500
X95000Y91500
X45000Y82000
X40000Y72000
X7000Y68000
X10000Y90000
X19500Y93500
X26000Y97000
X38000Y112000
X31000Y121500
T02
X49900Y50300
X54100
Y54500
Y58600
X49800
Y54500
T03
X30494Y69854
X73506
T04
X52000Y17500
Y136350
M30
