G04*
G04 #@! TF.GenerationSoftware,Altium Limited,Altium Designer,20.1.14 (287)*
G04*
G04 Layer_Color=32896*
%FSLAX25Y25*%
%MOIN*%
G70*
G04*
G04 #@! TF.SameCoordinates,279C02DF-711F-4997-8B9F-8018C1F95EB8*
G04*
G04*
G04 #@! TF.FilePolarity,Positive*
G04*
G01*
G75*
G36*
X41886Y101414D02*
X41948D01*
Y101352D01*
X42009D01*
Y101290D01*
X42071D01*
Y101228D01*
X42133D01*
Y101167D01*
Y101105D01*
X42195D01*
Y101043D01*
Y100981D01*
X42257D01*
Y100919D01*
X42318D01*
Y100858D01*
Y100796D01*
Y100734D01*
X42380D01*
Y100672D01*
Y100611D01*
X42442D01*
Y100549D01*
Y100487D01*
X42504D01*
Y100425D01*
Y100363D01*
Y100302D01*
X42566D01*
Y100240D01*
Y100178D01*
X42628D01*
Y100116D01*
Y100054D01*
Y99993D01*
X42689D01*
Y99931D01*
Y99869D01*
Y99807D01*
Y99746D01*
X42751D01*
Y99684D01*
Y99622D01*
Y99560D01*
Y99498D01*
X42813D01*
Y99436D01*
Y99375D01*
Y99313D01*
Y99251D01*
Y99189D01*
X42875D01*
Y99128D01*
Y99066D01*
Y99004D01*
Y98942D01*
Y98880D01*
X42936D01*
Y98819D01*
Y98757D01*
Y98695D01*
Y98633D01*
Y98571D01*
Y98510D01*
Y98448D01*
X42998D01*
Y98386D01*
Y98324D01*
Y98262D01*
Y98201D01*
Y98139D01*
Y98077D01*
Y98015D01*
Y97953D01*
Y97892D01*
Y97830D01*
Y97768D01*
Y97706D01*
Y97645D01*
Y97583D01*
Y97521D01*
Y97459D01*
Y97397D01*
Y97335D01*
Y97274D01*
Y97212D01*
Y97150D01*
Y97088D01*
Y97027D01*
Y96965D01*
X42936D01*
Y96903D01*
Y96841D01*
Y96779D01*
Y96718D01*
Y96656D01*
Y96594D01*
Y96532D01*
Y96470D01*
X42875D01*
Y96409D01*
Y96347D01*
Y96285D01*
Y96223D01*
Y96162D01*
X42813D01*
Y96100D01*
Y96038D01*
Y95976D01*
Y95914D01*
X42751D01*
Y95853D01*
Y95791D01*
Y95729D01*
Y95667D01*
X42689D01*
Y95605D01*
Y95544D01*
Y95482D01*
X42628D01*
Y95420D01*
X42689D01*
Y95358D01*
X42628D01*
Y95296D01*
Y95235D01*
Y95173D01*
X42566D01*
Y95111D01*
Y95049D01*
X42504D01*
Y94987D01*
Y94926D01*
X42442D01*
Y94864D01*
Y94802D01*
X42380D01*
Y94740D01*
Y94678D01*
Y94617D01*
X42318D01*
Y94555D01*
Y94493D01*
X42257D01*
Y94431D01*
X42195D01*
Y94370D01*
Y94308D01*
X42133D01*
Y94246D01*
Y94184D01*
X42071D01*
Y94122D01*
Y94060D01*
X42009D01*
Y93999D01*
X41948D01*
Y93937D01*
X41701D01*
Y93999D01*
Y94060D01*
X41639D01*
Y94122D01*
Y94184D01*
X41701D01*
Y94246D01*
Y94308D01*
X41762D01*
Y94370D01*
Y94431D01*
X41824D01*
Y94493D01*
X41886D01*
Y94555D01*
Y94617D01*
X41948D01*
Y94678D01*
Y94740D01*
X42009D01*
Y94802D01*
Y94864D01*
X42071D01*
Y94926D01*
Y94987D01*
X42133D01*
Y95049D01*
Y95111D01*
X42195D01*
Y95173D01*
Y95235D01*
X42257D01*
Y95296D01*
Y95358D01*
X42318D01*
Y95420D01*
Y95482D01*
Y95544D01*
Y95605D01*
X42380D01*
Y95667D01*
Y95729D01*
Y95791D01*
Y95853D01*
X42442D01*
Y95914D01*
Y95976D01*
Y96038D01*
X42504D01*
Y96100D01*
Y96162D01*
Y96223D01*
Y96285D01*
Y96347D01*
X42566D01*
Y96409D01*
Y96470D01*
Y96532D01*
Y96594D01*
Y96656D01*
Y96718D01*
X42628D01*
Y96779D01*
Y96841D01*
Y96903D01*
Y96965D01*
Y97027D01*
Y97088D01*
Y97150D01*
Y97212D01*
Y97274D01*
Y97335D01*
X42689D01*
Y97397D01*
Y97459D01*
Y97521D01*
Y97583D01*
Y97645D01*
Y97706D01*
Y97768D01*
Y97830D01*
Y97892D01*
Y97953D01*
Y98015D01*
Y98077D01*
X42628D01*
Y98139D01*
Y98201D01*
Y98262D01*
Y98324D01*
Y98386D01*
Y98448D01*
Y98510D01*
Y98571D01*
Y98633D01*
Y98695D01*
X42566D01*
Y98757D01*
Y98819D01*
Y98880D01*
Y98942D01*
Y99004D01*
X42504D01*
Y99066D01*
Y99128D01*
Y99189D01*
Y99251D01*
Y99313D01*
X42442D01*
Y99375D01*
Y99436D01*
Y99498D01*
X42380D01*
Y99560D01*
Y99622D01*
Y99684D01*
Y99746D01*
Y99807D01*
Y99869D01*
X42318D01*
Y99931D01*
Y99993D01*
X42257D01*
Y100054D01*
Y100116D01*
Y100178D01*
X42195D01*
Y100240D01*
Y100302D01*
X42133D01*
Y100363D01*
Y100425D01*
Y100487D01*
X42071D01*
Y100549D01*
X42009D01*
Y100611D01*
Y100672D01*
X41948D01*
Y100734D01*
Y100796D01*
X41886D01*
Y100858D01*
X41824D01*
Y100919D01*
Y100981D01*
X41762D01*
Y101043D01*
X41701D01*
Y101105D01*
Y101167D01*
Y101228D01*
X41639D01*
Y101290D01*
X41701D01*
Y101352D01*
Y101414D01*
X41762D01*
Y101476D01*
X41886D01*
Y101414D01*
D02*
G37*
G36*
X30516D02*
X30578D01*
Y101352D01*
Y101290D01*
Y101228D01*
Y101167D01*
X30516D01*
Y101105D01*
Y101043D01*
X30454D01*
Y100981D01*
X30393D01*
Y100919D01*
Y100858D01*
X30331D01*
Y100796D01*
Y100734D01*
X30269D01*
Y100672D01*
X30207D01*
Y100611D01*
Y100549D01*
X30145D01*
Y100487D01*
Y100425D01*
X30084D01*
Y100363D01*
Y100302D01*
X30022D01*
Y100240D01*
Y100178D01*
X29960D01*
Y100116D01*
Y100054D01*
Y99993D01*
Y99931D01*
X29898D01*
Y99869D01*
Y99807D01*
Y99746D01*
X29836D01*
Y99684D01*
Y99622D01*
Y99560D01*
Y99498D01*
X29774D01*
Y99436D01*
Y99375D01*
Y99313D01*
X29713D01*
Y99251D01*
Y99189D01*
Y99128D01*
Y99066D01*
X29651D01*
Y99004D01*
Y98942D01*
Y98880D01*
Y98819D01*
X29589D01*
Y98757D01*
Y98695D01*
Y98633D01*
Y98571D01*
Y98510D01*
Y98448D01*
Y98386D01*
Y98324D01*
X29527D01*
Y98262D01*
Y98201D01*
Y98139D01*
Y98077D01*
Y98015D01*
Y97953D01*
Y97892D01*
Y97830D01*
Y97768D01*
Y97706D01*
Y97645D01*
Y97583D01*
Y97521D01*
Y97459D01*
Y97397D01*
Y97335D01*
Y97274D01*
Y97212D01*
Y97150D01*
Y97088D01*
X29589D01*
Y97027D01*
Y96965D01*
Y96903D01*
Y96841D01*
Y96779D01*
Y96718D01*
Y96656D01*
X29651D01*
Y96594D01*
Y96532D01*
Y96470D01*
Y96409D01*
Y96347D01*
X29713D01*
Y96285D01*
Y96223D01*
Y96162D01*
Y96100D01*
Y96038D01*
X29774D01*
Y95976D01*
Y95914D01*
Y95853D01*
X29836D01*
Y95791D01*
Y95729D01*
Y95667D01*
Y95605D01*
X29898D01*
Y95544D01*
Y95482D01*
X29960D01*
Y95420D01*
Y95358D01*
Y95296D01*
X30022D01*
Y95235D01*
Y95173D01*
Y95111D01*
Y95049D01*
X30084D01*
Y94987D01*
X30145D01*
Y94926D01*
Y94864D01*
X30207D01*
Y94802D01*
Y94740D01*
X30269D01*
Y94678D01*
X30331D01*
Y94617D01*
Y94555D01*
Y94493D01*
X30393D01*
Y94431D01*
X30454D01*
Y94370D01*
X30516D01*
Y94308D01*
Y94246D01*
X30578D01*
Y94184D01*
Y94122D01*
Y94060D01*
Y93999D01*
X30516D01*
Y93937D01*
X30454D01*
Y93875D01*
X30393D01*
Y93937D01*
X30269D01*
Y93999D01*
X30207D01*
Y94060D01*
Y94122D01*
X30145D01*
Y94184D01*
Y94246D01*
X30084D01*
Y94308D01*
X30022D01*
Y94370D01*
Y94431D01*
X29960D01*
Y94493D01*
Y94555D01*
X29898D01*
Y94617D01*
X29836D01*
Y94678D01*
Y94740D01*
Y94802D01*
X29774D01*
Y94864D01*
Y94926D01*
X29713D01*
Y94987D01*
Y95049D01*
X29651D01*
Y95111D01*
Y95173D01*
Y95235D01*
X29589D01*
Y95296D01*
Y95358D01*
Y95420D01*
X29527D01*
Y95482D01*
Y95544D01*
Y95605D01*
X29466D01*
Y95667D01*
Y95729D01*
Y95791D01*
X29404D01*
Y95853D01*
Y95914D01*
Y95976D01*
Y96038D01*
Y96100D01*
X29342D01*
Y96162D01*
Y96223D01*
Y96285D01*
Y96347D01*
X29280D01*
Y96409D01*
Y96470D01*
Y96532D01*
Y96594D01*
Y96656D01*
Y96718D01*
Y96779D01*
X29218D01*
Y96841D01*
Y96903D01*
Y96965D01*
Y97027D01*
Y97088D01*
Y97150D01*
Y97212D01*
Y97274D01*
Y97335D01*
Y97397D01*
Y97459D01*
Y97521D01*
Y97583D01*
Y97645D01*
Y97706D01*
Y97768D01*
Y97830D01*
Y97892D01*
Y97953D01*
Y98015D01*
Y98077D01*
Y98139D01*
Y98201D01*
Y98262D01*
Y98324D01*
Y98386D01*
Y98448D01*
Y98510D01*
Y98571D01*
Y98633D01*
X29280D01*
Y98695D01*
Y98757D01*
Y98819D01*
Y98880D01*
Y98942D01*
Y99004D01*
X29342D01*
Y99066D01*
Y99128D01*
Y99189D01*
Y99251D01*
Y99313D01*
X29404D01*
Y99375D01*
Y99436D01*
Y99498D01*
Y99560D01*
X29466D01*
Y99622D01*
Y99684D01*
Y99746D01*
X29527D01*
Y99807D01*
Y99869D01*
Y99931D01*
X29589D01*
Y99993D01*
Y100054D01*
Y100116D01*
Y100178D01*
X29651D01*
Y100240D01*
Y100302D01*
X29713D01*
Y100363D01*
Y100425D01*
Y100487D01*
X29774D01*
Y100549D01*
Y100611D01*
X29836D01*
Y100672D01*
Y100734D01*
X29898D01*
Y100796D01*
Y100858D01*
X29960D01*
Y100919D01*
Y100981D01*
X30022D01*
Y101043D01*
Y101105D01*
X30084D01*
Y101167D01*
X30145D01*
Y101228D01*
Y101290D01*
X30207D01*
Y101352D01*
X30269D01*
Y101414D01*
X30331D01*
Y101476D01*
X30516D01*
Y101414D01*
D02*
G37*
G36*
X18961Y85533D02*
Y85471D01*
X18899D01*
Y85409D01*
Y85348D01*
Y85286D01*
Y85224D01*
X18837D01*
Y85162D01*
Y85101D01*
Y85039D01*
Y84977D01*
X18775D01*
Y84915D01*
Y84853D01*
Y84792D01*
Y84730D01*
X18714D01*
Y84668D01*
Y84606D01*
Y84544D01*
X18652D01*
Y84483D01*
Y84421D01*
Y84359D01*
X18590D01*
Y84297D01*
Y84235D01*
Y84174D01*
Y84112D01*
X18528D01*
Y84050D01*
Y83988D01*
Y83926D01*
X18466D01*
Y83865D01*
Y83803D01*
Y83741D01*
X18405D01*
Y83679D01*
Y83618D01*
Y83556D01*
Y83494D01*
X18343D01*
Y83432D01*
Y83370D01*
Y83309D01*
Y83247D01*
Y83185D01*
X18281D01*
Y83123D01*
Y83061D01*
Y83000D01*
X18219D01*
Y82938D01*
Y82876D01*
Y82814D01*
X18158D01*
Y82752D01*
Y82691D01*
Y82629D01*
Y82567D01*
X18096D01*
Y82505D01*
Y82443D01*
Y82382D01*
X18034D01*
Y82320D01*
Y82258D01*
Y82196D01*
Y82134D01*
X17972D01*
Y82073D01*
Y82011D01*
Y81949D01*
X17910D01*
Y81887D01*
Y81826D01*
Y81764D01*
X17849D01*
Y81702D01*
Y81640D01*
Y81578D01*
Y81516D01*
Y81455D01*
X17787D01*
Y81393D01*
Y81331D01*
Y81269D01*
X17725D01*
Y81208D01*
Y81146D01*
Y81084D01*
Y81022D01*
X17663D01*
Y80960D01*
Y80899D01*
Y80837D01*
X17601D01*
Y80775D01*
Y80713D01*
Y80651D01*
Y80590D01*
X17539D01*
Y80528D01*
Y80466D01*
Y80404D01*
X17478D01*
Y80343D01*
Y80281D01*
Y80219D01*
X17416D01*
Y80157D01*
Y80095D01*
Y80033D01*
Y79972D01*
X17354D01*
Y79910D01*
Y79848D01*
Y79786D01*
X17292D01*
Y79725D01*
Y79663D01*
Y79601D01*
Y79539D01*
Y79477D01*
X17231D01*
Y79416D01*
Y79354D01*
Y79292D01*
Y79230D01*
X17169D01*
Y79168D01*
Y79107D01*
Y79045D01*
X17107D01*
Y78983D01*
Y78921D01*
Y78859D01*
X17045D01*
Y78798D01*
Y78736D01*
Y78674D01*
X16983D01*
Y78612D01*
Y78550D01*
Y78489D01*
Y78427D01*
X16922D01*
Y78365D01*
Y78303D01*
Y78241D01*
X16860D01*
Y78180D01*
Y78118D01*
Y78056D01*
X16798D01*
Y77994D01*
Y77933D01*
Y77871D01*
Y77809D01*
X16736D01*
Y77747D01*
Y77685D01*
Y77624D01*
Y77562D01*
Y77500D01*
X16674D01*
Y77438D01*
Y77376D01*
Y77315D01*
X16613D01*
Y77253D01*
Y77191D01*
Y77129D01*
X16551D01*
Y77067D01*
Y77006D01*
Y76944D01*
Y76882D01*
X16489D01*
Y76820D01*
Y76758D01*
Y76697D01*
X16427D01*
Y76635D01*
Y76573D01*
Y76511D01*
Y76450D01*
X16365D01*
Y76388D01*
Y76326D01*
Y76264D01*
X16304D01*
Y76202D01*
Y76140D01*
Y76079D01*
Y76017D01*
X16242D01*
Y75955D01*
Y75893D01*
Y75832D01*
X14265D01*
Y75893D01*
Y75955D01*
Y76017D01*
X14203D01*
Y76079D01*
Y76140D01*
Y76202D01*
X14141D01*
Y76264D01*
Y76326D01*
Y76388D01*
Y76450D01*
X14079D01*
Y76511D01*
Y76573D01*
Y76635D01*
X14017D01*
Y76697D01*
Y76758D01*
Y76820D01*
Y76882D01*
X13956D01*
Y76944D01*
Y77006D01*
Y77067D01*
X13894D01*
Y77129D01*
Y77191D01*
Y77253D01*
X13832D01*
Y77315D01*
Y77376D01*
Y77438D01*
Y77500D01*
Y77562D01*
Y77624D01*
X13770D01*
Y77685D01*
Y77747D01*
Y77809D01*
X13708D01*
Y77871D01*
Y77933D01*
Y77994D01*
Y78056D01*
X13647D01*
Y78118D01*
Y78180D01*
Y78241D01*
X13585D01*
Y78303D01*
Y78365D01*
Y78427D01*
Y78489D01*
X13523D01*
Y78550D01*
Y78612D01*
Y78674D01*
X13461D01*
Y78736D01*
Y78798D01*
Y78859D01*
X13399D01*
Y78921D01*
Y78983D01*
Y79045D01*
Y79107D01*
X13338D01*
Y79168D01*
Y79230D01*
Y79292D01*
Y79354D01*
Y79416D01*
X13276D01*
Y79477D01*
Y79539D01*
Y79601D01*
Y79663D01*
X13214D01*
Y79725D01*
Y79786D01*
Y79848D01*
X13152D01*
Y79910D01*
Y79972D01*
Y80033D01*
Y80095D01*
X13090D01*
Y80157D01*
Y80219D01*
Y80281D01*
X13029D01*
Y80343D01*
Y80404D01*
Y80466D01*
Y80528D01*
X12967D01*
Y80590D01*
Y80651D01*
Y80713D01*
X12905D01*
Y80775D01*
Y80837D01*
Y80899D01*
X12843D01*
Y80960D01*
Y81022D01*
Y81084D01*
Y81146D01*
X12781D01*
Y81208D01*
Y81269D01*
Y81331D01*
Y81393D01*
Y81455D01*
X12720D01*
Y81516D01*
Y81578D01*
Y81640D01*
Y81702D01*
X12658D01*
Y81764D01*
Y81826D01*
Y81887D01*
X12596D01*
Y81949D01*
Y82011D01*
X12472D01*
Y81949D01*
Y81887D01*
Y81826D01*
X12411D01*
Y81764D01*
Y81702D01*
Y81640D01*
X12349D01*
Y81578D01*
Y81516D01*
Y81455D01*
Y81393D01*
X12287D01*
Y81331D01*
Y81269D01*
Y81208D01*
X12225D01*
Y81146D01*
Y81084D01*
Y81022D01*
Y80960D01*
X12163D01*
Y80899D01*
Y80837D01*
Y80775D01*
Y80713D01*
X12102D01*
Y80651D01*
Y80590D01*
Y80528D01*
X12040D01*
Y80466D01*
Y80404D01*
Y80343D01*
Y80281D01*
X11978D01*
Y80219D01*
X12040D01*
Y80157D01*
X11978D01*
Y80095D01*
Y80033D01*
Y79972D01*
X11916D01*
Y79910D01*
Y79848D01*
Y79786D01*
Y79725D01*
X11855D01*
Y79663D01*
Y79601D01*
Y79539D01*
X11793D01*
Y79477D01*
Y79416D01*
Y79354D01*
Y79292D01*
X11731D01*
Y79230D01*
Y79168D01*
Y79107D01*
Y79045D01*
X11669D01*
Y78983D01*
Y78921D01*
Y78859D01*
X11607D01*
Y78798D01*
Y78736D01*
Y78674D01*
Y78612D01*
X11546D01*
Y78550D01*
Y78489D01*
Y78427D01*
X11484D01*
Y78365D01*
Y78303D01*
Y78241D01*
Y78180D01*
X11422D01*
Y78118D01*
X11484D01*
Y78056D01*
X11422D01*
Y77994D01*
Y77933D01*
Y77871D01*
X11360D01*
Y77809D01*
Y77747D01*
Y77685D01*
Y77624D01*
X11298D01*
Y77562D01*
Y77500D01*
Y77438D01*
X11237D01*
Y77376D01*
Y77315D01*
Y77253D01*
Y77191D01*
X11175D01*
Y77129D01*
Y77067D01*
Y77006D01*
Y76944D01*
X11113D01*
Y76882D01*
Y76820D01*
Y76758D01*
X11051D01*
Y76697D01*
Y76635D01*
Y76573D01*
Y76511D01*
X10989D01*
Y76450D01*
Y76388D01*
Y76326D01*
X10928D01*
Y76264D01*
Y76202D01*
Y76140D01*
Y76079D01*
Y76017D01*
Y75955D01*
X10866D01*
Y75893D01*
Y75832D01*
X8950D01*
Y75893D01*
Y75955D01*
Y76017D01*
X8889D01*
Y76079D01*
Y76140D01*
Y76202D01*
Y76264D01*
X8827D01*
Y76326D01*
Y76388D01*
Y76450D01*
X8765D01*
Y76511D01*
Y76573D01*
Y76635D01*
X8703D01*
Y76697D01*
Y76758D01*
Y76820D01*
X8641D01*
Y76882D01*
Y76944D01*
Y77006D01*
Y77067D01*
X8580D01*
Y77129D01*
Y77191D01*
Y77253D01*
X8518D01*
Y77315D01*
Y77376D01*
Y77438D01*
Y77500D01*
Y77562D01*
X8456D01*
Y77624D01*
Y77685D01*
Y77747D01*
X8394D01*
Y77809D01*
Y77871D01*
Y77933D01*
X8332D01*
Y77994D01*
Y78056D01*
Y78118D01*
Y78180D01*
X8271D01*
Y78241D01*
Y78303D01*
X8209D01*
Y78365D01*
Y78427D01*
Y78489D01*
Y78550D01*
X8147D01*
Y78612D01*
Y78674D01*
Y78736D01*
X8085D01*
Y78798D01*
Y78859D01*
Y78921D01*
X8023D01*
Y78983D01*
Y79045D01*
Y79107D01*
X7962D01*
Y79168D01*
X8023D01*
Y79230D01*
X7962D01*
Y79292D01*
Y79354D01*
Y79416D01*
X7900D01*
Y79477D01*
Y79539D01*
Y79601D01*
Y79663D01*
X7838D01*
Y79725D01*
Y79786D01*
X7776D01*
Y79848D01*
Y79910D01*
Y79972D01*
Y80033D01*
X7714D01*
Y80095D01*
Y80157D01*
Y80219D01*
X7653D01*
Y80281D01*
Y80343D01*
Y80404D01*
X7591D01*
Y80466D01*
Y80528D01*
Y80590D01*
Y80651D01*
X7529D01*
Y80713D01*
Y80775D01*
Y80837D01*
Y80899D01*
X7467D01*
Y80960D01*
Y81022D01*
Y81084D01*
Y81146D01*
X7406D01*
Y81208D01*
Y81269D01*
Y81331D01*
X7344D01*
Y81393D01*
Y81455D01*
Y81516D01*
X7282D01*
Y81578D01*
Y81640D01*
Y81702D01*
X7220D01*
Y81764D01*
Y81826D01*
Y81887D01*
X7158D01*
Y81949D01*
Y82011D01*
Y82073D01*
Y82134D01*
X7096D01*
Y82196D01*
Y82258D01*
Y82320D01*
X7035D01*
Y82382D01*
Y82443D01*
Y82505D01*
X6973D01*
Y82567D01*
Y82629D01*
Y82691D01*
X6911D01*
Y82752D01*
X6973D01*
Y82814D01*
X6911D01*
Y82876D01*
Y82938D01*
Y83000D01*
X6849D01*
Y83061D01*
Y83123D01*
Y83185D01*
X6788D01*
Y83247D01*
Y83309D01*
Y83370D01*
Y83432D01*
X6726D01*
Y83494D01*
Y83556D01*
Y83618D01*
X6664D01*
Y83679D01*
Y83741D01*
Y83803D01*
X6602D01*
Y83865D01*
Y83926D01*
Y83988D01*
X6540D01*
Y84050D01*
Y84112D01*
Y84174D01*
X6479D01*
Y84235D01*
Y84297D01*
Y84359D01*
Y84421D01*
X6417D01*
Y84483D01*
Y84544D01*
Y84606D01*
X6355D01*
Y84668D01*
Y84730D01*
Y84792D01*
Y84853D01*
Y84915D01*
X6293D01*
Y84977D01*
Y85039D01*
Y85101D01*
X6231D01*
Y85162D01*
Y85224D01*
Y85286D01*
X6170D01*
Y85348D01*
Y85409D01*
Y85471D01*
X6108D01*
Y85533D01*
Y85595D01*
X7962D01*
Y85533D01*
Y85471D01*
Y85409D01*
Y85348D01*
X8023D01*
Y85286D01*
Y85224D01*
Y85162D01*
X8085D01*
Y85101D01*
Y85039D01*
Y84977D01*
X8147D01*
Y84915D01*
Y84853D01*
Y84792D01*
Y84730D01*
X8209D01*
Y84668D01*
Y84606D01*
Y84544D01*
X8271D01*
Y84483D01*
Y84421D01*
Y84359D01*
Y84297D01*
X8332D01*
Y84235D01*
Y84174D01*
Y84112D01*
Y84050D01*
X8394D01*
Y83988D01*
Y83926D01*
Y83865D01*
Y83803D01*
X8456D01*
Y83741D01*
Y83679D01*
Y83618D01*
X8518D01*
Y83556D01*
Y83494D01*
Y83432D01*
Y83370D01*
X8580D01*
Y83309D01*
Y83247D01*
Y83185D01*
X8641D01*
Y83123D01*
Y83061D01*
Y83000D01*
X8703D01*
Y82938D01*
Y82876D01*
Y82814D01*
Y82752D01*
X8765D01*
Y82691D01*
Y82629D01*
Y82567D01*
X8827D01*
Y82505D01*
Y82443D01*
Y82382D01*
Y82320D01*
Y82258D01*
X8889D01*
Y82196D01*
Y82134D01*
Y82073D01*
X8950D01*
Y82011D01*
Y81949D01*
Y81887D01*
Y81826D01*
X9012D01*
Y81764D01*
Y81702D01*
Y81640D01*
X9074D01*
Y81578D01*
Y81516D01*
Y81455D01*
Y81393D01*
X9136D01*
Y81331D01*
Y81269D01*
Y81208D01*
X9198D01*
Y81146D01*
Y81084D01*
Y81022D01*
X9259D01*
Y80960D01*
Y80899D01*
Y80837D01*
Y80775D01*
X9321D01*
Y80713D01*
Y80651D01*
Y80590D01*
X9383D01*
Y80528D01*
X9321D01*
Y80466D01*
X9383D01*
Y80404D01*
Y80343D01*
Y80281D01*
X9445D01*
Y80219D01*
Y80157D01*
Y80095D01*
Y80033D01*
X9506D01*
Y79972D01*
Y79910D01*
Y79848D01*
X9568D01*
Y79786D01*
Y79725D01*
Y79663D01*
X9630D01*
Y79601D01*
Y79539D01*
Y79477D01*
X9692D01*
Y79416D01*
Y79354D01*
Y79292D01*
Y79230D01*
X9754D01*
Y79168D01*
Y79107D01*
Y79045D01*
Y78983D01*
X9815D01*
Y78921D01*
Y78859D01*
Y78798D01*
X9877D01*
Y78736D01*
X9815D01*
Y78674D01*
X9939D01*
Y78736D01*
X10001D01*
Y78798D01*
Y78859D01*
X10063D01*
Y78921D01*
Y78983D01*
Y79045D01*
X10124D01*
Y79107D01*
Y79168D01*
Y79230D01*
Y79292D01*
Y79354D01*
Y79416D01*
X10186D01*
Y79477D01*
Y79539D01*
Y79601D01*
X10248D01*
Y79663D01*
Y79725D01*
Y79786D01*
Y79848D01*
X10310D01*
Y79910D01*
Y79972D01*
Y80033D01*
Y80095D01*
X10372D01*
Y80157D01*
Y80219D01*
Y80281D01*
X10433D01*
Y80343D01*
Y80404D01*
Y80466D01*
Y80528D01*
X10495D01*
Y80590D01*
Y80651D01*
Y80713D01*
Y80775D01*
X10557D01*
Y80837D01*
Y80899D01*
Y80960D01*
Y81022D01*
X10619D01*
Y81084D01*
Y81146D01*
Y81208D01*
Y81269D01*
Y81331D01*
X10680D01*
Y81393D01*
Y81455D01*
Y81516D01*
Y81578D01*
X10742D01*
Y81640D01*
Y81702D01*
Y81764D01*
X10804D01*
Y81826D01*
Y81887D01*
Y81949D01*
Y82011D01*
X10866D01*
Y82073D01*
Y82134D01*
Y82196D01*
Y82258D01*
X10928D01*
Y82320D01*
Y82382D01*
Y82443D01*
X10989D01*
Y82505D01*
Y82567D01*
Y82629D01*
Y82691D01*
X11051D01*
Y82752D01*
Y82814D01*
Y82876D01*
Y82938D01*
X11113D01*
Y83000D01*
Y83061D01*
Y83123D01*
Y83185D01*
Y83247D01*
X11175D01*
Y83309D01*
Y83370D01*
Y83432D01*
Y83494D01*
X11237D01*
Y83556D01*
Y83618D01*
Y83679D01*
Y83741D01*
X11298D01*
Y83803D01*
Y83865D01*
Y83926D01*
X11360D01*
Y83988D01*
Y84050D01*
Y84112D01*
Y84174D01*
X11422D01*
Y84235D01*
Y84297D01*
Y84359D01*
Y84421D01*
X11484D01*
Y84483D01*
Y84544D01*
Y84606D01*
X11546D01*
Y84668D01*
Y84730D01*
Y84792D01*
Y84853D01*
X11607D01*
Y84915D01*
Y84977D01*
Y85039D01*
Y85101D01*
X11669D01*
Y85162D01*
Y85224D01*
Y85286D01*
Y85348D01*
Y85409D01*
X11731D01*
Y85471D01*
Y85533D01*
Y85595D01*
X13276D01*
Y85533D01*
Y85471D01*
Y85409D01*
X13338D01*
Y85348D01*
Y85286D01*
Y85224D01*
X13399D01*
Y85162D01*
Y85101D01*
Y85039D01*
Y84977D01*
X13461D01*
Y84915D01*
Y84853D01*
Y84792D01*
X13523D01*
Y84730D01*
Y84668D01*
Y84606D01*
Y84544D01*
X13585D01*
Y84483D01*
Y84421D01*
Y84359D01*
X13647D01*
Y84297D01*
Y84235D01*
Y84174D01*
Y84112D01*
Y84050D01*
X13708D01*
Y83988D01*
Y83926D01*
Y83865D01*
Y83803D01*
X13770D01*
Y83741D01*
Y83679D01*
Y83618D01*
X13832D01*
Y83556D01*
Y83494D01*
Y83432D01*
Y83370D01*
X13894D01*
Y83309D01*
Y83247D01*
Y83185D01*
X13956D01*
Y83123D01*
Y83061D01*
Y83000D01*
X14017D01*
Y82938D01*
Y82876D01*
Y82814D01*
Y82752D01*
X14079D01*
Y82691D01*
Y82629D01*
Y82567D01*
Y82505D01*
Y82443D01*
X14141D01*
Y82382D01*
Y82320D01*
Y82258D01*
Y82196D01*
X14203D01*
Y82134D01*
Y82073D01*
Y82011D01*
X14265D01*
Y81949D01*
Y81887D01*
Y81826D01*
X14326D01*
Y81764D01*
Y81702D01*
Y81640D01*
Y81578D01*
X14388D01*
Y81516D01*
Y81455D01*
Y81393D01*
X14450D01*
Y81331D01*
Y81269D01*
Y81208D01*
Y81146D01*
X14512D01*
Y81084D01*
Y81022D01*
Y80960D01*
X14573D01*
Y80899D01*
Y80837D01*
Y80775D01*
Y80713D01*
X14635D01*
Y80651D01*
Y80590D01*
Y80528D01*
Y80466D01*
Y80404D01*
X14697D01*
Y80343D01*
Y80281D01*
Y80219D01*
X14759D01*
Y80157D01*
Y80095D01*
Y80033D01*
Y79972D01*
X14821D01*
Y79910D01*
Y79848D01*
Y79786D01*
X14882D01*
Y79725D01*
Y79663D01*
Y79601D01*
Y79539D01*
X14944D01*
Y79477D01*
Y79416D01*
Y79354D01*
X15006D01*
Y79292D01*
Y79230D01*
Y79168D01*
Y79107D01*
X15068D01*
Y79045D01*
Y78983D01*
Y78921D01*
X15130D01*
Y78859D01*
Y78798D01*
Y78736D01*
X15191D01*
Y78674D01*
X15253D01*
Y78736D01*
X15315D01*
Y78798D01*
Y78859D01*
Y78921D01*
Y78983D01*
X15377D01*
Y79045D01*
Y79107D01*
Y79168D01*
X15439D01*
Y79230D01*
X15377D01*
Y79292D01*
X15439D01*
Y79354D01*
Y79416D01*
Y79477D01*
X15500D01*
Y79539D01*
Y79601D01*
Y79663D01*
Y79725D01*
X15562D01*
Y79786D01*
Y79848D01*
Y79910D01*
Y79972D01*
X15624D01*
Y80033D01*
Y80095D01*
Y80157D01*
X15686D01*
Y80219D01*
Y80281D01*
Y80343D01*
Y80404D01*
X15747D01*
Y80466D01*
Y80528D01*
Y80590D01*
X15809D01*
Y80651D01*
Y80713D01*
Y80775D01*
Y80837D01*
X15871D01*
Y80899D01*
Y80960D01*
Y81022D01*
Y81084D01*
Y81146D01*
X15933D01*
Y81208D01*
Y81269D01*
X15995D01*
Y81331D01*
X15933D01*
Y81393D01*
X15995D01*
Y81455D01*
Y81516D01*
Y81578D01*
X16057D01*
Y81640D01*
Y81702D01*
Y81764D01*
Y81826D01*
X16118D01*
Y81887D01*
Y81949D01*
Y82011D01*
Y82073D01*
X16180D01*
Y82134D01*
Y82196D01*
Y82258D01*
X16242D01*
Y82320D01*
Y82382D01*
Y82443D01*
Y82505D01*
X16304D01*
Y82567D01*
Y82629D01*
Y82691D01*
X16365D01*
Y82752D01*
Y82814D01*
Y82876D01*
Y82938D01*
X16427D01*
Y83000D01*
Y83061D01*
Y83123D01*
Y83185D01*
Y83247D01*
X16489D01*
Y83309D01*
Y83370D01*
Y83432D01*
Y83494D01*
X16551D01*
Y83556D01*
Y83618D01*
Y83679D01*
Y83741D01*
X16613D01*
Y83803D01*
Y83865D01*
Y83926D01*
X16674D01*
Y83988D01*
Y84050D01*
Y84112D01*
Y84174D01*
X16736D01*
Y84235D01*
Y84297D01*
Y84359D01*
X16798D01*
Y84421D01*
Y84483D01*
Y84544D01*
Y84606D01*
X16860D01*
Y84668D01*
Y84730D01*
Y84792D01*
Y84853D01*
X16922D01*
Y84915D01*
Y84977D01*
Y85039D01*
X16983D01*
Y85101D01*
Y85162D01*
Y85224D01*
Y85286D01*
X17045D01*
Y85348D01*
Y85409D01*
Y85471D01*
Y85533D01*
Y85595D01*
X18961D01*
Y85533D01*
D02*
G37*
G36*
X60362Y85348D02*
Y85286D01*
Y85224D01*
Y85162D01*
Y85101D01*
Y85039D01*
Y84977D01*
Y84915D01*
Y84853D01*
Y84792D01*
Y84730D01*
Y84668D01*
Y84606D01*
Y84544D01*
Y84483D01*
Y84421D01*
Y84359D01*
Y84297D01*
Y84235D01*
Y84174D01*
Y84112D01*
Y84050D01*
Y83988D01*
Y83926D01*
Y83865D01*
Y83803D01*
Y83741D01*
Y83679D01*
Y83618D01*
Y83556D01*
Y83494D01*
Y83432D01*
Y83370D01*
Y83309D01*
Y83247D01*
Y83185D01*
Y83123D01*
Y83061D01*
Y83000D01*
Y82938D01*
Y82876D01*
Y82814D01*
Y82752D01*
Y82691D01*
Y82629D01*
Y82567D01*
Y82505D01*
Y82443D01*
Y82382D01*
Y82320D01*
Y82258D01*
Y82196D01*
Y82134D01*
Y82073D01*
Y82011D01*
Y81949D01*
Y81887D01*
Y81826D01*
Y81764D01*
Y81702D01*
Y81640D01*
Y81578D01*
Y81516D01*
Y81455D01*
Y81393D01*
Y81331D01*
Y81269D01*
Y81208D01*
Y81146D01*
Y81084D01*
Y81022D01*
Y80960D01*
Y80899D01*
Y80837D01*
Y80775D01*
Y80713D01*
Y80651D01*
Y80590D01*
Y80528D01*
Y80466D01*
Y80404D01*
Y80343D01*
Y80281D01*
Y80219D01*
Y80157D01*
Y80095D01*
Y80033D01*
Y79972D01*
Y79910D01*
Y79848D01*
Y79786D01*
Y79725D01*
Y79663D01*
Y79601D01*
Y79539D01*
Y79477D01*
Y79416D01*
Y79354D01*
Y79292D01*
Y79230D01*
Y79168D01*
Y79107D01*
Y79045D01*
Y78983D01*
Y78921D01*
Y78859D01*
Y78798D01*
Y78736D01*
Y78674D01*
Y78612D01*
Y78550D01*
Y78489D01*
Y78427D01*
Y78365D01*
Y78303D01*
Y78241D01*
Y78180D01*
Y78118D01*
Y78056D01*
Y77994D01*
Y77933D01*
Y77871D01*
Y77809D01*
Y77747D01*
Y77685D01*
Y77624D01*
Y77562D01*
Y77500D01*
Y77438D01*
Y77376D01*
Y77315D01*
Y77253D01*
Y77191D01*
Y77129D01*
Y77067D01*
Y77006D01*
Y76944D01*
Y76882D01*
Y76820D01*
Y76758D01*
Y76697D01*
Y76635D01*
Y76573D01*
Y76511D01*
Y76450D01*
Y76388D01*
Y76326D01*
Y76264D01*
Y76202D01*
Y76140D01*
Y76079D01*
Y76017D01*
Y75955D01*
Y75893D01*
Y75832D01*
X53936D01*
Y75893D01*
X53688D01*
Y75955D01*
X53503D01*
Y76017D01*
X53318D01*
Y76079D01*
X53256D01*
Y76140D01*
X53132D01*
Y76202D01*
X53070D01*
Y76264D01*
X53009D01*
Y76326D01*
X52947D01*
Y76388D01*
Y76450D01*
X52885D01*
Y76511D01*
X52823D01*
Y76573D01*
Y76635D01*
X52762D01*
Y76697D01*
Y76758D01*
Y76820D01*
X52700D01*
Y76882D01*
Y76944D01*
Y77006D01*
Y77067D01*
Y77129D01*
X52638D01*
Y77191D01*
Y77253D01*
Y77315D01*
Y77376D01*
Y77438D01*
Y77500D01*
Y77562D01*
Y77624D01*
Y77685D01*
Y77747D01*
Y77809D01*
Y77871D01*
Y77933D01*
Y77994D01*
Y78056D01*
Y78118D01*
Y78180D01*
Y78241D01*
Y78303D01*
Y78365D01*
Y78427D01*
Y78489D01*
Y78550D01*
Y78612D01*
Y78674D01*
Y78736D01*
Y78798D01*
Y78859D01*
Y78921D01*
Y78983D01*
Y79045D01*
Y79107D01*
Y79168D01*
Y79230D01*
Y79292D01*
Y79354D01*
Y79416D01*
Y79477D01*
Y79539D01*
Y79601D01*
Y79663D01*
Y79725D01*
Y79786D01*
Y79848D01*
Y79910D01*
Y79972D01*
Y80033D01*
Y80095D01*
Y80157D01*
Y80219D01*
Y80281D01*
Y80343D01*
Y80404D01*
Y80466D01*
Y80528D01*
Y80590D01*
Y80651D01*
Y80713D01*
Y80775D01*
Y80837D01*
Y80899D01*
Y80960D01*
Y81022D01*
Y81084D01*
Y81146D01*
Y81208D01*
Y81269D01*
Y81331D01*
Y81393D01*
Y81455D01*
Y81516D01*
Y81578D01*
Y81640D01*
Y81702D01*
Y81764D01*
Y81826D01*
Y81887D01*
Y81949D01*
Y82011D01*
Y82073D01*
Y82134D01*
Y82196D01*
Y82258D01*
Y82320D01*
Y82382D01*
Y82443D01*
Y82505D01*
Y82567D01*
Y82629D01*
Y82691D01*
Y82752D01*
Y82814D01*
Y82876D01*
Y82938D01*
Y83000D01*
Y83061D01*
Y83123D01*
Y83185D01*
Y83247D01*
Y83309D01*
Y83370D01*
Y83432D01*
Y83494D01*
Y83556D01*
Y83618D01*
Y83679D01*
Y83741D01*
Y83803D01*
Y83865D01*
Y83926D01*
Y83988D01*
Y84050D01*
X52700D01*
Y84112D01*
Y84174D01*
Y84235D01*
X52762D01*
Y84297D01*
Y84359D01*
Y84421D01*
X52823D01*
Y84483D01*
Y84544D01*
X52885D01*
Y84606D01*
X52947D01*
Y84668D01*
Y84730D01*
X53009D01*
Y84792D01*
X53070D01*
Y84853D01*
X53132D01*
Y84915D01*
X53194D01*
Y84977D01*
X53256D01*
Y85039D01*
X53379D01*
Y85101D01*
X53441D01*
Y85162D01*
X53565D01*
Y85224D01*
X53688D01*
Y85286D01*
X53812D01*
Y85348D01*
X54059D01*
Y85409D01*
X60362D01*
Y85348D01*
D02*
G37*
G36*
X50846Y85286D02*
Y85224D01*
Y85162D01*
Y85101D01*
Y85039D01*
Y84977D01*
Y84915D01*
Y84853D01*
Y84792D01*
Y84730D01*
Y84668D01*
Y84606D01*
Y84544D01*
Y84483D01*
Y84421D01*
Y84359D01*
Y84297D01*
Y84235D01*
Y84174D01*
Y84112D01*
Y84050D01*
Y83988D01*
Y83926D01*
Y83865D01*
Y83803D01*
Y83741D01*
Y83679D01*
Y83618D01*
Y83556D01*
Y83494D01*
Y83432D01*
Y83370D01*
Y83309D01*
Y83247D01*
Y83185D01*
Y83123D01*
Y83061D01*
Y83000D01*
Y82938D01*
Y82876D01*
Y82814D01*
Y82752D01*
Y82691D01*
Y82629D01*
Y82567D01*
Y82505D01*
Y82443D01*
Y82382D01*
Y82320D01*
Y82258D01*
Y82196D01*
Y82134D01*
Y82073D01*
Y82011D01*
Y81949D01*
Y81887D01*
Y81826D01*
Y81764D01*
Y81702D01*
Y81640D01*
Y81578D01*
Y81516D01*
Y81455D01*
Y81393D01*
Y81331D01*
Y81269D01*
Y81208D01*
Y81146D01*
Y81084D01*
Y81022D01*
Y80960D01*
Y80899D01*
Y80837D01*
Y80775D01*
Y80713D01*
Y80651D01*
Y80590D01*
Y80528D01*
Y80466D01*
Y80404D01*
Y80343D01*
Y80281D01*
Y80219D01*
Y80157D01*
Y80095D01*
Y80033D01*
Y79972D01*
Y79910D01*
Y79848D01*
Y79786D01*
Y79725D01*
Y79663D01*
Y79601D01*
Y79539D01*
Y79477D01*
Y79416D01*
Y79354D01*
Y79292D01*
Y79230D01*
Y79168D01*
Y79107D01*
Y79045D01*
Y78983D01*
Y78921D01*
Y78859D01*
Y78798D01*
Y78736D01*
Y78674D01*
Y78612D01*
Y78550D01*
Y78489D01*
Y78427D01*
Y78365D01*
Y78303D01*
Y78241D01*
Y78180D01*
Y78118D01*
Y78056D01*
Y77994D01*
Y77933D01*
Y77871D01*
Y77809D01*
Y77747D01*
Y77685D01*
Y77624D01*
Y77562D01*
Y77500D01*
Y77438D01*
Y77376D01*
Y77315D01*
Y77253D01*
Y77191D01*
Y77129D01*
Y77067D01*
Y77006D01*
Y76944D01*
Y76882D01*
Y76820D01*
Y76758D01*
Y76697D01*
Y76635D01*
Y76573D01*
Y76511D01*
Y76450D01*
Y76388D01*
Y76326D01*
Y76264D01*
Y76202D01*
Y76140D01*
Y76079D01*
Y76017D01*
Y75955D01*
Y75893D01*
Y75832D01*
X44667D01*
Y75893D01*
Y75955D01*
Y76017D01*
Y76079D01*
Y76140D01*
Y76202D01*
Y76264D01*
Y76326D01*
Y76388D01*
Y76450D01*
Y76511D01*
Y76573D01*
Y76635D01*
Y76697D01*
Y76758D01*
Y76820D01*
Y76882D01*
Y76944D01*
Y77006D01*
Y77067D01*
Y77129D01*
Y77191D01*
Y77253D01*
Y77315D01*
Y77376D01*
Y77438D01*
X49054D01*
Y77500D01*
Y77562D01*
Y77624D01*
Y77685D01*
Y77747D01*
Y77809D01*
Y77871D01*
Y77933D01*
Y77994D01*
Y78056D01*
Y78118D01*
Y78180D01*
Y78241D01*
Y78303D01*
Y78365D01*
Y78427D01*
Y78489D01*
Y78550D01*
Y78612D01*
Y78674D01*
Y78736D01*
Y78798D01*
Y78859D01*
Y78921D01*
Y78983D01*
Y79045D01*
Y79107D01*
Y79168D01*
Y79230D01*
Y79292D01*
Y79354D01*
Y79416D01*
Y79477D01*
Y79539D01*
Y79601D01*
Y79663D01*
Y79725D01*
Y79786D01*
Y79848D01*
Y79910D01*
Y79972D01*
Y80033D01*
Y80095D01*
Y80157D01*
Y80219D01*
Y80281D01*
Y80343D01*
Y80404D01*
Y80466D01*
Y80528D01*
Y80590D01*
Y80651D01*
Y80713D01*
Y80775D01*
Y80837D01*
Y80899D01*
Y80960D01*
Y81022D01*
Y81084D01*
Y81146D01*
Y81208D01*
Y81269D01*
Y81331D01*
Y81393D01*
Y81455D01*
Y81516D01*
Y81578D01*
Y81640D01*
Y81702D01*
Y81764D01*
Y81826D01*
Y81887D01*
Y81949D01*
Y82011D01*
Y82073D01*
Y82134D01*
Y82196D01*
Y82258D01*
Y82320D01*
Y82382D01*
Y82443D01*
Y82505D01*
Y82567D01*
Y82629D01*
Y82691D01*
Y82752D01*
Y82814D01*
Y82876D01*
Y82938D01*
Y83000D01*
Y83061D01*
Y83123D01*
Y83185D01*
Y83247D01*
Y83309D01*
Y83370D01*
Y83432D01*
Y83494D01*
Y83556D01*
Y83618D01*
Y83679D01*
Y83741D01*
Y83803D01*
Y83865D01*
Y83926D01*
Y83988D01*
Y84050D01*
Y84112D01*
Y84174D01*
Y84235D01*
Y84297D01*
Y84359D01*
Y84421D01*
Y84483D01*
Y84544D01*
Y84606D01*
Y84668D01*
Y84730D01*
Y84792D01*
Y84853D01*
Y84915D01*
Y84977D01*
Y85039D01*
Y85101D01*
Y85162D01*
Y85224D01*
Y85286D01*
Y85348D01*
X50846D01*
Y85286D01*
D02*
G37*
G36*
X36819Y99684D02*
X37066D01*
Y99622D01*
X37251D01*
Y99560D01*
X37375D01*
Y99498D01*
X37499D01*
Y99436D01*
X37560D01*
Y99375D01*
X37684D01*
Y99313D01*
X37746D01*
Y99251D01*
X37869D01*
Y99189D01*
X37931D01*
Y99128D01*
X37993D01*
Y99066D01*
X38055D01*
Y99004D01*
X38117D01*
Y98942D01*
Y98880D01*
X38178D01*
Y98819D01*
X38240D01*
Y98757D01*
X38302D01*
Y98695D01*
Y98633D01*
X38364D01*
Y98571D01*
X38425D01*
Y98510D01*
Y98448D01*
X38487D01*
Y98386D01*
X38425D01*
Y98324D01*
X38487D01*
Y98262D01*
Y98201D01*
Y98139D01*
X38549D01*
Y98077D01*
Y98015D01*
Y97953D01*
Y97892D01*
X38611D01*
Y97830D01*
Y97768D01*
Y97706D01*
Y97645D01*
Y97583D01*
Y97521D01*
X38549D01*
Y97459D01*
Y97397D01*
Y97335D01*
Y97274D01*
Y97212D01*
X38487D01*
Y97150D01*
Y97088D01*
Y97027D01*
Y96965D01*
X38425D01*
Y96903D01*
Y96841D01*
Y96779D01*
X38364D01*
Y96718D01*
X38302D01*
Y96656D01*
Y96594D01*
X38240D01*
Y96532D01*
Y96470D01*
X38117D01*
Y96409D01*
Y96347D01*
X38055D01*
Y96285D01*
X37993D01*
Y96223D01*
X37931D01*
Y96162D01*
X37869D01*
Y96100D01*
X37746D01*
Y96038D01*
X37684D01*
Y95976D01*
X37622D01*
Y95914D01*
X37499D01*
Y95853D01*
X37375D01*
Y95791D01*
X37313D01*
Y95729D01*
Y95667D01*
Y95605D01*
X37375D01*
Y95544D01*
X37437D01*
Y95482D01*
Y95420D01*
X37499D01*
Y95358D01*
X37560D01*
Y95296D01*
Y95235D01*
X37622D01*
Y95173D01*
Y95111D01*
X37684D01*
Y95049D01*
Y94987D01*
X37746D01*
Y94926D01*
X37808D01*
Y94864D01*
Y94802D01*
Y94740D01*
X37869D01*
Y94678D01*
Y94617D01*
X37931D01*
Y94555D01*
Y94493D01*
X37993D01*
Y94431D01*
Y94370D01*
Y94308D01*
X38055D01*
Y94246D01*
Y94184D01*
Y94122D01*
X38117D01*
Y94060D01*
Y93999D01*
X38178D01*
Y93937D01*
Y93875D01*
Y93813D01*
X38240D01*
Y93752D01*
Y93690D01*
Y93628D01*
X38302D01*
Y93566D01*
Y93504D01*
Y93443D01*
X38364D01*
Y93381D01*
Y93319D01*
Y93257D01*
X38425D01*
Y93195D01*
Y93134D01*
Y93072D01*
X38487D01*
Y93010D01*
Y92948D01*
Y92887D01*
Y92825D01*
X38549D01*
Y92763D01*
Y92701D01*
Y92639D01*
X38611D01*
Y92577D01*
Y92516D01*
Y92454D01*
X38673D01*
Y92392D01*
Y92330D01*
Y92269D01*
X38734D01*
Y92207D01*
Y92145D01*
X38796D01*
Y92083D01*
Y92021D01*
Y91960D01*
X38858D01*
Y91898D01*
Y91836D01*
Y91774D01*
X38920D01*
Y91712D01*
Y91651D01*
Y91589D01*
X38982D01*
Y91527D01*
Y91465D01*
Y91403D01*
Y91342D01*
X39044D01*
Y91280D01*
Y91218D01*
Y91156D01*
X39105D01*
Y91094D01*
Y91033D01*
Y90971D01*
X39167D01*
Y90909D01*
Y90847D01*
Y90785D01*
X39229D01*
Y90724D01*
Y90662D01*
X39291D01*
Y90600D01*
Y90538D01*
Y90477D01*
X39352D01*
Y90415D01*
Y90353D01*
Y90291D01*
X39414D01*
Y90229D01*
Y90168D01*
Y90106D01*
X39476D01*
Y90044D01*
Y89982D01*
Y89920D01*
X39538D01*
Y89859D01*
Y89797D01*
Y89735D01*
Y89673D01*
X39600D01*
Y89611D01*
Y89550D01*
Y89488D01*
X39661D01*
Y89426D01*
Y89364D01*
Y89302D01*
X39723D01*
Y89241D01*
Y89179D01*
Y89117D01*
X39785D01*
Y89055D01*
Y88994D01*
X39847D01*
Y88932D01*
Y88870D01*
Y88808D01*
X39909D01*
Y88746D01*
Y88684D01*
Y88623D01*
X39970D01*
Y88561D01*
Y88499D01*
Y88437D01*
X40032D01*
Y88376D01*
Y88314D01*
Y88252D01*
Y88190D01*
X40094D01*
Y88128D01*
Y88067D01*
Y88005D01*
X40156D01*
Y87943D01*
Y87881D01*
Y87819D01*
X40218D01*
Y87758D01*
Y87696D01*
Y87634D01*
X40279D01*
Y87572D01*
Y87511D01*
Y87449D01*
X40341D01*
Y87387D01*
Y87325D01*
X40403D01*
Y87263D01*
Y87201D01*
Y87140D01*
X40465D01*
Y87078D01*
Y87016D01*
Y86954D01*
X40527D01*
Y86892D01*
Y86831D01*
Y86769D01*
X40588D01*
Y86707D01*
Y86645D01*
Y86584D01*
Y86522D01*
X40650D01*
Y86460D01*
Y86398D01*
Y86336D01*
X40712D01*
Y86275D01*
Y86213D01*
Y86151D01*
X40774D01*
Y86089D01*
Y86027D01*
Y85966D01*
X40835D01*
Y85904D01*
Y85842D01*
X40897D01*
Y85780D01*
Y85719D01*
Y85657D01*
X40959D01*
Y85595D01*
Y85533D01*
Y85471D01*
X41021D01*
Y85409D01*
Y85348D01*
Y85286D01*
X41083D01*
Y85224D01*
Y85162D01*
Y85101D01*
Y85039D01*
X41144D01*
Y84977D01*
Y84915D01*
Y84853D01*
X41206D01*
Y84792D01*
Y84730D01*
Y84668D01*
X41268D01*
Y84606D01*
Y84544D01*
X41330D01*
Y84483D01*
Y84421D01*
Y84359D01*
Y84297D01*
X41392D01*
Y84235D01*
Y84174D01*
Y84112D01*
X41453D01*
Y84050D01*
Y83988D01*
Y83926D01*
X41515D01*
Y83865D01*
Y83803D01*
Y83741D01*
X41577D01*
Y83679D01*
Y83618D01*
Y83556D01*
Y83494D01*
X41639D01*
Y83432D01*
Y83370D01*
Y83309D01*
X41701D01*
Y83247D01*
Y83185D01*
X41762D01*
Y83123D01*
Y83061D01*
Y83000D01*
X41824D01*
Y82938D01*
Y82876D01*
Y82814D01*
X41886D01*
Y82752D01*
Y82691D01*
Y82629D01*
X41948D01*
Y82567D01*
Y82505D01*
Y82443D01*
X42009D01*
Y82382D01*
Y82320D01*
Y82258D01*
X42071D01*
Y82196D01*
Y82134D01*
Y82073D01*
X42133D01*
Y82011D01*
Y81949D01*
X42195D01*
Y81887D01*
Y81826D01*
Y81764D01*
X42257D01*
Y81702D01*
Y81640D01*
Y81578D01*
X42318D01*
Y81516D01*
Y81455D01*
Y81393D01*
X42380D01*
Y81331D01*
Y81269D01*
Y81208D01*
X42442D01*
Y81146D01*
Y81084D01*
Y81022D01*
X42504D01*
Y80960D01*
Y80899D01*
Y80837D01*
X42566D01*
Y80775D01*
Y80713D01*
Y80651D01*
X42628D01*
Y80590D01*
Y80528D01*
Y80466D01*
X42689D01*
Y80404D01*
X42628D01*
Y80343D01*
X42689D01*
Y80281D01*
Y80219D01*
Y80157D01*
X42751D01*
Y80095D01*
Y80033D01*
X42813D01*
Y79972D01*
Y79910D01*
Y79848D01*
X42875D01*
Y79786D01*
Y79725D01*
Y79663D01*
X42936D01*
Y79601D01*
Y79539D01*
Y79477D01*
X42998D01*
Y79416D01*
Y79354D01*
X43060D01*
Y79292D01*
Y79230D01*
Y79168D01*
X43122D01*
Y79107D01*
Y79045D01*
Y78983D01*
Y78921D01*
X43184D01*
Y78859D01*
Y78798D01*
Y78736D01*
Y78674D01*
X43245D01*
Y78612D01*
Y78550D01*
Y78489D01*
X43307D01*
Y78427D01*
Y78365D01*
X43369D01*
Y78303D01*
Y78241D01*
Y78180D01*
X43431D01*
Y78118D01*
Y78056D01*
Y77994D01*
X43493D01*
Y77933D01*
Y77871D01*
Y77809D01*
X43554D01*
Y77747D01*
Y77685D01*
X43616D01*
Y77624D01*
Y77562D01*
Y77500D01*
X43678D01*
Y77438D01*
Y77376D01*
Y77315D01*
X43740D01*
Y77253D01*
X43678D01*
Y77191D01*
X43740D01*
Y77129D01*
Y77067D01*
Y77006D01*
X43802D01*
Y76944D01*
Y76882D01*
X43863D01*
Y76820D01*
Y76758D01*
Y76697D01*
X43925D01*
Y76635D01*
Y76573D01*
Y76511D01*
X43987D01*
Y76450D01*
Y76388D01*
Y76326D01*
X44049D01*
Y76264D01*
Y76202D01*
X44111D01*
Y76140D01*
Y76079D01*
Y76017D01*
X44172D01*
Y75955D01*
Y75893D01*
Y75832D01*
X43245D01*
Y75893D01*
Y75955D01*
X43184D01*
Y76017D01*
Y76079D01*
Y76140D01*
X43122D01*
Y76202D01*
Y76264D01*
Y76326D01*
Y76388D01*
X43060D01*
Y76450D01*
Y76511D01*
Y76573D01*
X42998D01*
Y76635D01*
Y76697D01*
X42936D01*
Y76758D01*
Y76820D01*
Y76882D01*
X42875D01*
Y76944D01*
Y77006D01*
Y77067D01*
Y77129D01*
Y77191D01*
X42813D01*
Y77253D01*
Y77315D01*
Y77376D01*
X42751D01*
Y77438D01*
Y77500D01*
Y77562D01*
X42689D01*
Y77624D01*
Y77685D01*
X42628D01*
Y77747D01*
Y77809D01*
Y77871D01*
X42566D01*
Y77933D01*
Y77994D01*
Y78056D01*
X42504D01*
Y78118D01*
Y78180D01*
Y78241D01*
X42442D01*
Y78303D01*
Y78365D01*
Y78427D01*
X42380D01*
Y78489D01*
Y78550D01*
Y78612D01*
Y78674D01*
X42318D01*
Y78736D01*
Y78798D01*
Y78859D01*
X42257D01*
Y78921D01*
Y78983D01*
Y79045D01*
X42195D01*
Y79107D01*
Y79168D01*
Y79230D01*
X42133D01*
Y79292D01*
Y79354D01*
X42071D01*
Y79416D01*
Y79477D01*
Y79539D01*
X42009D01*
Y79601D01*
Y79663D01*
Y79725D01*
X41948D01*
Y79786D01*
Y79848D01*
Y79910D01*
X41886D01*
Y79972D01*
Y80033D01*
X41824D01*
Y80095D01*
X41886D01*
Y80157D01*
X41824D01*
Y80219D01*
Y80281D01*
Y80343D01*
X41762D01*
Y80404D01*
Y80466D01*
Y80528D01*
X41701D01*
Y80590D01*
Y80651D01*
Y80713D01*
X41639D01*
Y80775D01*
Y80837D01*
X41577D01*
Y80899D01*
Y80960D01*
Y81022D01*
X41515D01*
Y81084D01*
Y81146D01*
Y81208D01*
X41453D01*
Y81269D01*
Y81331D01*
Y81393D01*
X41392D01*
Y81455D01*
Y81516D01*
Y81578D01*
X41330D01*
Y81640D01*
Y81702D01*
Y81764D01*
X41268D01*
Y81826D01*
Y81887D01*
Y81949D01*
Y82011D01*
X41206D01*
Y82073D01*
Y82134D01*
Y82196D01*
X41144D01*
Y82258D01*
Y82320D01*
Y82382D01*
X41083D01*
Y82443D01*
Y82505D01*
X41021D01*
Y82567D01*
Y82629D01*
Y82691D01*
X40959D01*
Y82752D01*
Y82814D01*
Y82876D01*
X40897D01*
Y82938D01*
Y83000D01*
Y83061D01*
X40835D01*
Y83123D01*
Y83185D01*
Y83247D01*
X40774D01*
Y83309D01*
Y83370D01*
Y83432D01*
Y83494D01*
X40712D01*
Y83556D01*
Y83618D01*
Y83679D01*
X40650D01*
Y83741D01*
Y83803D01*
Y83865D01*
X40588D01*
Y83926D01*
Y83988D01*
Y84050D01*
X40527D01*
Y84112D01*
Y84174D01*
Y84235D01*
X40465D01*
Y84297D01*
Y84359D01*
Y84421D01*
X40403D01*
Y84483D01*
Y84544D01*
Y84606D01*
X40341D01*
Y84668D01*
Y84730D01*
X40279D01*
Y84792D01*
Y84853D01*
Y84915D01*
X40218D01*
Y84977D01*
Y85039D01*
Y85101D01*
Y85162D01*
X40156D01*
Y85224D01*
Y85286D01*
X40094D01*
Y85348D01*
X40032D01*
Y85409D01*
Y85471D01*
X39970D01*
Y85533D01*
X39909D01*
Y85595D01*
X39785D01*
Y85657D01*
X39661D01*
Y85719D01*
X39600D01*
Y85780D01*
X39538D01*
Y85842D01*
X39476D01*
Y85904D01*
X39414D01*
Y85966D01*
X39291D01*
Y86027D01*
X39229D01*
Y86089D01*
X39167D01*
Y86151D01*
X39105D01*
Y86213D01*
X38982D01*
Y86275D01*
X38920D01*
Y86336D01*
X38858D01*
Y86398D01*
X38796D01*
Y86460D01*
X38673D01*
Y86522D01*
X38611D01*
Y86584D01*
X38549D01*
Y86645D01*
X38425D01*
Y86707D01*
X38364D01*
Y86769D01*
X38302D01*
Y86831D01*
X38178D01*
Y86892D01*
X38117D01*
Y86954D01*
X38055D01*
Y87016D01*
X37931D01*
Y87078D01*
X37869D01*
Y87140D01*
X37808D01*
Y87201D01*
X37684D01*
Y87263D01*
X37622D01*
Y87325D01*
X37560D01*
Y87387D01*
X37437D01*
Y87449D01*
X37375D01*
Y87511D01*
X37313D01*
Y87572D01*
X37190D01*
Y87634D01*
X37128D01*
Y87696D01*
X37066D01*
Y87758D01*
X37004D01*
Y87819D01*
X36881D01*
Y87881D01*
X36819D01*
Y87943D01*
X36757D01*
Y88005D01*
X36695D01*
Y88067D01*
X36572D01*
Y88128D01*
X36510D01*
Y88190D01*
X36448D01*
Y88252D01*
X36139D01*
Y88190D01*
X36077D01*
Y88128D01*
X36016D01*
Y88067D01*
X35954D01*
Y88005D01*
X35830D01*
Y87943D01*
X35768D01*
Y87881D01*
X35707D01*
Y87819D01*
X35645D01*
Y87758D01*
X35521D01*
Y87696D01*
X35460D01*
Y87634D01*
X35398D01*
Y87572D01*
X35274D01*
Y87511D01*
X35212D01*
Y87449D01*
X35151D01*
Y87387D01*
X35089D01*
Y87325D01*
X34965D01*
Y87263D01*
X34903D01*
Y87201D01*
X34842D01*
Y87140D01*
X34780D01*
Y87078D01*
X34718D01*
Y87016D01*
X34656D01*
Y86954D01*
X34533D01*
Y86892D01*
X34471D01*
Y86831D01*
X34409D01*
Y86769D01*
X34285D01*
Y86707D01*
X34224D01*
Y86645D01*
X34162D01*
Y86584D01*
X34100D01*
Y86522D01*
X33976D01*
Y86460D01*
X33915D01*
Y86398D01*
X33853D01*
Y86336D01*
X33791D01*
Y86275D01*
X33667D01*
Y86213D01*
X33606D01*
Y86151D01*
X33544D01*
Y86089D01*
X33482D01*
Y86027D01*
X33358D01*
Y85966D01*
X33297D01*
Y85904D01*
X33235D01*
Y85842D01*
X33173D01*
Y85780D01*
X33050D01*
Y85719D01*
X32988D01*
Y85657D01*
X32926D01*
Y85595D01*
X32802D01*
Y85533D01*
X32741D01*
Y85471D01*
X32679D01*
Y85409D01*
X32555D01*
Y85348D01*
X32493D01*
Y85286D01*
X32432D01*
Y85224D01*
Y85162D01*
X32370D01*
Y85101D01*
X32308D01*
Y85039D01*
Y84977D01*
X32246D01*
Y84915D01*
Y84853D01*
Y84792D01*
X32184D01*
Y84730D01*
Y84668D01*
Y84606D01*
X32123D01*
Y84544D01*
Y84483D01*
Y84421D01*
Y84359D01*
X32061D01*
Y84297D01*
Y84235D01*
Y84174D01*
X31999D01*
Y84112D01*
Y84050D01*
Y83988D01*
X31937D01*
Y83926D01*
Y83865D01*
Y83803D01*
X31876D01*
Y83741D01*
Y83679D01*
Y83618D01*
X31814D01*
Y83556D01*
Y83494D01*
X31752D01*
Y83432D01*
Y83370D01*
Y83309D01*
X31690D01*
Y83247D01*
Y83185D01*
Y83123D01*
Y83061D01*
X31628D01*
Y83000D01*
Y82938D01*
Y82876D01*
X31567D01*
Y82814D01*
Y82752D01*
Y82691D01*
Y82629D01*
X31505D01*
Y82567D01*
Y82505D01*
Y82443D01*
X31443D01*
Y82382D01*
Y82320D01*
X31381D01*
Y82258D01*
Y82196D01*
Y82134D01*
X31319D01*
Y82073D01*
Y82011D01*
Y81949D01*
X31258D01*
Y81887D01*
Y81826D01*
Y81764D01*
X31196D01*
Y81702D01*
Y81640D01*
Y81578D01*
X31134D01*
Y81516D01*
Y81455D01*
Y81393D01*
X31072D01*
Y81331D01*
Y81269D01*
X31010D01*
Y81208D01*
X31072D01*
Y81146D01*
X31010D01*
Y81084D01*
Y81022D01*
Y80960D01*
X30949D01*
Y80899D01*
Y80837D01*
X30887D01*
Y80775D01*
Y80713D01*
Y80651D01*
X30825D01*
Y80590D01*
Y80528D01*
Y80466D01*
X30763D01*
Y80404D01*
Y80343D01*
Y80281D01*
X30701D01*
Y80219D01*
Y80157D01*
Y80095D01*
X30640D01*
Y80033D01*
Y79972D01*
Y79910D01*
X30578D01*
Y79848D01*
Y79786D01*
Y79725D01*
X30516D01*
Y79663D01*
Y79601D01*
Y79539D01*
Y79477D01*
X30454D01*
Y79416D01*
Y79354D01*
Y79292D01*
X30393D01*
Y79230D01*
Y79168D01*
X30331D01*
Y79107D01*
Y79045D01*
Y78983D01*
X30269D01*
Y78921D01*
Y78859D01*
Y78798D01*
X30207D01*
Y78736D01*
Y78674D01*
Y78612D01*
X30145D01*
Y78550D01*
Y78489D01*
Y78427D01*
X30084D01*
Y78365D01*
Y78303D01*
Y78241D01*
X30022D01*
Y78180D01*
Y78118D01*
Y78056D01*
Y77994D01*
X29960D01*
Y77933D01*
Y77871D01*
Y77809D01*
X29898D01*
Y77747D01*
Y77685D01*
X29836D01*
Y77624D01*
Y77562D01*
Y77500D01*
X29774D01*
Y77438D01*
Y77376D01*
Y77315D01*
Y77253D01*
X29713D01*
Y77191D01*
Y77129D01*
X29651D01*
Y77067D01*
Y77006D01*
Y76944D01*
X29589D01*
Y76882D01*
Y76820D01*
Y76758D01*
X29527D01*
Y76697D01*
Y76635D01*
Y76573D01*
X29466D01*
Y76511D01*
Y76450D01*
Y76388D01*
Y76326D01*
Y76264D01*
X29404D01*
Y76202D01*
Y76140D01*
Y76079D01*
X29342D01*
Y76017D01*
Y75955D01*
X29280D01*
Y75893D01*
Y75832D01*
X28477D01*
Y75893D01*
X28353D01*
Y75955D01*
X28415D01*
Y76017D01*
Y76079D01*
X28477D01*
Y76140D01*
Y76202D01*
Y76264D01*
X28539D01*
Y76326D01*
Y76388D01*
Y76450D01*
X28600D01*
Y76511D01*
Y76573D01*
Y76635D01*
Y76697D01*
X28662D01*
Y76758D01*
Y76820D01*
Y76882D01*
X28724D01*
Y76944D01*
Y77006D01*
Y77067D01*
X28786D01*
Y77129D01*
Y77191D01*
Y77253D01*
X28848D01*
Y77315D01*
Y77376D01*
Y77438D01*
X28909D01*
Y77500D01*
Y77562D01*
Y77624D01*
X28971D01*
Y77685D01*
Y77747D01*
Y77809D01*
X29033D01*
Y77871D01*
Y77933D01*
X29095D01*
Y77994D01*
Y78056D01*
Y78118D01*
X29157D01*
Y78180D01*
Y78241D01*
Y78303D01*
Y78365D01*
X29218D01*
Y78427D01*
Y78489D01*
Y78550D01*
X29280D01*
Y78612D01*
Y78674D01*
Y78736D01*
X29342D01*
Y78798D01*
Y78859D01*
Y78921D01*
X29404D01*
Y78983D01*
Y79045D01*
Y79107D01*
X29466D01*
Y79168D01*
Y79230D01*
Y79292D01*
X29527D01*
Y79354D01*
Y79416D01*
Y79477D01*
X29589D01*
Y79539D01*
Y79601D01*
Y79663D01*
X29651D01*
Y79725D01*
Y79786D01*
Y79848D01*
X29713D01*
Y79910D01*
Y79972D01*
Y80033D01*
X29774D01*
Y80095D01*
Y80157D01*
Y80219D01*
X29836D01*
Y80281D01*
Y80343D01*
Y80404D01*
X29898D01*
Y80466D01*
Y80528D01*
Y80590D01*
X29960D01*
Y80651D01*
Y80713D01*
Y80775D01*
X30022D01*
Y80837D01*
Y80899D01*
Y80960D01*
X30084D01*
Y81022D01*
Y81084D01*
Y81146D01*
X30145D01*
Y81208D01*
Y81269D01*
X30207D01*
Y81331D01*
Y81393D01*
Y81455D01*
Y81516D01*
Y81578D01*
X30269D01*
Y81640D01*
Y81702D01*
X30331D01*
Y81764D01*
Y81826D01*
Y81887D01*
X30393D01*
Y81949D01*
Y82011D01*
Y82073D01*
X30454D01*
Y82134D01*
Y82196D01*
Y82258D01*
X30516D01*
Y82320D01*
Y82382D01*
Y82443D01*
X30578D01*
Y82505D01*
Y82567D01*
Y82629D01*
X30640D01*
Y82691D01*
Y82752D01*
X30701D01*
Y82814D01*
Y82876D01*
Y82938D01*
X30763D01*
Y83000D01*
Y83061D01*
Y83123D01*
Y83185D01*
X30825D01*
Y83247D01*
Y83309D01*
Y83370D01*
X30887D01*
Y83432D01*
Y83494D01*
Y83556D01*
X30949D01*
Y83618D01*
Y83679D01*
Y83741D01*
X31010D01*
Y83803D01*
Y83865D01*
Y83926D01*
X31072D01*
Y83988D01*
Y84050D01*
Y84112D01*
X31134D01*
Y84174D01*
Y84235D01*
Y84297D01*
X31196D01*
Y84359D01*
Y84421D01*
X31258D01*
Y84483D01*
Y84544D01*
Y84606D01*
Y84668D01*
Y84730D01*
X31319D01*
Y84792D01*
Y84853D01*
X31381D01*
Y84915D01*
Y84977D01*
Y85039D01*
X31443D01*
Y85101D01*
Y85162D01*
Y85224D01*
X31505D01*
Y85286D01*
Y85348D01*
Y85409D01*
X31567D01*
Y85471D01*
Y85533D01*
Y85595D01*
X31628D01*
Y85657D01*
Y85719D01*
Y85780D01*
X31690D01*
Y85842D01*
Y85904D01*
X31752D01*
Y85966D01*
Y86027D01*
Y86089D01*
X31814D01*
Y86151D01*
Y86213D01*
Y86275D01*
Y86336D01*
Y86398D01*
X31876D01*
Y86460D01*
Y86522D01*
X31937D01*
Y86584D01*
Y86645D01*
Y86707D01*
X31999D01*
Y86769D01*
Y86831D01*
Y86892D01*
X32061D01*
Y86954D01*
Y87016D01*
Y87078D01*
X32123D01*
Y87140D01*
Y87201D01*
Y87263D01*
X32184D01*
Y87325D01*
Y87387D01*
Y87449D01*
X32246D01*
Y87511D01*
Y87572D01*
X32308D01*
Y87634D01*
Y87696D01*
Y87758D01*
Y87819D01*
Y87881D01*
X32370D01*
Y87943D01*
Y88005D01*
X32432D01*
Y88067D01*
Y88128D01*
Y88190D01*
X32493D01*
Y88252D01*
Y88314D01*
Y88376D01*
X32555D01*
Y88437D01*
Y88499D01*
Y88561D01*
X32617D01*
Y88623D01*
Y88684D01*
Y88746D01*
X32679D01*
Y88808D01*
Y88870D01*
Y88932D01*
X32741D01*
Y88994D01*
Y89055D01*
Y89117D01*
X32802D01*
Y89179D01*
Y89241D01*
X32864D01*
Y89302D01*
Y89364D01*
Y89426D01*
Y89488D01*
Y89550D01*
X32926D01*
Y89611D01*
Y89673D01*
X32988D01*
Y89735D01*
Y89797D01*
Y89859D01*
X33050D01*
Y89920D01*
Y89982D01*
Y90044D01*
X33111D01*
Y90106D01*
Y90168D01*
Y90229D01*
Y90291D01*
X33173D01*
Y90353D01*
Y90415D01*
X33235D01*
Y90477D01*
Y90538D01*
Y90600D01*
X33297D01*
Y90662D01*
Y90724D01*
Y90785D01*
X33358D01*
Y90847D01*
Y90909D01*
Y90971D01*
Y91033D01*
X33420D01*
Y91094D01*
Y91156D01*
Y91218D01*
X33482D01*
Y91280D01*
Y91342D01*
Y91403D01*
X33544D01*
Y91465D01*
Y91527D01*
Y91589D01*
X33606D01*
Y91651D01*
Y91712D01*
X33667D01*
Y91774D01*
Y91836D01*
Y91898D01*
X33729D01*
Y91960D01*
Y92021D01*
Y92083D01*
X33791D01*
Y92145D01*
Y92207D01*
Y92269D01*
X33853D01*
Y92330D01*
Y92392D01*
Y92454D01*
X33915D01*
Y92516D01*
Y92577D01*
Y92639D01*
Y92701D01*
X33976D01*
Y92763D01*
Y92825D01*
Y92887D01*
X34038D01*
Y92948D01*
Y93010D01*
Y93072D01*
X34100D01*
Y93134D01*
Y93195D01*
Y93257D01*
X34162D01*
Y93319D01*
Y93381D01*
X34224D01*
Y93443D01*
Y93504D01*
Y93566D01*
Y93628D01*
X34285D01*
Y93690D01*
Y93752D01*
Y93813D01*
X34347D01*
Y93875D01*
Y93937D01*
X34409D01*
Y93999D01*
Y94060D01*
Y94122D01*
X34471D01*
Y94184D01*
Y94246D01*
Y94308D01*
X34533D01*
Y94370D01*
Y94431D01*
X34594D01*
Y94493D01*
Y94555D01*
X34656D01*
Y94617D01*
Y94678D01*
Y94740D01*
X34718D01*
Y94802D01*
Y94864D01*
X34780D01*
Y94926D01*
Y94987D01*
X34842D01*
Y95049D01*
Y95111D01*
X34903D01*
Y95173D01*
Y95235D01*
X34965D01*
Y95296D01*
Y95358D01*
X35027D01*
Y95420D01*
X35089D01*
Y95482D01*
Y95544D01*
X35151D01*
Y95605D01*
X35212D01*
Y95667D01*
Y95729D01*
Y95791D01*
X35089D01*
Y95853D01*
X34965D01*
Y95914D01*
X34842D01*
Y95976D01*
X34780D01*
Y96038D01*
X34656D01*
Y96100D01*
X34594D01*
Y96162D01*
X34533D01*
Y96223D01*
X34471D01*
Y96285D01*
X34409D01*
Y96347D01*
X34347D01*
Y96409D01*
X34285D01*
Y96470D01*
X34224D01*
Y96532D01*
X34162D01*
Y96594D01*
Y96656D01*
X34100D01*
Y96718D01*
X34038D01*
Y96779D01*
Y96841D01*
X33976D01*
Y96903D01*
Y96965D01*
Y97027D01*
X33915D01*
Y97088D01*
Y97150D01*
Y97212D01*
Y97274D01*
X33853D01*
Y97335D01*
Y97397D01*
Y97459D01*
Y97521D01*
Y97583D01*
Y97645D01*
Y97706D01*
Y97768D01*
Y97830D01*
Y97892D01*
Y97953D01*
Y98015D01*
Y98077D01*
X33915D01*
Y98139D01*
Y98201D01*
Y98262D01*
Y98324D01*
X33976D01*
Y98386D01*
Y98448D01*
Y98510D01*
X34038D01*
Y98571D01*
Y98633D01*
X34100D01*
Y98695D01*
X34162D01*
Y98757D01*
Y98819D01*
X34224D01*
Y98880D01*
X34285D01*
Y98942D01*
X34347D01*
Y99004D01*
X34409D01*
Y99066D01*
X34471D01*
Y99128D01*
X34533D01*
Y99189D01*
X34594D01*
Y99251D01*
X34656D01*
Y99313D01*
X34780D01*
Y99375D01*
X34842D01*
Y99436D01*
X34965D01*
Y99498D01*
X35089D01*
Y99560D01*
X35212D01*
Y99622D01*
X35398D01*
Y99684D01*
X35583D01*
Y99746D01*
X36819D01*
Y99684D01*
D02*
G37*
G36*
X39291Y85471D02*
Y85409D01*
Y85348D01*
Y85286D01*
Y85224D01*
Y85162D01*
Y85101D01*
Y85039D01*
Y84977D01*
Y84915D01*
Y84853D01*
Y84792D01*
Y84730D01*
Y84668D01*
Y84606D01*
Y84544D01*
Y84483D01*
Y84421D01*
Y84359D01*
Y84297D01*
Y84235D01*
Y84174D01*
Y84112D01*
Y84050D01*
Y83988D01*
Y83926D01*
Y83865D01*
X34471D01*
Y83803D01*
Y83741D01*
Y83679D01*
Y83618D01*
Y83556D01*
Y83494D01*
Y83432D01*
Y83370D01*
Y83309D01*
Y83247D01*
Y83185D01*
Y83123D01*
Y83061D01*
Y83000D01*
Y82938D01*
Y82876D01*
Y82814D01*
Y82752D01*
Y82691D01*
Y82629D01*
Y82567D01*
Y82505D01*
Y82443D01*
Y82382D01*
Y82320D01*
Y82258D01*
Y82196D01*
Y82134D01*
Y82073D01*
Y82011D01*
Y81949D01*
Y81887D01*
Y81826D01*
X38240D01*
Y81764D01*
X38487D01*
Y81702D01*
X38673D01*
Y81640D01*
X38796D01*
Y81578D01*
X38858D01*
Y81516D01*
X38920D01*
Y81455D01*
X38982D01*
Y81393D01*
X39044D01*
Y81331D01*
X39105D01*
Y81269D01*
Y81208D01*
X39167D01*
Y81146D01*
X39229D01*
Y81084D01*
Y81022D01*
X39291D01*
Y80960D01*
Y80899D01*
Y80837D01*
X39352D01*
Y80775D01*
Y80713D01*
Y80651D01*
Y80590D01*
Y80528D01*
X39414D01*
Y80466D01*
Y80404D01*
Y80343D01*
Y80281D01*
Y80219D01*
Y80157D01*
Y80095D01*
Y80033D01*
Y79972D01*
Y79910D01*
Y79848D01*
Y79786D01*
Y79725D01*
Y79663D01*
Y79601D01*
Y79539D01*
Y79477D01*
Y79416D01*
Y79354D01*
Y79292D01*
Y79230D01*
Y79168D01*
Y79107D01*
Y79045D01*
Y78983D01*
Y78921D01*
Y78859D01*
Y78798D01*
Y78736D01*
Y78674D01*
Y78612D01*
Y78550D01*
Y78489D01*
Y78427D01*
Y78365D01*
Y78303D01*
Y78241D01*
Y78180D01*
Y78118D01*
Y78056D01*
Y77994D01*
Y77933D01*
Y77871D01*
Y77809D01*
Y77747D01*
Y77685D01*
Y77624D01*
Y77562D01*
Y77500D01*
Y77438D01*
Y77376D01*
Y77315D01*
Y77253D01*
Y77191D01*
Y77129D01*
Y77067D01*
Y77006D01*
Y76944D01*
Y76882D01*
Y76820D01*
Y76758D01*
Y76697D01*
Y76635D01*
Y76573D01*
Y76511D01*
Y76450D01*
Y76388D01*
Y76326D01*
Y76264D01*
Y76202D01*
Y76140D01*
Y76079D01*
Y76017D01*
Y75955D01*
Y75893D01*
Y75832D01*
X33111D01*
Y75893D01*
Y75955D01*
Y76017D01*
Y76079D01*
Y76140D01*
Y76202D01*
Y76264D01*
Y76326D01*
Y76388D01*
Y76450D01*
Y76511D01*
Y76573D01*
Y76635D01*
Y76697D01*
Y76758D01*
Y76820D01*
Y76882D01*
Y76944D01*
Y77006D01*
Y77067D01*
Y77129D01*
Y77191D01*
Y77253D01*
Y77315D01*
Y77376D01*
Y77438D01*
X37931D01*
Y77500D01*
X37993D01*
Y77562D01*
Y77624D01*
Y77685D01*
Y77747D01*
Y77809D01*
Y77871D01*
Y77933D01*
Y77994D01*
Y78056D01*
Y78118D01*
Y78180D01*
Y78241D01*
Y78303D01*
Y78365D01*
Y78427D01*
Y78489D01*
Y78550D01*
Y78612D01*
Y78674D01*
Y78736D01*
Y78798D01*
Y78859D01*
Y78921D01*
Y78983D01*
Y79045D01*
Y79107D01*
Y79168D01*
Y79230D01*
Y79292D01*
Y79354D01*
Y79416D01*
Y79477D01*
Y79539D01*
Y79601D01*
Y79663D01*
Y79725D01*
Y79786D01*
Y79848D01*
Y79910D01*
Y79972D01*
Y80033D01*
Y80095D01*
Y80157D01*
X34100D01*
Y80219D01*
X33915D01*
Y80281D01*
X33791D01*
Y80343D01*
X33667D01*
Y80404D01*
X33606D01*
Y80466D01*
X33544D01*
Y80528D01*
X33482D01*
Y80590D01*
X33420D01*
Y80651D01*
Y80713D01*
X33358D01*
Y80775D01*
X33297D01*
Y80837D01*
Y80899D01*
X33235D01*
Y80960D01*
Y81022D01*
Y81084D01*
Y81146D01*
X33173D01*
Y81208D01*
Y81269D01*
Y81331D01*
X33111D01*
Y81393D01*
Y81455D01*
Y81516D01*
Y81578D01*
Y81640D01*
Y81702D01*
Y81764D01*
Y81826D01*
Y81887D01*
Y81949D01*
Y82011D01*
X33050D01*
Y82073D01*
Y82134D01*
Y82196D01*
Y82258D01*
Y82320D01*
Y82382D01*
Y82443D01*
Y82505D01*
Y82567D01*
Y82629D01*
Y82691D01*
Y82752D01*
Y82814D01*
Y82876D01*
Y82938D01*
Y83000D01*
Y83061D01*
Y83123D01*
Y83185D01*
Y83247D01*
Y83309D01*
Y83370D01*
Y83432D01*
Y83494D01*
Y83556D01*
Y83618D01*
Y83679D01*
Y83741D01*
Y83803D01*
Y83865D01*
Y83926D01*
X33111D01*
Y83988D01*
Y84050D01*
Y84112D01*
Y84174D01*
Y84235D01*
Y84297D01*
Y84359D01*
Y84421D01*
X33173D01*
Y84483D01*
Y84544D01*
Y84606D01*
Y84668D01*
X33235D01*
Y84730D01*
Y84792D01*
Y84853D01*
X33297D01*
Y84915D01*
Y84977D01*
X33358D01*
Y85039D01*
X33420D01*
Y85101D01*
Y85162D01*
X33482D01*
Y85224D01*
X33544D01*
Y85286D01*
X33667D01*
Y85348D01*
X33729D01*
Y85409D01*
X33915D01*
Y85471D01*
X34100D01*
Y85533D01*
X39291D01*
Y85471D01*
D02*
G37*
G36*
X27674Y85533D02*
Y85471D01*
Y85409D01*
Y85348D01*
Y85286D01*
Y85224D01*
Y85162D01*
Y85101D01*
Y85039D01*
Y84977D01*
Y84915D01*
Y84853D01*
Y84792D01*
Y84730D01*
Y84668D01*
Y84606D01*
Y84544D01*
Y84483D01*
Y84421D01*
Y84359D01*
Y84297D01*
Y84235D01*
Y84174D01*
Y84112D01*
Y84050D01*
Y83988D01*
Y83926D01*
Y83865D01*
Y83803D01*
Y83741D01*
Y83679D01*
Y83618D01*
Y83556D01*
Y83494D01*
Y83432D01*
Y83370D01*
Y83309D01*
Y83247D01*
Y83185D01*
Y83123D01*
Y83061D01*
Y83000D01*
Y82938D01*
Y82876D01*
Y82814D01*
Y82752D01*
Y82691D01*
Y82629D01*
Y82567D01*
Y82505D01*
Y82443D01*
Y82382D01*
Y82320D01*
Y82258D01*
Y82196D01*
Y82134D01*
Y82073D01*
Y82011D01*
Y81949D01*
Y81887D01*
Y81826D01*
Y81764D01*
Y81702D01*
Y81640D01*
Y81578D01*
Y81516D01*
Y81455D01*
Y81393D01*
Y81331D01*
Y81269D01*
Y81208D01*
Y81146D01*
Y81084D01*
Y81022D01*
Y80960D01*
Y80899D01*
Y80837D01*
Y80775D01*
Y80713D01*
Y80651D01*
Y80590D01*
Y80528D01*
Y80466D01*
Y80404D01*
Y80343D01*
Y80281D01*
Y80219D01*
Y80157D01*
Y80095D01*
Y80033D01*
Y79972D01*
Y79910D01*
Y79848D01*
Y79786D01*
Y79725D01*
Y79663D01*
Y79601D01*
Y79539D01*
Y79477D01*
Y79416D01*
Y79354D01*
Y79292D01*
Y79230D01*
Y79168D01*
Y79107D01*
Y79045D01*
Y78983D01*
Y78921D01*
Y78859D01*
Y78798D01*
Y78736D01*
Y78674D01*
Y78612D01*
Y78550D01*
Y78489D01*
Y78427D01*
Y78365D01*
Y78303D01*
Y78241D01*
Y78180D01*
Y78118D01*
Y78056D01*
Y77994D01*
Y77933D01*
Y77871D01*
Y77809D01*
Y77747D01*
Y77685D01*
Y77624D01*
Y77562D01*
Y77500D01*
Y77438D01*
Y77376D01*
Y77315D01*
Y77253D01*
Y77191D01*
Y77129D01*
Y77067D01*
Y77006D01*
Y76944D01*
Y76882D01*
Y76820D01*
Y76758D01*
Y76697D01*
Y76635D01*
Y76573D01*
Y76511D01*
Y76450D01*
Y76388D01*
Y76326D01*
Y76264D01*
Y76202D01*
Y76140D01*
Y76079D01*
Y76017D01*
Y75955D01*
Y75893D01*
Y75832D01*
Y75770D01*
X21371D01*
Y75832D01*
X20938D01*
Y75893D01*
X20691D01*
Y75955D01*
X20567D01*
Y76017D01*
X20444D01*
Y76079D01*
X20320D01*
Y76140D01*
X20258D01*
Y76202D01*
X20197D01*
Y76264D01*
X20135D01*
Y76326D01*
X20073D01*
Y76388D01*
X20011D01*
Y76450D01*
Y76511D01*
X19949D01*
Y76573D01*
Y76635D01*
X19888D01*
Y76697D01*
Y76758D01*
X19826D01*
Y76820D01*
Y76882D01*
Y76944D01*
Y77006D01*
X19764D01*
Y77067D01*
Y77129D01*
Y77191D01*
Y77253D01*
Y77315D01*
Y77376D01*
Y77438D01*
Y77500D01*
Y77562D01*
Y77624D01*
Y77685D01*
Y77747D01*
Y77809D01*
X19702D01*
Y77871D01*
Y77933D01*
Y77994D01*
Y78056D01*
Y78118D01*
Y78180D01*
Y78241D01*
Y78303D01*
Y78365D01*
Y78427D01*
Y78489D01*
Y78550D01*
Y78612D01*
Y78674D01*
Y78736D01*
Y78798D01*
Y78859D01*
Y78921D01*
Y78983D01*
Y79045D01*
Y79107D01*
Y79168D01*
Y79230D01*
Y79292D01*
Y79354D01*
Y79416D01*
Y79477D01*
Y79539D01*
Y79601D01*
Y79663D01*
Y79725D01*
Y79786D01*
Y79848D01*
Y79910D01*
Y79972D01*
Y80033D01*
Y80095D01*
Y80157D01*
Y80219D01*
Y80281D01*
Y80343D01*
Y80404D01*
Y80466D01*
Y80528D01*
Y80590D01*
Y80651D01*
Y80713D01*
Y80775D01*
Y80837D01*
Y80899D01*
Y80960D01*
Y81022D01*
Y81084D01*
Y81146D01*
Y81208D01*
Y81269D01*
Y81331D01*
Y81393D01*
Y81455D01*
Y81516D01*
Y81578D01*
Y81640D01*
Y81702D01*
Y81764D01*
Y81826D01*
Y81887D01*
Y81949D01*
Y82011D01*
Y82073D01*
Y82134D01*
Y82196D01*
Y82258D01*
Y82320D01*
Y82382D01*
Y82443D01*
Y82505D01*
Y82567D01*
Y82629D01*
Y82691D01*
Y82752D01*
Y82814D01*
Y82876D01*
Y82938D01*
Y83000D01*
Y83061D01*
Y83123D01*
Y83185D01*
Y83247D01*
Y83309D01*
Y83370D01*
Y83432D01*
X19764D01*
Y83494D01*
Y83556D01*
Y83618D01*
Y83679D01*
Y83741D01*
Y83803D01*
Y83865D01*
Y83926D01*
Y83988D01*
Y84050D01*
Y84112D01*
Y84174D01*
Y84235D01*
X19826D01*
Y84297D01*
Y84359D01*
Y84421D01*
X19888D01*
Y84483D01*
Y84544D01*
X19949D01*
Y84606D01*
Y84668D01*
X20011D01*
Y84730D01*
Y84792D01*
X20073D01*
Y84853D01*
Y84915D01*
X20197D01*
Y84977D01*
Y85039D01*
X20258D01*
Y85101D01*
X20382D01*
Y85162D01*
X20444D01*
Y85224D01*
X20506D01*
Y85286D01*
X20629D01*
Y85348D01*
X20753D01*
Y85409D01*
X20876D01*
Y85471D01*
X21062D01*
Y85533D01*
X21309D01*
Y85595D01*
X27674D01*
Y85533D01*
D02*
G37*
G36*
X70821Y119984D02*
X70357D01*
Y120516D01*
X70821D01*
Y119984D01*
D02*
G37*
G36*
X59557Y120483D02*
X59584Y120437D01*
X59647Y120347D01*
X59715Y120262D01*
X59750Y120221D01*
X59783Y120183D01*
X59816Y120150D01*
X59846Y120117D01*
X59873Y120090D01*
X59898Y120065D01*
X59917Y120046D01*
X59931Y120033D01*
X59942Y120025D01*
X59944Y120022D01*
X60056Y119929D01*
X60174Y119844D01*
X60288Y119768D01*
X60343Y119735D01*
X60395Y119702D01*
X60441Y119675D01*
X60485Y119650D01*
X60526Y119629D01*
X60559Y119612D01*
X60586Y119599D01*
X60608Y119588D01*
X60619Y119582D01*
X60624Y119580D01*
Y119132D01*
X60542Y119165D01*
X60458Y119203D01*
X60376Y119241D01*
X60299Y119279D01*
X60267Y119298D01*
X60234Y119315D01*
X60206Y119331D01*
X60185Y119345D01*
X60166Y119353D01*
X60149Y119361D01*
X60141Y119367D01*
X60138Y119369D01*
X60040Y119429D01*
X59996Y119459D01*
X59952Y119487D01*
X59914Y119517D01*
X59879Y119541D01*
X59846Y119569D01*
X59813Y119590D01*
X59789Y119612D01*
X59764Y119631D01*
X59742Y119650D01*
X59726Y119664D01*
X59712Y119675D01*
X59704Y119683D01*
X59699Y119689D01*
X59696Y119692D01*
Y116738D01*
X59232D01*
Y120530D01*
X59532D01*
X59557Y120483D01*
D02*
G37*
G36*
X63652Y118949D02*
X63125D01*
Y119476D01*
X63652D01*
Y118949D01*
D02*
G37*
G36*
X80539Y116738D02*
X80023D01*
X78544Y120516D01*
X79054D01*
X80075Y117770D01*
X80119Y117655D01*
X80157Y117540D01*
X80174Y117488D01*
X80193Y117437D01*
X80206Y117387D01*
X80223Y117344D01*
X80234Y117303D01*
X80247Y117264D01*
X80256Y117232D01*
X80264Y117202D01*
X80272Y117180D01*
X80277Y117164D01*
X80280Y117153D01*
Y117150D01*
X80310Y117259D01*
X80346Y117368D01*
X80378Y117472D01*
X80395Y117521D01*
X80408Y117568D01*
X80425Y117611D01*
X80438Y117649D01*
X80449Y117685D01*
X80460Y117712D01*
X80468Y117737D01*
X80474Y117756D01*
X80477Y117767D01*
X80479Y117770D01*
X81459Y120516D01*
X82003D01*
X80539Y116738D01*
D02*
G37*
G36*
X77135Y119530D02*
X77233Y119519D01*
X77326Y119500D01*
X77416Y119476D01*
X77498Y119448D01*
X77572Y119416D01*
X77643Y119380D01*
X77706Y119345D01*
X77763Y119309D01*
X77812Y119274D01*
X77853Y119244D01*
X77889Y119214D01*
X77919Y119189D01*
X77938Y119170D01*
X77949Y119159D01*
X77954Y119154D01*
X78017Y119080D01*
X78071Y118998D01*
X78118Y118913D01*
X78159Y118826D01*
X78194Y118736D01*
X78222Y118646D01*
X78246Y118559D01*
X78265Y118477D01*
X78279Y118395D01*
X78290Y118321D01*
X78298Y118255D01*
X78304Y118198D01*
X78306Y118171D01*
Y118149D01*
Y118130D01*
X78309Y118114D01*
Y118100D01*
Y118092D01*
Y118086D01*
Y118084D01*
X78306Y117961D01*
X78293Y117846D01*
X78276Y117740D01*
X78254Y117639D01*
X78227Y117546D01*
X78197Y117461D01*
X78167Y117385D01*
X78134Y117314D01*
X78102Y117251D01*
X78069Y117199D01*
X78041Y117153D01*
X78014Y117114D01*
X77992Y117084D01*
X77973Y117062D01*
X77962Y117052D01*
X77960Y117046D01*
X77891Y116981D01*
X77818Y116923D01*
X77741Y116874D01*
X77662Y116833D01*
X77583Y116798D01*
X77504Y116768D01*
X77425Y116743D01*
X77351Y116724D01*
X77280Y116708D01*
X77214Y116697D01*
X77157Y116689D01*
X77105Y116683D01*
X77064Y116680D01*
X77048D01*
X77034Y116678D01*
X77007D01*
X76920Y116680D01*
X76835Y116689D01*
X76756Y116699D01*
X76682Y116713D01*
X76614Y116732D01*
X76548Y116751D01*
X76491Y116773D01*
X76436Y116795D01*
X76387Y116814D01*
X76346Y116836D01*
X76308Y116855D01*
X76278Y116874D01*
X76253Y116888D01*
X76237Y116899D01*
X76226Y116907D01*
X76223Y116910D01*
X76169Y116956D01*
X76117Y117005D01*
X76070Y117057D01*
X76029Y117109D01*
X75991Y117164D01*
X75956Y117218D01*
X75926Y117273D01*
X75898Y117322D01*
X75874Y117371D01*
X75855Y117417D01*
X75838Y117458D01*
X75825Y117494D01*
X75817Y117521D01*
X75808Y117543D01*
X75803Y117557D01*
Y117562D01*
X76281Y117625D01*
X76302Y117570D01*
X76324Y117521D01*
X76346Y117475D01*
X76371Y117431D01*
X76395Y117393D01*
X76417Y117357D01*
X76442Y117327D01*
X76464Y117297D01*
X76485Y117273D01*
X76504Y117251D01*
X76521Y117235D01*
X76537Y117218D01*
X76551Y117207D01*
X76559Y117199D01*
X76565Y117196D01*
X76567Y117194D01*
X76603Y117169D01*
X76638Y117150D01*
X76674Y117131D01*
X76712Y117117D01*
X76786Y117093D01*
X76854Y117076D01*
X76884Y117071D01*
X76914Y117068D01*
X76939Y117065D01*
X76960Y117062D01*
X76980Y117060D01*
X77004D01*
X77067Y117062D01*
X77127Y117071D01*
X77184Y117082D01*
X77239Y117098D01*
X77291Y117114D01*
X77337Y117136D01*
X77381Y117155D01*
X77419Y117180D01*
X77455Y117202D01*
X77487Y117224D01*
X77515Y117243D01*
X77536Y117259D01*
X77553Y117276D01*
X77566Y117286D01*
X77575Y117295D01*
X77577Y117297D01*
X77618Y117344D01*
X77654Y117396D01*
X77687Y117450D01*
X77714Y117508D01*
X77738Y117565D01*
X77758Y117622D01*
X77777Y117677D01*
X77790Y117734D01*
X77801Y117786D01*
X77812Y117832D01*
X77818Y117876D01*
X77823Y117914D01*
X77829Y117944D01*
Y117969D01*
X77831Y117982D01*
Y117988D01*
X75789D01*
Y118018D01*
X75787Y118043D01*
Y118062D01*
Y118081D01*
Y118095D01*
Y118103D01*
Y118108D01*
Y118111D01*
X75789Y118234D01*
X75800Y118351D01*
X75819Y118460D01*
X75841Y118561D01*
X75868Y118654D01*
X75896Y118742D01*
X75928Y118821D01*
X75961Y118892D01*
X75994Y118954D01*
X76024Y119009D01*
X76054Y119055D01*
X76081Y119094D01*
X76103Y119124D01*
X76120Y119146D01*
X76133Y119156D01*
X76136Y119162D01*
X76204Y119227D01*
X76275Y119285D01*
X76346Y119337D01*
X76423Y119378D01*
X76496Y119416D01*
X76573Y119446D01*
X76644Y119470D01*
X76715Y119490D01*
X76780Y119506D01*
X76840Y119517D01*
X76892Y119525D01*
X76941Y119530D01*
X76980Y119533D01*
X77007Y119536D01*
X77031D01*
X77135Y119530D01*
D02*
G37*
G36*
X74277Y119533D02*
X74331Y119522D01*
X74381Y119506D01*
X74427Y119490D01*
X74462Y119470D01*
X74490Y119457D01*
X74501Y119448D01*
X74509Y119446D01*
X74512Y119440D01*
X74514D01*
X74539Y119421D01*
X74566Y119397D01*
X74591Y119369D01*
X74615Y119342D01*
X74664Y119276D01*
X74711Y119214D01*
X74749Y119154D01*
X74765Y119126D01*
X74779Y119102D01*
X74790Y119083D01*
X74798Y119069D01*
X74804Y119058D01*
X74806Y119055D01*
Y119476D01*
X75224D01*
Y116738D01*
X74760D01*
Y118168D01*
X74757Y118277D01*
X74749Y118378D01*
X74741Y118425D01*
X74735Y118468D01*
X74730Y118509D01*
X74722Y118550D01*
X74714Y118583D01*
X74708Y118616D01*
X74700Y118643D01*
X74695Y118665D01*
X74692Y118684D01*
X74686Y118698D01*
X74684Y118706D01*
Y118709D01*
X74662Y118766D01*
X74634Y118818D01*
X74607Y118862D01*
X74577Y118897D01*
X74553Y118924D01*
X74531Y118946D01*
X74517Y118957D01*
X74512Y118963D01*
X74465Y118993D01*
X74419Y119017D01*
X74372Y119034D01*
X74331Y119044D01*
X74296Y119050D01*
X74266Y119055D01*
X74241D01*
X74178Y119050D01*
X74116Y119039D01*
X74058Y119025D01*
X74009Y119006D01*
X73966Y118987D01*
X73946Y118979D01*
X73933Y118974D01*
X73919Y118965D01*
X73911Y118963D01*
X73906Y118957D01*
X73903D01*
X73739Y119386D01*
X73785Y119413D01*
X73829Y119435D01*
X73873Y119457D01*
X73917Y119473D01*
X73996Y119500D01*
X74034Y119509D01*
X74069Y119517D01*
X74102Y119522D01*
X74129Y119528D01*
X74154Y119530D01*
X74176Y119533D01*
X74192Y119536D01*
X74217D01*
X74277Y119533D01*
D02*
G37*
G36*
X70821Y116738D02*
X70357D01*
Y119476D01*
X70821D01*
Y116738D01*
D02*
G37*
G36*
X65533Y119530D02*
X65631Y119517D01*
X65721Y119495D01*
X65806Y119465D01*
X65885Y119432D01*
X65956Y119394D01*
X66021Y119353D01*
X66079Y119312D01*
X66131Y119268D01*
X66174Y119227D01*
X66212Y119189D01*
X66245Y119156D01*
X66267Y119126D01*
X66286Y119105D01*
X66297Y119091D01*
X66300Y119085D01*
Y119476D01*
X66717D01*
Y116738D01*
X66253D01*
Y118231D01*
X66251Y118326D01*
X66245Y118414D01*
X66234Y118493D01*
X66221Y118564D01*
X66204Y118630D01*
X66185Y118690D01*
X66166Y118742D01*
X66147Y118785D01*
X66128Y118826D01*
X66109Y118859D01*
X66090Y118886D01*
X66073Y118908D01*
X66059Y118924D01*
X66049Y118938D01*
X66043Y118944D01*
X66040Y118946D01*
X66000Y118979D01*
X65956Y119009D01*
X65912Y119034D01*
X65868Y119055D01*
X65825Y119074D01*
X65784Y119088D01*
X65743Y119102D01*
X65702Y119110D01*
X65666Y119118D01*
X65634Y119124D01*
X65604Y119129D01*
X65576Y119132D01*
X65557Y119135D01*
X65527D01*
X65459Y119132D01*
X65399Y119121D01*
X65344Y119107D01*
X65295Y119094D01*
X65257Y119077D01*
X65230Y119064D01*
X65219Y119058D01*
X65210Y119053D01*
X65208Y119050D01*
X65205D01*
X65156Y119017D01*
X65115Y118979D01*
X65082Y118941D01*
X65055Y118905D01*
X65036Y118872D01*
X65022Y118848D01*
X65017Y118837D01*
X65014Y118829D01*
X65011Y118826D01*
Y118823D01*
X65000Y118796D01*
X64992Y118766D01*
X64978Y118698D01*
X64970Y118630D01*
X64962Y118559D01*
Y118528D01*
X64959Y118499D01*
Y118471D01*
X64957Y118447D01*
Y118428D01*
Y118414D01*
Y118403D01*
Y118400D01*
Y116738D01*
X64492D01*
Y118419D01*
Y118477D01*
Y118531D01*
X64495Y118580D01*
X64498Y118627D01*
Y118668D01*
X64501Y118703D01*
X64503Y118736D01*
X64506Y118766D01*
X64509Y118791D01*
X64512Y118812D01*
X64514Y118832D01*
Y118845D01*
X64517Y118856D01*
X64520Y118864D01*
Y118867D01*
Y118870D01*
X64539Y118941D01*
X64561Y119006D01*
X64583Y119066D01*
X64607Y119115D01*
X64629Y119156D01*
X64640Y119173D01*
X64648Y119186D01*
X64654Y119197D01*
X64659Y119206D01*
X64665Y119208D01*
Y119211D01*
X64708Y119263D01*
X64757Y119309D01*
X64809Y119350D01*
X64858Y119383D01*
X64905Y119410D01*
X64924Y119421D01*
X64940Y119429D01*
X64957Y119438D01*
X64968Y119443D01*
X64973Y119446D01*
X64976D01*
X65055Y119476D01*
X65134Y119498D01*
X65210Y119514D01*
X65279Y119525D01*
X65311Y119528D01*
X65339Y119530D01*
X65366Y119533D01*
X65388Y119536D01*
X65429D01*
X65533Y119530D01*
D02*
G37*
G36*
X63652Y116738D02*
X63125D01*
Y117264D01*
X63652D01*
Y116738D01*
D02*
G37*
G36*
X57782D02*
X57255D01*
Y117264D01*
X57782D01*
Y116738D01*
D02*
G37*
G36*
X72644Y119533D02*
X72718Y119528D01*
X72786Y119517D01*
X72846Y119509D01*
X72871Y119503D01*
X72895Y119498D01*
X72917Y119492D01*
X72934Y119487D01*
X72947Y119484D01*
X72958Y119481D01*
X72964Y119479D01*
X72966D01*
X73032Y119457D01*
X73092Y119435D01*
X73141Y119413D01*
X73182Y119391D01*
X73218Y119372D01*
X73242Y119358D01*
X73256Y119348D01*
X73261Y119345D01*
X73313Y119304D01*
X73357Y119260D01*
X73398Y119217D01*
X73431Y119176D01*
X73455Y119140D01*
X73474Y119113D01*
X73482Y119102D01*
X73488Y119094D01*
X73491Y119088D01*
Y119085D01*
X73518Y119025D01*
X73537Y118968D01*
X73553Y118911D01*
X73562Y118859D01*
X73567Y118812D01*
X73570Y118793D01*
Y118777D01*
X73572Y118766D01*
Y118755D01*
Y118750D01*
Y118747D01*
X73567Y118673D01*
X73556Y118605D01*
X73540Y118542D01*
X73521Y118488D01*
X73512Y118463D01*
X73504Y118441D01*
X73496Y118422D01*
X73488Y118408D01*
X73480Y118395D01*
X73477Y118387D01*
X73471Y118381D01*
Y118378D01*
X73431Y118318D01*
X73381Y118266D01*
X73332Y118223D01*
X73286Y118187D01*
X73242Y118157D01*
X73223Y118146D01*
X73207Y118135D01*
X73193Y118130D01*
X73182Y118124D01*
X73177Y118119D01*
X73174D01*
X73133Y118103D01*
X73087Y118084D01*
X73035Y118064D01*
X72980Y118045D01*
X72863Y118007D01*
X72745Y117972D01*
X72688Y117955D01*
X72636Y117942D01*
X72590Y117928D01*
X72546Y117917D01*
X72513Y117909D01*
X72486Y117901D01*
X72470Y117898D01*
X72467Y117895D01*
X72464D01*
X72396Y117879D01*
X72333Y117862D01*
X72278Y117846D01*
X72229Y117832D01*
X72186Y117819D01*
X72145Y117805D01*
X72112Y117794D01*
X72082Y117783D01*
X72060Y117772D01*
X72038Y117764D01*
X72022Y117756D01*
X72008Y117751D01*
X72000Y117745D01*
X71995Y117742D01*
X71989Y117740D01*
X71965Y117723D01*
X71943Y117704D01*
X71924Y117682D01*
X71907Y117663D01*
X71883Y117622D01*
X71866Y117584D01*
X71858Y117549D01*
X71853Y117518D01*
X71850Y117510D01*
Y117502D01*
Y117497D01*
Y117494D01*
X71853Y117461D01*
X71855Y117431D01*
X71864Y117401D01*
X71874Y117374D01*
X71899Y117319D01*
X71926Y117276D01*
X71956Y117240D01*
X71981Y117213D01*
X71992Y117202D01*
X72000Y117194D01*
X72003Y117191D01*
X72005Y117188D01*
X72035Y117166D01*
X72071Y117147D01*
X72145Y117114D01*
X72224Y117093D01*
X72300Y117076D01*
X72338Y117071D01*
X72371Y117068D01*
X72401Y117062D01*
X72429D01*
X72451Y117060D01*
X72480D01*
X72538Y117062D01*
X72592Y117065D01*
X72644Y117073D01*
X72693Y117082D01*
X72737Y117093D01*
X72778Y117106D01*
X72816Y117120D01*
X72849Y117133D01*
X72879Y117144D01*
X72904Y117158D01*
X72926Y117172D01*
X72945Y117183D01*
X72958Y117191D01*
X72969Y117199D01*
X72975Y117202D01*
X72977Y117204D01*
X73007Y117235D01*
X73037Y117264D01*
X73062Y117297D01*
X73084Y117333D01*
X73122Y117404D01*
X73149Y117472D01*
X73160Y117502D01*
X73168Y117532D01*
X73177Y117559D01*
X73182Y117581D01*
X73185Y117600D01*
X73188Y117617D01*
X73190Y117625D01*
Y117628D01*
X73649Y117557D01*
X73633Y117478D01*
X73611Y117404D01*
X73589Y117333D01*
X73562Y117270D01*
X73532Y117210D01*
X73504Y117155D01*
X73471Y117109D01*
X73441Y117065D01*
X73414Y117024D01*
X73387Y116991D01*
X73360Y116964D01*
X73338Y116940D01*
X73321Y116923D01*
X73305Y116910D01*
X73297Y116901D01*
X73294Y116899D01*
X73239Y116860D01*
X73179Y116825D01*
X73114Y116795D01*
X73048Y116770D01*
X72980Y116749D01*
X72912Y116732D01*
X72846Y116716D01*
X72781Y116705D01*
X72718Y116697D01*
X72661Y116689D01*
X72611Y116686D01*
X72565Y116680D01*
X72530D01*
X72502Y116678D01*
X72478D01*
X72360Y116683D01*
X72251Y116694D01*
X72202Y116705D01*
X72153Y116713D01*
X72109Y116724D01*
X72068Y116735D01*
X72033Y116743D01*
X72000Y116754D01*
X71970Y116765D01*
X71945Y116773D01*
X71926Y116779D01*
X71913Y116784D01*
X71904Y116789D01*
X71902D01*
X71855Y116811D01*
X71812Y116836D01*
X71771Y116860D01*
X71732Y116885D01*
X71697Y116912D01*
X71664Y116940D01*
X71634Y116964D01*
X71610Y116989D01*
X71585Y117013D01*
X71566Y117035D01*
X71547Y117054D01*
X71533Y117073D01*
X71522Y117087D01*
X71514Y117098D01*
X71511Y117104D01*
X71509Y117106D01*
X71484Y117144D01*
X71462Y117183D01*
X71446Y117224D01*
X71429Y117262D01*
X71405Y117335D01*
X71389Y117401D01*
X71383Y117431D01*
X71380Y117458D01*
X71375Y117483D01*
Y117505D01*
X71372Y117521D01*
Y117532D01*
Y117540D01*
Y117543D01*
X71378Y117628D01*
X71389Y117704D01*
X71408Y117770D01*
X71418Y117800D01*
X71427Y117827D01*
X71438Y117851D01*
X71449Y117873D01*
X71457Y117892D01*
X71468Y117909D01*
X71473Y117920D01*
X71479Y117928D01*
X71484Y117933D01*
Y117936D01*
X71530Y117993D01*
X71580Y118043D01*
X71629Y118084D01*
X71678Y118119D01*
X71722Y118146D01*
X71741Y118157D01*
X71757Y118165D01*
X71771Y118174D01*
X71782Y118179D01*
X71787Y118182D01*
X71790D01*
X71831Y118198D01*
X71874Y118215D01*
X71926Y118234D01*
X71978Y118250D01*
X72093Y118288D01*
X72207Y118321D01*
X72259Y118337D01*
X72311Y118351D01*
X72358Y118365D01*
X72399Y118376D01*
X72431Y118384D01*
X72456Y118392D01*
X72472Y118395D01*
X72475Y118397D01*
X72478D01*
X72538Y118414D01*
X72595Y118430D01*
X72644Y118444D01*
X72688Y118455D01*
X72726Y118466D01*
X72759Y118477D01*
X72789Y118485D01*
X72813Y118490D01*
X72833Y118499D01*
X72849Y118501D01*
X72863Y118507D01*
X72874Y118509D01*
X72882Y118512D01*
X72887Y118515D01*
X72890D01*
X72934Y118534D01*
X72969Y118556D01*
X73002Y118575D01*
X73027Y118594D01*
X73046Y118613D01*
X73059Y118627D01*
X73067Y118635D01*
X73070Y118638D01*
X73089Y118665D01*
X73103Y118695D01*
X73111Y118722D01*
X73117Y118747D01*
X73122Y118769D01*
X73125Y118785D01*
Y118799D01*
Y118801D01*
X73122Y118826D01*
X73119Y118853D01*
X73103Y118900D01*
X73081Y118941D01*
X73057Y118976D01*
X73032Y119006D01*
X73010Y119028D01*
X72994Y119042D01*
X72991Y119047D01*
X72988D01*
X72961Y119066D01*
X72928Y119083D01*
X72895Y119096D01*
X72860Y119110D01*
X72783Y119129D01*
X72707Y119140D01*
X72672Y119146D01*
X72639Y119148D01*
X72609Y119151D01*
X72581D01*
X72560Y119154D01*
X72480D01*
X72434Y119148D01*
X72390Y119143D01*
X72350Y119135D01*
X72314Y119126D01*
X72278Y119115D01*
X72248Y119105D01*
X72218Y119094D01*
X72194Y119083D01*
X72172Y119072D01*
X72156Y119061D01*
X72139Y119053D01*
X72128Y119044D01*
X72117Y119039D01*
X72115Y119036D01*
X72112Y119034D01*
X72085Y119012D01*
X72060Y118987D01*
X72019Y118933D01*
X71989Y118878D01*
X71965Y118826D01*
X71948Y118780D01*
X71940Y118758D01*
X71937Y118742D01*
X71932Y118725D01*
Y118714D01*
X71929Y118709D01*
Y118706D01*
X71476Y118769D01*
X71495Y118864D01*
X71509Y118905D01*
X71522Y118946D01*
X71533Y118984D01*
X71547Y119020D01*
X71561Y119050D01*
X71574Y119080D01*
X71588Y119105D01*
X71599Y119129D01*
X71610Y119148D01*
X71621Y119162D01*
X71629Y119176D01*
X71634Y119184D01*
X71637Y119189D01*
X71640Y119192D01*
X71662Y119222D01*
X71689Y119249D01*
X71743Y119298D01*
X71803Y119342D01*
X71861Y119378D01*
X71915Y119405D01*
X71937Y119416D01*
X71956Y119427D01*
X71973Y119435D01*
X71986Y119438D01*
X71995Y119443D01*
X71997D01*
X72090Y119473D01*
X72188Y119498D01*
X72284Y119514D01*
X72330Y119519D01*
X72371Y119525D01*
X72412Y119528D01*
X72451Y119530D01*
X72483Y119533D01*
X72510Y119536D01*
X72565D01*
X72644Y119533D01*
D02*
G37*
G36*
X68637D02*
X68727Y119522D01*
X68811Y119509D01*
X68891Y119490D01*
X68967Y119465D01*
X69038Y119440D01*
X69103Y119410D01*
X69164Y119383D01*
X69218Y119356D01*
X69265Y119326D01*
X69305Y119301D01*
X69341Y119279D01*
X69368Y119257D01*
X69387Y119244D01*
X69398Y119233D01*
X69404Y119230D01*
X69477Y119156D01*
X69543Y119077D01*
X69598Y118990D01*
X69647Y118900D01*
X69688Y118807D01*
X69721Y118714D01*
X69750Y118621D01*
X69772Y118531D01*
X69789Y118444D01*
X69802Y118365D01*
X69811Y118294D01*
X69816Y118261D01*
X69819Y118231D01*
Y118204D01*
X69822Y118179D01*
Y118157D01*
X69824Y118138D01*
Y118124D01*
Y118114D01*
Y118108D01*
Y118105D01*
X69822Y117980D01*
X69808Y117860D01*
X69791Y117751D01*
X69770Y117647D01*
X69742Y117551D01*
X69712Y117464D01*
X69679Y117385D01*
X69647Y117314D01*
X69614Y117251D01*
X69584Y117196D01*
X69554Y117150D01*
X69527Y117112D01*
X69505Y117082D01*
X69488Y117060D01*
X69475Y117049D01*
X69472Y117043D01*
X69404Y116978D01*
X69330Y116923D01*
X69254Y116874D01*
X69177Y116833D01*
X69101Y116798D01*
X69022Y116768D01*
X68948Y116743D01*
X68874Y116724D01*
X68806Y116708D01*
X68743Y116697D01*
X68688Y116689D01*
X68639Y116683D01*
X68598Y116680D01*
X68582D01*
X68568Y116678D01*
X68544D01*
X68476Y116680D01*
X68413Y116686D01*
X68350Y116694D01*
X68287Y116705D01*
X68230Y116716D01*
X68175Y116729D01*
X68126Y116746D01*
X68077Y116762D01*
X68036Y116776D01*
X67998Y116792D01*
X67965Y116806D01*
X67935Y116820D01*
X67913Y116828D01*
X67897Y116836D01*
X67886Y116841D01*
X67883Y116844D01*
X67829Y116877D01*
X67777Y116912D01*
X67728Y116951D01*
X67684Y116989D01*
X67643Y117027D01*
X67605Y117065D01*
X67569Y117104D01*
X67539Y117142D01*
X67512Y117177D01*
X67487Y117210D01*
X67468Y117237D01*
X67452Y117264D01*
X67438Y117284D01*
X67430Y117300D01*
X67424Y117311D01*
X67422Y117314D01*
X67395Y117374D01*
X67367Y117437D01*
X67348Y117502D01*
X67329Y117570D01*
X67313Y117641D01*
X67299Y117710D01*
X67288Y117778D01*
X67280Y117843D01*
X67274Y117903D01*
X67269Y117961D01*
X67266Y118013D01*
X67264Y118056D01*
X67261Y118092D01*
Y118122D01*
Y118130D01*
Y118138D01*
Y118141D01*
Y118144D01*
X67264Y118264D01*
X67277Y118376D01*
X67294Y118479D01*
X67318Y118578D01*
X67345Y118670D01*
X67375Y118752D01*
X67408Y118829D01*
X67441Y118900D01*
X67474Y118960D01*
X67506Y119015D01*
X67536Y119058D01*
X67564Y119096D01*
X67588Y119126D01*
X67605Y119148D01*
X67616Y119159D01*
X67621Y119165D01*
X67689Y119230D01*
X67763Y119288D01*
X67839Y119337D01*
X67916Y119380D01*
X67992Y119416D01*
X68069Y119446D01*
X68145Y119470D01*
X68216Y119490D01*
X68284Y119506D01*
X68347Y119517D01*
X68402Y119525D01*
X68451Y119530D01*
X68489Y119533D01*
X68506Y119536D01*
X68544D01*
X68637Y119533D01*
D02*
G37*
G36*
X55423Y120527D02*
X55494Y120521D01*
X55563Y120510D01*
X55628Y120494D01*
X55688Y120478D01*
X55746Y120459D01*
X55797Y120440D01*
X55844Y120420D01*
X55888Y120399D01*
X55923Y120379D01*
X55956Y120360D01*
X55983Y120344D01*
X56005Y120330D01*
X56019Y120319D01*
X56029Y120311D01*
X56032Y120308D01*
X56081Y120265D01*
X56128Y120218D01*
X56172Y120169D01*
X56212Y120117D01*
X56248Y120065D01*
X56281Y120011D01*
X56313Y119959D01*
X56338Y119910D01*
X56363Y119863D01*
X56384Y119820D01*
X56401Y119779D01*
X56417Y119746D01*
X56428Y119716D01*
X56436Y119697D01*
X56439Y119683D01*
X56442Y119678D01*
X56466Y119599D01*
X56485Y119514D01*
X56504Y119427D01*
X56521Y119337D01*
X56546Y119156D01*
X56554Y119069D01*
X56562Y118984D01*
X56567Y118905D01*
X56570Y118832D01*
X56573Y118766D01*
X56576Y118711D01*
Y118687D01*
X56578Y118665D01*
Y118646D01*
Y118630D01*
Y118616D01*
Y118608D01*
Y118602D01*
Y118599D01*
Y118501D01*
X56573Y118406D01*
X56570Y118316D01*
X56562Y118228D01*
X56554Y118144D01*
X56543Y118062D01*
X56532Y117985D01*
X56521Y117912D01*
X56507Y117838D01*
X56491Y117772D01*
X56477Y117707D01*
X56461Y117647D01*
X56445Y117587D01*
X56428Y117532D01*
X56409Y117480D01*
X56393Y117431D01*
X56376Y117387D01*
X56357Y117344D01*
X56341Y117306D01*
X56324Y117267D01*
X56308Y117235D01*
X56294Y117204D01*
X56278Y117177D01*
X56264Y117153D01*
X56253Y117131D01*
X56242Y117114D01*
X56231Y117098D01*
X56223Y117084D01*
X56215Y117076D01*
X56210Y117068D01*
X56207Y117065D01*
Y117062D01*
X56147Y116994D01*
X56081Y116934D01*
X56013Y116882D01*
X55942Y116839D01*
X55868Y116800D01*
X55797Y116770D01*
X55729Y116743D01*
X55661Y116724D01*
X55595Y116708D01*
X55538Y116697D01*
X55484Y116686D01*
X55437Y116680D01*
X55399Y116678D01*
X55372Y116675D01*
X55347D01*
X55271Y116678D01*
X55200Y116686D01*
X55131Y116697D01*
X55066Y116710D01*
X55006Y116727D01*
X54951Y116746D01*
X54899Y116765D01*
X54850Y116787D01*
X54809Y116806D01*
X54771Y116825D01*
X54741Y116844D01*
X54714Y116860D01*
X54692Y116877D01*
X54678Y116888D01*
X54667Y116893D01*
X54664Y116896D01*
X54615Y116940D01*
X54569Y116986D01*
X54525Y117035D01*
X54484Y117087D01*
X54449Y117142D01*
X54416Y117194D01*
X54383Y117245D01*
X54356Y117295D01*
X54334Y117341D01*
X54312Y117385D01*
X54296Y117426D01*
X54280Y117458D01*
X54269Y117488D01*
X54260Y117508D01*
X54258Y117521D01*
X54255Y117527D01*
X54230Y117606D01*
X54209Y117690D01*
X54189Y117778D01*
X54173Y117868D01*
X54149Y118045D01*
X54140Y118133D01*
X54132Y118217D01*
X54127Y118297D01*
X54124Y118368D01*
X54121Y118433D01*
X54119Y118490D01*
Y118515D01*
X54116Y118537D01*
Y118556D01*
Y118570D01*
Y118583D01*
Y118591D01*
Y118597D01*
Y118599D01*
Y118703D01*
X54119Y118799D01*
X54124Y118892D01*
X54129Y118976D01*
X54135Y119055D01*
X54143Y119129D01*
X54151Y119197D01*
X54159Y119257D01*
X54168Y119312D01*
X54176Y119358D01*
X54184Y119399D01*
X54189Y119432D01*
X54195Y119459D01*
X54200Y119476D01*
X54203Y119490D01*
Y119492D01*
X54220Y119552D01*
X54239Y119612D01*
X54255Y119667D01*
X54274Y119719D01*
X54296Y119768D01*
X54315Y119814D01*
X54334Y119858D01*
X54353Y119896D01*
X54370Y119932D01*
X54386Y119962D01*
X54400Y119989D01*
X54413Y120011D01*
X54424Y120027D01*
X54432Y120041D01*
X54435Y120049D01*
X54438Y120052D01*
X54495Y120134D01*
X54558Y120205D01*
X54621Y120267D01*
X54681Y120317D01*
X54708Y120338D01*
X54735Y120355D01*
X54757Y120371D01*
X54776Y120385D01*
X54793Y120393D01*
X54804Y120401D01*
X54812Y120407D01*
X54815D01*
X54858Y120429D01*
X54902Y120448D01*
X54995Y120478D01*
X55085Y120500D01*
X55167Y120513D01*
X55205Y120519D01*
X55238Y120524D01*
X55271Y120527D01*
X55295D01*
X55317Y120530D01*
X55347D01*
X55423Y120527D01*
D02*
G37*
G36*
X72680Y115387D02*
X72216D01*
Y115919D01*
X72680D01*
Y115387D01*
D02*
G37*
G36*
X68869D02*
X68405D01*
Y115919D01*
X68869D01*
Y115387D01*
D02*
G37*
G36*
X61700Y114352D02*
X61173D01*
Y114879D01*
X61700D01*
Y114352D01*
D02*
G37*
G36*
X59082Y113274D02*
X57651D01*
Y113741D01*
X59082D01*
Y113274D01*
D02*
G37*
G36*
X74563Y112141D02*
X74129D01*
X73092Y114879D01*
X73570D01*
X74178Y113208D01*
X74217Y113099D01*
X74236Y113047D01*
X74252Y112998D01*
X74266Y112952D01*
X74280Y112908D01*
X74293Y112870D01*
X74304Y112834D01*
X74315Y112802D01*
X74326Y112771D01*
X74331Y112747D01*
X74340Y112725D01*
X74345Y112709D01*
X74348Y112698D01*
X74351Y112690D01*
Y112687D01*
X74381Y112793D01*
X74411Y112894D01*
X74441Y112987D01*
X74454Y113031D01*
X74468Y113069D01*
X74479Y113107D01*
X74490Y113140D01*
X74501Y113167D01*
X74509Y113192D01*
X74517Y113211D01*
X74520Y113227D01*
X74525Y113236D01*
Y113238D01*
X75112Y114879D01*
X75601D01*
X74563Y112141D01*
D02*
G37*
G36*
X77236Y114934D02*
X77334Y114923D01*
X77427Y114904D01*
X77517Y114879D01*
X77599Y114852D01*
X77673Y114819D01*
X77744Y114784D01*
X77807Y114748D01*
X77864Y114713D01*
X77913Y114677D01*
X77954Y114647D01*
X77990Y114617D01*
X78020Y114592D01*
X78039Y114573D01*
X78050Y114562D01*
X78055Y114557D01*
X78118Y114483D01*
X78172Y114401D01*
X78219Y114317D01*
X78260Y114229D01*
X78295Y114139D01*
X78323Y114049D01*
X78347Y113962D01*
X78366Y113880D01*
X78380Y113798D01*
X78391Y113724D01*
X78399Y113659D01*
X78405Y113601D01*
X78407Y113574D01*
Y113552D01*
Y113533D01*
X78410Y113517D01*
Y113503D01*
Y113495D01*
Y113489D01*
Y113487D01*
X78407Y113364D01*
X78394Y113249D01*
X78377Y113143D01*
X78355Y113042D01*
X78328Y112949D01*
X78298Y112864D01*
X78268Y112788D01*
X78235Y112717D01*
X78203Y112654D01*
X78170Y112602D01*
X78142Y112556D01*
X78115Y112518D01*
X78093Y112488D01*
X78074Y112466D01*
X78063Y112455D01*
X78061Y112449D01*
X77992Y112384D01*
X77919Y112327D01*
X77842Y112277D01*
X77763Y112236D01*
X77684Y112201D01*
X77605Y112171D01*
X77526Y112146D01*
X77452Y112127D01*
X77381Y112111D01*
X77315Y112100D01*
X77258Y112092D01*
X77206Y112086D01*
X77165Y112083D01*
X77149D01*
X77135Y112081D01*
X77108D01*
X77021Y112083D01*
X76936Y112092D01*
X76857Y112103D01*
X76783Y112116D01*
X76715Y112135D01*
X76649Y112154D01*
X76592Y112176D01*
X76537Y112198D01*
X76488Y112217D01*
X76447Y112239D01*
X76409Y112258D01*
X76379Y112277D01*
X76354Y112291D01*
X76338Y112302D01*
X76327Y112310D01*
X76324Y112313D01*
X76270Y112359D01*
X76218Y112408D01*
X76171Y112460D01*
X76130Y112512D01*
X76092Y112567D01*
X76057Y112621D01*
X76027Y112676D01*
X75999Y112725D01*
X75975Y112774D01*
X75956Y112821D01*
X75939Y112862D01*
X75926Y112897D01*
X75918Y112924D01*
X75909Y112946D01*
X75904Y112960D01*
Y112965D01*
X76382Y113028D01*
X76403Y112973D01*
X76425Y112924D01*
X76447Y112878D01*
X76472Y112834D01*
X76496Y112796D01*
X76518Y112761D01*
X76543Y112731D01*
X76565Y112700D01*
X76586Y112676D01*
X76605Y112654D01*
X76622Y112638D01*
X76638Y112621D01*
X76652Y112610D01*
X76660Y112602D01*
X76666Y112600D01*
X76668Y112597D01*
X76704Y112572D01*
X76739Y112553D01*
X76775Y112534D01*
X76813Y112520D01*
X76887Y112496D01*
X76955Y112479D01*
X76985Y112474D01*
X77015Y112471D01*
X77040Y112469D01*
X77061Y112466D01*
X77081Y112463D01*
X77105D01*
X77168Y112466D01*
X77228Y112474D01*
X77285Y112485D01*
X77340Y112501D01*
X77392Y112518D01*
X77438Y112540D01*
X77482Y112559D01*
X77520Y112583D01*
X77556Y112605D01*
X77588Y112627D01*
X77616Y112646D01*
X77637Y112662D01*
X77654Y112679D01*
X77667Y112690D01*
X77676Y112698D01*
X77678Y112700D01*
X77719Y112747D01*
X77755Y112799D01*
X77788Y112853D01*
X77815Y112911D01*
X77839Y112968D01*
X77859Y113025D01*
X77878Y113080D01*
X77891Y113137D01*
X77902Y113189D01*
X77913Y113236D01*
X77919Y113279D01*
X77924Y113318D01*
X77930Y113347D01*
Y113372D01*
X77932Y113386D01*
Y113391D01*
X75890D01*
Y113421D01*
X75888Y113446D01*
Y113465D01*
Y113484D01*
Y113498D01*
Y113506D01*
Y113511D01*
Y113514D01*
X75890Y113637D01*
X75901Y113754D01*
X75920Y113864D01*
X75942Y113964D01*
X75969Y114057D01*
X75997Y114145D01*
X76029Y114224D01*
X76062Y114295D01*
X76095Y114358D01*
X76125Y114412D01*
X76155Y114459D01*
X76182Y114497D01*
X76204Y114527D01*
X76221Y114549D01*
X76234Y114560D01*
X76237Y114565D01*
X76305Y114631D01*
X76376Y114688D01*
X76447Y114740D01*
X76524Y114781D01*
X76597Y114819D01*
X76674Y114849D01*
X76745Y114874D01*
X76816Y114893D01*
X76881Y114909D01*
X76941Y114920D01*
X76993Y114928D01*
X77042Y114934D01*
X77081Y114936D01*
X77108Y114939D01*
X77132D01*
X77236Y114934D01*
D02*
G37*
G36*
X82000Y112141D02*
X81500D01*
Y113820D01*
X80853D01*
X80796Y113817D01*
X80747Y113814D01*
X80709Y113812D01*
X80681Y113806D01*
X80660Y113803D01*
X80646Y113801D01*
X80643D01*
X80599Y113787D01*
X80559Y113773D01*
X80520Y113754D01*
X80488Y113738D01*
X80458Y113724D01*
X80436Y113711D01*
X80422Y113702D01*
X80417Y113700D01*
X80373Y113670D01*
X80329Y113631D01*
X80288Y113588D01*
X80247Y113547D01*
X80215Y113509D01*
X80187Y113476D01*
X80176Y113462D01*
X80168Y113454D01*
X80165Y113449D01*
X80163Y113446D01*
X80135Y113410D01*
X80105Y113372D01*
X80045Y113290D01*
X79985Y113203D01*
X79928Y113118D01*
X79903Y113080D01*
X79879Y113045D01*
X79857Y113012D01*
X79838Y112982D01*
X79824Y112960D01*
X79813Y112941D01*
X79805Y112930D01*
X79802Y112927D01*
X79303Y112141D01*
X78678D01*
X79330Y113167D01*
X79404Y113277D01*
X79442Y113326D01*
X79478Y113375D01*
X79513Y113418D01*
X79549Y113460D01*
X79581Y113498D01*
X79611Y113533D01*
X79638Y113566D01*
X79666Y113593D01*
X79688Y113615D01*
X79707Y113637D01*
X79723Y113651D01*
X79734Y113664D01*
X79742Y113670D01*
X79745Y113672D01*
X79789Y113708D01*
X79835Y113741D01*
X79884Y113773D01*
X79933Y113801D01*
X79977Y113825D01*
X79996Y113836D01*
X80013Y113844D01*
X80026Y113853D01*
X80037Y113855D01*
X80043Y113861D01*
X80045D01*
X79947Y113877D01*
X79854Y113896D01*
X79770Y113921D01*
X79690Y113945D01*
X79619Y113975D01*
X79551Y114003D01*
X79494Y114033D01*
X79439Y114063D01*
X79393Y114093D01*
X79355Y114120D01*
X79319Y114145D01*
X79292Y114166D01*
X79270Y114186D01*
X79254Y114199D01*
X79245Y114207D01*
X79243Y114210D01*
X79196Y114262D01*
X79155Y114319D01*
X79120Y114374D01*
X79090Y114431D01*
X79065Y114489D01*
X79043Y114546D01*
X79027Y114601D01*
X79013Y114653D01*
X79002Y114702D01*
X78994Y114745D01*
X78989Y114786D01*
X78983Y114819D01*
Y114849D01*
X78981Y114871D01*
Y114882D01*
Y114887D01*
X78983Y114945D01*
X78986Y115002D01*
X78994Y115057D01*
X79005Y115108D01*
X79016Y115157D01*
X79030Y115204D01*
X79046Y115248D01*
X79060Y115289D01*
X79073Y115324D01*
X79090Y115357D01*
X79103Y115387D01*
X79114Y115411D01*
X79125Y115430D01*
X79131Y115444D01*
X79136Y115452D01*
X79139Y115455D01*
X79169Y115501D01*
X79202Y115545D01*
X79237Y115583D01*
X79270Y115622D01*
X79305Y115654D01*
X79341Y115684D01*
X79377Y115709D01*
X79409Y115734D01*
X79439Y115753D01*
X79469Y115769D01*
X79494Y115785D01*
X79516Y115796D01*
X79535Y115805D01*
X79549Y115810D01*
X79557Y115815D01*
X79559D01*
X79611Y115835D01*
X79669Y115851D01*
X79729Y115865D01*
X79789Y115875D01*
X79917Y115895D01*
X79980Y115900D01*
X80040Y115905D01*
X80100Y115911D01*
X80152Y115914D01*
X80201Y115917D01*
X80245D01*
X80277Y115919D01*
X82000D01*
Y112141D01*
D02*
G37*
G36*
X72680D02*
X72216D01*
Y114879D01*
X72680D01*
Y112141D01*
D02*
G37*
G36*
X68869D02*
X68405D01*
Y114879D01*
X68869D01*
Y112141D01*
D02*
G37*
G36*
X63581Y114934D02*
X63679Y114920D01*
X63769Y114898D01*
X63854Y114868D01*
X63933Y114835D01*
X64004Y114797D01*
X64069Y114756D01*
X64127Y114715D01*
X64179Y114672D01*
X64222Y114631D01*
X64261Y114592D01*
X64293Y114560D01*
X64315Y114530D01*
X64334Y114508D01*
X64345Y114494D01*
X64348Y114489D01*
Y114879D01*
X64766D01*
Y112141D01*
X64301D01*
Y113634D01*
X64299Y113730D01*
X64293Y113817D01*
X64282Y113896D01*
X64269Y113967D01*
X64252Y114033D01*
X64233Y114093D01*
X64214Y114145D01*
X64195Y114188D01*
X64176Y114229D01*
X64157Y114262D01*
X64138Y114289D01*
X64121Y114311D01*
X64108Y114328D01*
X64097Y114341D01*
X64091Y114347D01*
X64088Y114349D01*
X64047Y114382D01*
X64004Y114412D01*
X63960Y114437D01*
X63916Y114459D01*
X63873Y114478D01*
X63832Y114491D01*
X63791Y114505D01*
X63750Y114513D01*
X63714Y114521D01*
X63682Y114527D01*
X63652Y114532D01*
X63624Y114535D01*
X63605Y114538D01*
X63575D01*
X63507Y114535D01*
X63447Y114524D01*
X63392Y114511D01*
X63343Y114497D01*
X63305Y114480D01*
X63278Y114467D01*
X63267Y114461D01*
X63259Y114456D01*
X63256Y114453D01*
X63253D01*
X63204Y114420D01*
X63163Y114382D01*
X63130Y114344D01*
X63103Y114309D01*
X63084Y114276D01*
X63070Y114251D01*
X63065Y114240D01*
X63062Y114232D01*
X63059Y114229D01*
Y114227D01*
X63048Y114199D01*
X63040Y114169D01*
X63026Y114101D01*
X63018Y114033D01*
X63010Y113962D01*
Y113932D01*
X63007Y113902D01*
Y113874D01*
X63005Y113850D01*
Y113831D01*
Y113817D01*
Y113806D01*
Y113803D01*
Y112141D01*
X62541D01*
Y113823D01*
Y113880D01*
Y113935D01*
X62543Y113984D01*
X62546Y114030D01*
Y114071D01*
X62549Y114107D01*
X62551Y114139D01*
X62554Y114169D01*
X62557Y114194D01*
X62560Y114216D01*
X62562Y114235D01*
Y114248D01*
X62565Y114259D01*
X62568Y114268D01*
Y114270D01*
Y114273D01*
X62587Y114344D01*
X62609Y114409D01*
X62631Y114470D01*
X62655Y114519D01*
X62677Y114560D01*
X62688Y114576D01*
X62696Y114590D01*
X62702Y114601D01*
X62707Y114609D01*
X62713Y114611D01*
Y114614D01*
X62756Y114666D01*
X62805Y114713D01*
X62857Y114753D01*
X62906Y114786D01*
X62953Y114813D01*
X62972Y114824D01*
X62988Y114833D01*
X63005Y114841D01*
X63016Y114846D01*
X63021Y114849D01*
X63024D01*
X63103Y114879D01*
X63182Y114901D01*
X63259Y114917D01*
X63327Y114928D01*
X63360Y114931D01*
X63387Y114934D01*
X63414Y114936D01*
X63436Y114939D01*
X63477D01*
X63581Y114934D01*
D02*
G37*
G36*
X61700Y112141D02*
X61173D01*
Y112668D01*
X61700D01*
Y112141D01*
D02*
G37*
G36*
X70692Y114936D02*
X70766Y114931D01*
X70834Y114920D01*
X70894Y114912D01*
X70919Y114906D01*
X70943Y114901D01*
X70965Y114895D01*
X70982Y114890D01*
X70995Y114887D01*
X71006Y114884D01*
X71012Y114882D01*
X71014D01*
X71080Y114860D01*
X71140Y114838D01*
X71189Y114816D01*
X71230Y114794D01*
X71266Y114775D01*
X71290Y114762D01*
X71304Y114751D01*
X71309Y114748D01*
X71361Y114707D01*
X71405Y114663D01*
X71446Y114620D01*
X71479Y114579D01*
X71503Y114543D01*
X71522Y114516D01*
X71530Y114505D01*
X71536Y114497D01*
X71539Y114491D01*
Y114489D01*
X71566Y114429D01*
X71585Y114371D01*
X71601Y114314D01*
X71610Y114262D01*
X71615Y114216D01*
X71618Y114197D01*
Y114180D01*
X71621Y114169D01*
Y114158D01*
Y114153D01*
Y114150D01*
X71615Y114076D01*
X71604Y114008D01*
X71588Y113945D01*
X71569Y113891D01*
X71561Y113866D01*
X71552Y113844D01*
X71544Y113825D01*
X71536Y113812D01*
X71528Y113798D01*
X71525Y113790D01*
X71520Y113784D01*
Y113782D01*
X71479Y113722D01*
X71429Y113670D01*
X71380Y113626D01*
X71334Y113591D01*
X71290Y113560D01*
X71271Y113549D01*
X71255Y113539D01*
X71241Y113533D01*
X71230Y113528D01*
X71225Y113522D01*
X71222D01*
X71181Y113506D01*
X71135Y113487D01*
X71083Y113468D01*
X71028Y113449D01*
X70911Y113410D01*
X70793Y113375D01*
X70736Y113358D01*
X70684Y113345D01*
X70638Y113331D01*
X70594Y113320D01*
X70561Y113312D01*
X70534Y113304D01*
X70518Y113301D01*
X70515Y113298D01*
X70512D01*
X70444Y113282D01*
X70381Y113266D01*
X70327Y113249D01*
X70277Y113236D01*
X70234Y113222D01*
X70193Y113208D01*
X70160Y113197D01*
X70130Y113187D01*
X70108Y113175D01*
X70086Y113167D01*
X70070Y113159D01*
X70056Y113154D01*
X70048Y113148D01*
X70043Y113145D01*
X70037Y113143D01*
X70013Y113126D01*
X69991Y113107D01*
X69972Y113085D01*
X69955Y113066D01*
X69931Y113025D01*
X69914Y112987D01*
X69906Y112952D01*
X69901Y112922D01*
X69898Y112914D01*
Y112905D01*
Y112900D01*
Y112897D01*
X69901Y112864D01*
X69903Y112834D01*
X69912Y112804D01*
X69923Y112777D01*
X69947Y112722D01*
X69974Y112679D01*
X70004Y112643D01*
X70029Y112616D01*
X70040Y112605D01*
X70048Y112597D01*
X70051Y112594D01*
X70053Y112591D01*
X70084Y112569D01*
X70119Y112550D01*
X70193Y112518D01*
X70272Y112496D01*
X70348Y112479D01*
X70387Y112474D01*
X70419Y112471D01*
X70449Y112466D01*
X70477D01*
X70499Y112463D01*
X70529D01*
X70586Y112466D01*
X70640Y112469D01*
X70692Y112477D01*
X70741Y112485D01*
X70785Y112496D01*
X70826Y112509D01*
X70864Y112523D01*
X70897Y112537D01*
X70927Y112548D01*
X70952Y112561D01*
X70973Y112575D01*
X70993Y112586D01*
X71006Y112594D01*
X71017Y112602D01*
X71023Y112605D01*
X71025Y112608D01*
X71055Y112638D01*
X71086Y112668D01*
X71110Y112700D01*
X71132Y112736D01*
X71170Y112807D01*
X71197Y112875D01*
X71208Y112905D01*
X71216Y112935D01*
X71225Y112963D01*
X71230Y112984D01*
X71233Y113004D01*
X71236Y113020D01*
X71238Y113028D01*
Y113031D01*
X71697Y112960D01*
X71681Y112881D01*
X71659Y112807D01*
X71637Y112736D01*
X71610Y112673D01*
X71580Y112613D01*
X71552Y112559D01*
X71520Y112512D01*
X71490Y112469D01*
X71462Y112427D01*
X71435Y112395D01*
X71408Y112367D01*
X71386Y112343D01*
X71369Y112327D01*
X71353Y112313D01*
X71345Y112305D01*
X71342Y112302D01*
X71288Y112264D01*
X71227Y112228D01*
X71162Y112198D01*
X71096Y112174D01*
X71028Y112152D01*
X70960Y112135D01*
X70894Y112119D01*
X70829Y112108D01*
X70766Y112100D01*
X70709Y112092D01*
X70660Y112089D01*
X70613Y112083D01*
X70578D01*
X70550Y112081D01*
X70526D01*
X70408Y112086D01*
X70299Y112097D01*
X70250Y112108D01*
X70201Y112116D01*
X70157Y112127D01*
X70116Y112138D01*
X70081Y112146D01*
X70048Y112157D01*
X70018Y112168D01*
X69994Y112176D01*
X69974Y112182D01*
X69961Y112187D01*
X69952Y112193D01*
X69950D01*
X69903Y112215D01*
X69860Y112239D01*
X69819Y112264D01*
X69780Y112288D01*
X69745Y112316D01*
X69712Y112343D01*
X69682Y112367D01*
X69658Y112392D01*
X69633Y112417D01*
X69614Y112438D01*
X69595Y112458D01*
X69581Y112477D01*
X69570Y112490D01*
X69562Y112501D01*
X69559Y112507D01*
X69557Y112509D01*
X69532Y112548D01*
X69510Y112586D01*
X69494Y112627D01*
X69477Y112665D01*
X69453Y112739D01*
X69437Y112804D01*
X69431Y112834D01*
X69428Y112862D01*
X69423Y112886D01*
Y112908D01*
X69420Y112924D01*
Y112935D01*
Y112943D01*
Y112946D01*
X69426Y113031D01*
X69437Y113107D01*
X69456Y113173D01*
X69467Y113203D01*
X69475Y113230D01*
X69486Y113255D01*
X69497Y113277D01*
X69505Y113296D01*
X69516Y113312D01*
X69521Y113323D01*
X69527Y113331D01*
X69532Y113337D01*
Y113339D01*
X69578Y113397D01*
X69628Y113446D01*
X69677Y113487D01*
X69726Y113522D01*
X69770Y113549D01*
X69789Y113560D01*
X69805Y113569D01*
X69819Y113577D01*
X69830Y113582D01*
X69835Y113585D01*
X69838D01*
X69879Y113601D01*
X69923Y113618D01*
X69974Y113637D01*
X70026Y113653D01*
X70141Y113691D01*
X70256Y113724D01*
X70307Y113741D01*
X70359Y113754D01*
X70406Y113768D01*
X70447Y113779D01*
X70479Y113787D01*
X70504Y113795D01*
X70520Y113798D01*
X70523Y113801D01*
X70526D01*
X70586Y113817D01*
X70643Y113833D01*
X70692Y113847D01*
X70736Y113858D01*
X70774Y113869D01*
X70807Y113880D01*
X70837Y113888D01*
X70862Y113893D01*
X70881Y113902D01*
X70897Y113904D01*
X70911Y113910D01*
X70922Y113913D01*
X70930Y113915D01*
X70935Y113918D01*
X70938D01*
X70982Y113937D01*
X71017Y113959D01*
X71050Y113978D01*
X71074Y113997D01*
X71094Y114016D01*
X71107Y114030D01*
X71115Y114038D01*
X71118Y114041D01*
X71137Y114068D01*
X71151Y114098D01*
X71159Y114126D01*
X71165Y114150D01*
X71170Y114172D01*
X71173Y114188D01*
Y114202D01*
Y114205D01*
X71170Y114229D01*
X71167Y114257D01*
X71151Y114303D01*
X71129Y114344D01*
X71105Y114380D01*
X71080Y114409D01*
X71058Y114431D01*
X71042Y114445D01*
X71039Y114451D01*
X71036D01*
X71009Y114470D01*
X70976Y114486D01*
X70943Y114500D01*
X70908Y114513D01*
X70832Y114532D01*
X70755Y114543D01*
X70720Y114549D01*
X70687Y114551D01*
X70657Y114554D01*
X70630D01*
X70608Y114557D01*
X70529D01*
X70482Y114551D01*
X70438Y114546D01*
X70398Y114538D01*
X70362Y114530D01*
X70327Y114519D01*
X70297Y114508D01*
X70266Y114497D01*
X70242Y114486D01*
X70220Y114475D01*
X70204Y114464D01*
X70187Y114456D01*
X70176Y114448D01*
X70165Y114442D01*
X70163Y114439D01*
X70160Y114437D01*
X70133Y114415D01*
X70108Y114390D01*
X70067Y114336D01*
X70037Y114281D01*
X70013Y114229D01*
X69996Y114183D01*
X69988Y114161D01*
X69985Y114145D01*
X69980Y114128D01*
Y114117D01*
X69977Y114112D01*
Y114109D01*
X69524Y114172D01*
X69543Y114268D01*
X69557Y114309D01*
X69570Y114349D01*
X69581Y114388D01*
X69595Y114423D01*
X69608Y114453D01*
X69622Y114483D01*
X69636Y114508D01*
X69647Y114532D01*
X69658Y114551D01*
X69669Y114565D01*
X69677Y114579D01*
X69682Y114587D01*
X69685Y114592D01*
X69688Y114595D01*
X69709Y114625D01*
X69737Y114653D01*
X69791Y114702D01*
X69851Y114745D01*
X69909Y114781D01*
X69963Y114808D01*
X69985Y114819D01*
X70004Y114830D01*
X70021Y114838D01*
X70034Y114841D01*
X70043Y114846D01*
X70045D01*
X70138Y114876D01*
X70236Y114901D01*
X70332Y114917D01*
X70378Y114923D01*
X70419Y114928D01*
X70460Y114931D01*
X70499Y114934D01*
X70531Y114936D01*
X70559Y114939D01*
X70613D01*
X70692Y114936D01*
D02*
G37*
G36*
X66685D02*
X66775Y114926D01*
X66859Y114912D01*
X66939Y114893D01*
X67015Y114868D01*
X67086Y114844D01*
X67151Y114813D01*
X67212Y114786D01*
X67266Y114759D01*
X67313Y114729D01*
X67353Y114704D01*
X67389Y114682D01*
X67416Y114661D01*
X67435Y114647D01*
X67446Y114636D01*
X67452Y114633D01*
X67526Y114560D01*
X67591Y114480D01*
X67646Y114393D01*
X67695Y114303D01*
X67736Y114210D01*
X67769Y114117D01*
X67799Y114025D01*
X67820Y113935D01*
X67837Y113847D01*
X67850Y113768D01*
X67859Y113697D01*
X67864Y113664D01*
X67867Y113634D01*
Y113607D01*
X67870Y113582D01*
Y113560D01*
X67872Y113541D01*
Y113528D01*
Y113517D01*
Y113511D01*
Y113509D01*
X67870Y113383D01*
X67856Y113263D01*
X67839Y113154D01*
X67818Y113050D01*
X67790Y112954D01*
X67760Y112867D01*
X67728Y112788D01*
X67695Y112717D01*
X67662Y112654D01*
X67632Y112600D01*
X67602Y112553D01*
X67575Y112515D01*
X67553Y112485D01*
X67536Y112463D01*
X67523Y112452D01*
X67520Y112447D01*
X67452Y112381D01*
X67378Y112327D01*
X67302Y112277D01*
X67225Y112236D01*
X67149Y112201D01*
X67070Y112171D01*
X66996Y112146D01*
X66922Y112127D01*
X66854Y112111D01*
X66791Y112100D01*
X66737Y112092D01*
X66687Y112086D01*
X66646Y112083D01*
X66630D01*
X66616Y112081D01*
X66592D01*
X66524Y112083D01*
X66461Y112089D01*
X66398Y112097D01*
X66335Y112108D01*
X66278Y112119D01*
X66223Y112133D01*
X66174Y112149D01*
X66125Y112165D01*
X66084Y112179D01*
X66046Y112196D01*
X66013Y112209D01*
X65983Y112223D01*
X65961Y112231D01*
X65945Y112239D01*
X65934Y112245D01*
X65931Y112247D01*
X65877Y112280D01*
X65825Y112316D01*
X65776Y112354D01*
X65732Y112392D01*
X65691Y112430D01*
X65653Y112469D01*
X65617Y112507D01*
X65587Y112545D01*
X65560Y112580D01*
X65535Y112613D01*
X65516Y112641D01*
X65500Y112668D01*
X65486Y112687D01*
X65478Y112703D01*
X65473Y112714D01*
X65470Y112717D01*
X65443Y112777D01*
X65415Y112840D01*
X65396Y112905D01*
X65377Y112973D01*
X65361Y113045D01*
X65347Y113113D01*
X65336Y113181D01*
X65328Y113247D01*
X65322Y113307D01*
X65317Y113364D01*
X65314Y113416D01*
X65311Y113460D01*
X65309Y113495D01*
Y113525D01*
Y113533D01*
Y113541D01*
Y113544D01*
Y113547D01*
X65311Y113667D01*
X65325Y113779D01*
X65342Y113883D01*
X65366Y113981D01*
X65393Y114074D01*
X65423Y114156D01*
X65456Y114232D01*
X65489Y114303D01*
X65522Y114363D01*
X65554Y114418D01*
X65584Y114461D01*
X65612Y114500D01*
X65636Y114530D01*
X65653Y114551D01*
X65664Y114562D01*
X65669Y114568D01*
X65737Y114633D01*
X65811Y114691D01*
X65887Y114740D01*
X65964Y114784D01*
X66040Y114819D01*
X66117Y114849D01*
X66193Y114874D01*
X66264Y114893D01*
X66333Y114909D01*
X66395Y114920D01*
X66450Y114928D01*
X66499Y114934D01*
X66537Y114936D01*
X66554Y114939D01*
X66592D01*
X66685Y114936D01*
D02*
G37*
G36*
X52284Y111322D02*
X52377Y111314D01*
X52464Y111301D01*
X52546Y111282D01*
X52622Y111260D01*
X52693Y111235D01*
X52756Y111211D01*
X52816Y111186D01*
X52868Y111159D01*
X52915Y111134D01*
X52953Y111109D01*
X52986Y111088D01*
X53010Y111071D01*
X53029Y111055D01*
X53040Y111047D01*
X53043Y111044D01*
X53100Y110989D01*
X53149Y110929D01*
X53196Y110866D01*
X53234Y110801D01*
X53269Y110733D01*
X53299Y110664D01*
X53324Y110599D01*
X53346Y110533D01*
X53362Y110473D01*
X53376Y110416D01*
X53387Y110364D01*
X53395Y110320D01*
X53403Y110285D01*
X53406Y110258D01*
Y110247D01*
X53409Y110239D01*
Y110236D01*
Y110233D01*
X52931Y110184D01*
X52928Y110249D01*
X52923Y110310D01*
X52912Y110367D01*
X52901Y110422D01*
X52885Y110471D01*
X52868Y110514D01*
X52849Y110558D01*
X52830Y110593D01*
X52814Y110626D01*
X52794Y110656D01*
X52778Y110681D01*
X52762Y110703D01*
X52751Y110716D01*
X52740Y110730D01*
X52734Y110735D01*
X52732Y110738D01*
X52693Y110774D01*
X52650Y110804D01*
X52606Y110831D01*
X52562Y110856D01*
X52516Y110875D01*
X52472Y110891D01*
X52429Y110905D01*
X52388Y110916D01*
X52347Y110924D01*
X52311Y110929D01*
X52279Y110935D01*
X52249Y110938D01*
X52227Y110940D01*
X52194D01*
X52136Y110938D01*
X52082Y110932D01*
X52030Y110924D01*
X51981Y110910D01*
X51937Y110897D01*
X51894Y110880D01*
X51855Y110864D01*
X51820Y110845D01*
X51790Y110828D01*
X51762Y110809D01*
X51738Y110793D01*
X51719Y110779D01*
X51702Y110766D01*
X51692Y110757D01*
X51686Y110752D01*
X51683Y110749D01*
X51648Y110714D01*
X51618Y110675D01*
X51591Y110637D01*
X51569Y110596D01*
X51550Y110558D01*
X51533Y110520D01*
X51520Y110482D01*
X51509Y110446D01*
X51500Y110413D01*
X51495Y110383D01*
X51490Y110356D01*
X51487Y110331D01*
X51484Y110312D01*
Y110299D01*
Y110288D01*
Y110285D01*
X51487Y110236D01*
X51492Y110187D01*
X51503Y110138D01*
X51517Y110088D01*
X51552Y109993D01*
X51574Y109949D01*
X51593Y109908D01*
X51612Y109870D01*
X51634Y109835D01*
X51651Y109804D01*
X51667Y109777D01*
X51683Y109758D01*
X51694Y109742D01*
X51700Y109731D01*
X51702Y109728D01*
X51746Y109671D01*
X51801Y109608D01*
X51858Y109545D01*
X51924Y109480D01*
X51989Y109411D01*
X52060Y109346D01*
X52128Y109280D01*
X52199Y109218D01*
X52265Y109158D01*
X52328Y109103D01*
X52382Y109051D01*
X52434Y109010D01*
X52475Y108975D01*
X52491Y108961D01*
X52505Y108947D01*
X52516Y108939D01*
X52524Y108931D01*
X52530Y108928D01*
X52532Y108925D01*
X52603Y108865D01*
X52672Y108808D01*
X52734Y108754D01*
X52794Y108702D01*
X52849Y108650D01*
X52898Y108603D01*
X52942Y108560D01*
X52983Y108519D01*
X53021Y108483D01*
X53051Y108450D01*
X53078Y108423D01*
X53100Y108399D01*
X53117Y108379D01*
X53127Y108366D01*
X53136Y108358D01*
X53138Y108355D01*
X53212Y108262D01*
X53275Y108172D01*
X53327Y108087D01*
X53351Y108049D01*
X53370Y108011D01*
X53387Y107978D01*
X53403Y107948D01*
X53417Y107921D01*
X53425Y107896D01*
X53433Y107877D01*
X53439Y107863D01*
X53444Y107855D01*
Y107853D01*
X53463Y107795D01*
X53477Y107738D01*
X53485Y107683D01*
X53491Y107637D01*
X53493Y107593D01*
X53496Y107577D01*
Y107561D01*
Y107550D01*
Y107541D01*
Y107536D01*
Y107533D01*
X51001Y107533D01*
Y107978D01*
X52852D01*
X52822Y108025D01*
X52789Y108071D01*
X52756Y108112D01*
X52726Y108150D01*
X52699Y108180D01*
X52677Y108205D01*
X52663Y108221D01*
X52658Y108227D01*
X52633Y108254D01*
X52601Y108284D01*
X52565Y108317D01*
X52524Y108355D01*
X52481Y108393D01*
X52437Y108434D01*
X52344Y108513D01*
X52300Y108552D01*
X52259Y108587D01*
X52224Y108620D01*
X52188Y108647D01*
X52161Y108672D01*
X52142Y108688D01*
X52128Y108702D01*
X52123Y108704D01*
X52033Y108781D01*
X51948Y108854D01*
X51872Y108923D01*
X51801Y108985D01*
X51735Y109046D01*
X51678Y109100D01*
X51623Y109149D01*
X51577Y109193D01*
X51536Y109234D01*
X51503Y109269D01*
X51473Y109300D01*
X51449Y109324D01*
X51429Y109343D01*
X51419Y109357D01*
X51410Y109365D01*
X51408Y109368D01*
X51369Y109414D01*
X51331Y109458D01*
X51298Y109502D01*
X51268Y109543D01*
X51214Y109622D01*
X51192Y109657D01*
X51173Y109690D01*
X51154Y109720D01*
X51140Y109747D01*
X51126Y109772D01*
X51118Y109791D01*
X51110Y109807D01*
X51105Y109818D01*
X51099Y109826D01*
Y109829D01*
X51069Y109911D01*
X51044Y109990D01*
X51028Y110067D01*
X51017Y110135D01*
X51015Y110165D01*
X51012Y110192D01*
X51009Y110214D01*
X51006Y110236D01*
Y110252D01*
Y110263D01*
Y110271D01*
Y110274D01*
X51009Y110356D01*
X51020Y110435D01*
X51036Y110509D01*
X51056Y110580D01*
X51080Y110645D01*
X51107Y110708D01*
X51137Y110766D01*
X51165Y110817D01*
X51195Y110864D01*
X51225Y110905D01*
X51252Y110940D01*
X51277Y110968D01*
X51296Y110992D01*
X51312Y111009D01*
X51323Y111019D01*
X51326Y111022D01*
X51389Y111077D01*
X51454Y111123D01*
X51522Y111161D01*
X51593Y111197D01*
X51664Y111227D01*
X51738Y111251D01*
X51806Y111270D01*
X51875Y111287D01*
X51937Y111301D01*
X51997Y111309D01*
X52049Y111317D01*
X52096Y111320D01*
X52134Y111322D01*
X52161Y111325D01*
X52186D01*
X52284Y111322D01*
D02*
G37*
G36*
X46414D02*
X46507Y111314D01*
X46595Y111301D01*
X46676Y111282D01*
X46753Y111260D01*
X46824Y111235D01*
X46887Y111211D01*
X46947Y111186D01*
X46999Y111159D01*
X47045Y111134D01*
X47083Y111109D01*
X47116Y111088D01*
X47141Y111071D01*
X47160Y111055D01*
X47171Y111047D01*
X47173Y111044D01*
X47231Y110989D01*
X47280Y110929D01*
X47326Y110866D01*
X47365Y110801D01*
X47400Y110733D01*
X47430Y110664D01*
X47455Y110599D01*
X47476Y110533D01*
X47493Y110473D01*
X47506Y110416D01*
X47517Y110364D01*
X47526Y110320D01*
X47534Y110285D01*
X47537Y110258D01*
Y110247D01*
X47539Y110239D01*
Y110236D01*
Y110233D01*
X47061Y110184D01*
X47059Y110249D01*
X47053Y110310D01*
X47042Y110367D01*
X47031Y110422D01*
X47015Y110471D01*
X46999Y110514D01*
X46980Y110558D01*
X46960Y110593D01*
X46944Y110626D01*
X46925Y110656D01*
X46909Y110681D01*
X46892Y110703D01*
X46881Y110716D01*
X46870Y110730D01*
X46865Y110735D01*
X46862Y110738D01*
X46824Y110774D01*
X46780Y110804D01*
X46737Y110831D01*
X46693Y110856D01*
X46646Y110875D01*
X46603Y110891D01*
X46559Y110905D01*
X46518Y110916D01*
X46477Y110924D01*
X46442Y110929D01*
X46409Y110935D01*
X46379Y110938D01*
X46357Y110940D01*
X46324D01*
X46267Y110938D01*
X46212Y110932D01*
X46161Y110924D01*
X46111Y110910D01*
X46068Y110897D01*
X46024Y110880D01*
X45986Y110864D01*
X45950Y110845D01*
X45920Y110828D01*
X45893Y110809D01*
X45869Y110793D01*
X45849Y110779D01*
X45833Y110766D01*
X45822Y110757D01*
X45817Y110752D01*
X45814Y110749D01*
X45778Y110714D01*
X45748Y110675D01*
X45721Y110637D01*
X45699Y110596D01*
X45680Y110558D01*
X45664Y110520D01*
X45650Y110482D01*
X45639Y110446D01*
X45631Y110413D01*
X45625Y110383D01*
X45620Y110356D01*
X45617Y110331D01*
X45615Y110312D01*
Y110299D01*
Y110288D01*
Y110285D01*
X45617Y110236D01*
X45623Y110187D01*
X45634Y110138D01*
X45647Y110088D01*
X45683Y109993D01*
X45705Y109949D01*
X45724Y109908D01*
X45743Y109870D01*
X45765Y109835D01*
X45781Y109804D01*
X45798Y109777D01*
X45814Y109758D01*
X45825Y109742D01*
X45830Y109731D01*
X45833Y109728D01*
X45877Y109671D01*
X45931Y109608D01*
X45989Y109545D01*
X46054Y109480D01*
X46120Y109411D01*
X46191Y109346D01*
X46259Y109280D01*
X46330Y109218D01*
X46395Y109158D01*
X46458Y109103D01*
X46513Y109051D01*
X46565Y109010D01*
X46606Y108975D01*
X46622Y108961D01*
X46636Y108947D01*
X46646Y108939D01*
X46655Y108931D01*
X46660Y108928D01*
X46663Y108925D01*
X46734Y108865D01*
X46802Y108808D01*
X46865Y108754D01*
X46925Y108702D01*
X46980Y108650D01*
X47029Y108603D01*
X47072Y108560D01*
X47113Y108519D01*
X47151Y108483D01*
X47182Y108450D01*
X47209Y108423D01*
X47231Y108399D01*
X47247Y108379D01*
X47258Y108366D01*
X47266Y108358D01*
X47269Y108355D01*
X47343Y108262D01*
X47405Y108172D01*
X47457Y108087D01*
X47482Y108049D01*
X47501Y108011D01*
X47517Y107978D01*
X47534Y107948D01*
X47547Y107921D01*
X47556Y107896D01*
X47564Y107877D01*
X47569Y107863D01*
X47575Y107855D01*
Y107853D01*
X47594Y107795D01*
X47607Y107738D01*
X47616Y107683D01*
X47621Y107637D01*
X47624Y107593D01*
X47627Y107577D01*
Y107561D01*
Y107550D01*
Y107541D01*
Y107536D01*
Y107533D01*
X45131D01*
Y107978D01*
X46982D01*
X46952Y108025D01*
X46920Y108071D01*
X46887Y108112D01*
X46857Y108150D01*
X46829Y108180D01*
X46808Y108205D01*
X46794Y108221D01*
X46788Y108227D01*
X46764Y108254D01*
X46731Y108284D01*
X46696Y108317D01*
X46655Y108355D01*
X46611Y108393D01*
X46567Y108434D01*
X46474Y108513D01*
X46431Y108552D01*
X46390Y108587D01*
X46354Y108620D01*
X46319Y108647D01*
X46292Y108672D01*
X46273Y108688D01*
X46259Y108702D01*
X46253Y108704D01*
X46163Y108781D01*
X46079Y108854D01*
X46002Y108923D01*
X45931Y108985D01*
X45866Y109046D01*
X45808Y109100D01*
X45754Y109149D01*
X45707Y109193D01*
X45666Y109234D01*
X45634Y109269D01*
X45604Y109300D01*
X45579Y109324D01*
X45560Y109343D01*
X45549Y109357D01*
X45541Y109365D01*
X45538Y109368D01*
X45500Y109414D01*
X45462Y109458D01*
X45429Y109502D01*
X45399Y109543D01*
X45344Y109622D01*
X45322Y109657D01*
X45303Y109690D01*
X45284Y109720D01*
X45271Y109747D01*
X45257Y109772D01*
X45249Y109791D01*
X45241Y109807D01*
X45235Y109818D01*
X45230Y109826D01*
Y109829D01*
X45200Y109911D01*
X45175Y109990D01*
X45159Y110067D01*
X45148Y110135D01*
X45145Y110165D01*
X45142Y110192D01*
X45140Y110214D01*
X45137Y110236D01*
Y110252D01*
Y110263D01*
Y110271D01*
Y110274D01*
X45140Y110356D01*
X45151Y110435D01*
X45167Y110509D01*
X45186Y110580D01*
X45210Y110645D01*
X45238Y110708D01*
X45268Y110766D01*
X45295Y110817D01*
X45325Y110864D01*
X45355Y110905D01*
X45382Y110940D01*
X45407Y110968D01*
X45426Y110992D01*
X45443Y111009D01*
X45454Y111019D01*
X45456Y111022D01*
X45519Y111077D01*
X45584Y111123D01*
X45653Y111161D01*
X45724Y111197D01*
X45795Y111227D01*
X45869Y111251D01*
X45937Y111270D01*
X46005Y111287D01*
X46068Y111301D01*
X46128Y111309D01*
X46180Y111317D01*
X46226Y111320D01*
X46264Y111322D01*
X46292Y111325D01*
X46316D01*
X46414Y111322D01*
D02*
G37*
G36*
X70782Y109745D02*
X70256D01*
Y110271D01*
X70782D01*
Y109745D01*
D02*
G37*
G36*
X63949Y111320D02*
X64053Y111306D01*
X64148Y111284D01*
X64241Y111257D01*
X64326Y111224D01*
X64402Y111189D01*
X64473Y111148D01*
X64539Y111109D01*
X64596Y111068D01*
X64648Y111028D01*
X64689Y110992D01*
X64725Y110959D01*
X64755Y110932D01*
X64774Y110910D01*
X64785Y110897D01*
X64790Y110891D01*
X64826Y110842D01*
X64861Y110790D01*
X64894Y110738D01*
X64924Y110681D01*
X64978Y110561D01*
X65025Y110432D01*
X65063Y110301D01*
X65096Y110170D01*
X65123Y110037D01*
X65142Y109908D01*
X65161Y109785D01*
X65172Y109674D01*
X65178Y109619D01*
X65180Y109570D01*
X65186Y109521D01*
X65189Y109480D01*
Y109439D01*
X65191Y109403D01*
Y109373D01*
X65194Y109349D01*
Y109327D01*
Y109313D01*
Y109302D01*
Y109300D01*
Y109209D01*
X65189Y109122D01*
X65186Y109040D01*
X65178Y108958D01*
X65170Y108882D01*
X65161Y108808D01*
X65150Y108737D01*
X65137Y108669D01*
X65123Y108603D01*
X65109Y108541D01*
X65093Y108483D01*
X65079Y108426D01*
X65063Y108374D01*
X65044Y108322D01*
X65028Y108276D01*
X65011Y108232D01*
X64995Y108191D01*
X64976Y108150D01*
X64959Y108115D01*
X64943Y108082D01*
X64929Y108052D01*
X64913Y108025D01*
X64886Y107978D01*
X64861Y107943D01*
X64845Y107915D01*
X64831Y107902D01*
X64828Y107896D01*
X64757Y107823D01*
X64684Y107757D01*
X64604Y107700D01*
X64525Y107651D01*
X64446Y107610D01*
X64370Y107574D01*
X64293Y107547D01*
X64219Y107525D01*
X64148Y107506D01*
X64086Y107492D01*
X64028Y107484D01*
X63979Y107476D01*
X63938Y107473D01*
X63922D01*
X63908Y107470D01*
X63884D01*
X63821Y107473D01*
X63758Y107479D01*
X63701Y107484D01*
X63643Y107495D01*
X63592Y107509D01*
X63540Y107522D01*
X63493Y107536D01*
X63452Y107552D01*
X63411Y107566D01*
X63379Y107580D01*
X63349Y107593D01*
X63321Y107607D01*
X63302Y107618D01*
X63286Y107623D01*
X63278Y107629D01*
X63275Y107632D01*
X63226Y107664D01*
X63179Y107697D01*
X63136Y107735D01*
X63098Y107773D01*
X63059Y107812D01*
X63024Y107850D01*
X62994Y107888D01*
X62964Y107926D01*
X62939Y107962D01*
X62917Y107992D01*
X62898Y108022D01*
X62882Y108049D01*
X62871Y108068D01*
X62863Y108085D01*
X62857Y108096D01*
X62854Y108098D01*
X62827Y108156D01*
X62803Y108216D01*
X62783Y108273D01*
X62764Y108330D01*
X62748Y108388D01*
X62737Y108442D01*
X62726Y108494D01*
X62718Y108543D01*
X62713Y108590D01*
X62707Y108631D01*
X62704Y108666D01*
X62702Y108699D01*
X62699Y108723D01*
Y108743D01*
Y108756D01*
Y108759D01*
X62702Y108857D01*
X62713Y108953D01*
X62729Y109040D01*
X62751Y109125D01*
X62775Y109204D01*
X62803Y109275D01*
X62833Y109343D01*
X62863Y109403D01*
X62893Y109458D01*
X62923Y109504D01*
X62950Y109545D01*
X62975Y109578D01*
X62997Y109605D01*
X63013Y109624D01*
X63024Y109638D01*
X63026Y109641D01*
X63089Y109701D01*
X63155Y109755D01*
X63220Y109799D01*
X63286Y109840D01*
X63354Y109873D01*
X63420Y109900D01*
X63482Y109925D01*
X63542Y109941D01*
X63600Y109955D01*
X63652Y109966D01*
X63698Y109974D01*
X63739Y109979D01*
X63769Y109982D01*
X63794Y109985D01*
X63865D01*
X63914Y109979D01*
X64009Y109966D01*
X64094Y109944D01*
X64135Y109933D01*
X64170Y109922D01*
X64206Y109911D01*
X64236Y109900D01*
X64261Y109889D01*
X64285Y109878D01*
X64301Y109870D01*
X64315Y109865D01*
X64323Y109862D01*
X64326Y109859D01*
X64370Y109835D01*
X64413Y109807D01*
X64490Y109747D01*
X64561Y109684D01*
X64591Y109654D01*
X64618Y109624D01*
X64645Y109594D01*
X64667Y109567D01*
X64686Y109543D01*
X64703Y109521D01*
X64716Y109504D01*
X64725Y109491D01*
X64730Y109482D01*
X64733Y109480D01*
X64730Y109583D01*
X64727Y109682D01*
X64719Y109772D01*
X64711Y109856D01*
X64703Y109933D01*
X64692Y110007D01*
X64678Y110072D01*
X64667Y110129D01*
X64656Y110181D01*
X64645Y110228D01*
X64635Y110266D01*
X64624Y110296D01*
X64615Y110320D01*
X64610Y110340D01*
X64604Y110351D01*
Y110353D01*
X64580Y110408D01*
X64553Y110460D01*
X64525Y110509D01*
X64495Y110555D01*
X64468Y110596D01*
X64438Y110635D01*
X64411Y110670D01*
X64383Y110700D01*
X64356Y110727D01*
X64334Y110752D01*
X64312Y110771D01*
X64293Y110787D01*
X64280Y110801D01*
X64266Y110809D01*
X64261Y110815D01*
X64258Y110817D01*
X64225Y110839D01*
X64192Y110858D01*
X64127Y110891D01*
X64061Y110913D01*
X64001Y110927D01*
X63971Y110932D01*
X63946Y110938D01*
X63925Y110940D01*
X63906D01*
X63889Y110943D01*
X63867D01*
X63818Y110940D01*
X63769Y110935D01*
X63723Y110924D01*
X63679Y110913D01*
X63638Y110897D01*
X63603Y110880D01*
X63567Y110861D01*
X63534Y110845D01*
X63504Y110826D01*
X63480Y110806D01*
X63458Y110790D01*
X63439Y110774D01*
X63425Y110763D01*
X63414Y110752D01*
X63409Y110746D01*
X63406Y110744D01*
X63384Y110719D01*
X63365Y110692D01*
X63329Y110629D01*
X63300Y110564D01*
X63275Y110501D01*
X63253Y110441D01*
X63248Y110416D01*
X63239Y110391D01*
X63234Y110375D01*
X63231Y110359D01*
X63228Y110351D01*
Y110348D01*
X62767Y110383D01*
X62781Y110462D01*
X62797Y110539D01*
X62819Y110610D01*
X62846Y110675D01*
X62871Y110738D01*
X62901Y110795D01*
X62931Y110847D01*
X62961Y110894D01*
X62991Y110935D01*
X63018Y110970D01*
X63043Y111003D01*
X63065Y111028D01*
X63084Y111047D01*
X63098Y111063D01*
X63108Y111071D01*
X63111Y111074D01*
X63166Y111118D01*
X63223Y111156D01*
X63283Y111191D01*
X63346Y111219D01*
X63406Y111243D01*
X63466Y111265D01*
X63526Y111282D01*
X63581Y111295D01*
X63635Y111303D01*
X63684Y111311D01*
X63728Y111317D01*
X63766Y111322D01*
X63796D01*
X63821Y111325D01*
X63840D01*
X63949Y111320D01*
D02*
G37*
G36*
X77220Y110326D02*
X77280Y110323D01*
X77337Y110315D01*
X77392Y110310D01*
X77444Y110301D01*
X77493Y110291D01*
X77536Y110282D01*
X77575Y110274D01*
X77610Y110263D01*
X77640Y110255D01*
X77667Y110249D01*
X77687Y110241D01*
X77703Y110239D01*
X77711Y110233D01*
X77714D01*
X77763Y110214D01*
X77810Y110195D01*
X77850Y110173D01*
X77891Y110149D01*
X77927Y110127D01*
X77960Y110105D01*
X77992Y110080D01*
X78020Y110058D01*
X78044Y110039D01*
X78063Y110020D01*
X78082Y110001D01*
X78096Y109987D01*
X78110Y109974D01*
X78118Y109966D01*
X78121Y109960D01*
X78123Y109957D01*
X78172Y109886D01*
X78214Y109807D01*
X78249Y109731D01*
X78276Y109654D01*
X78290Y109622D01*
X78298Y109589D01*
X78306Y109562D01*
X78315Y109537D01*
X78320Y109515D01*
X78323Y109502D01*
X78325Y109491D01*
Y109488D01*
X77872Y109425D01*
X77859Y109477D01*
X77842Y109526D01*
X77823Y109570D01*
X77804Y109611D01*
X77788Y109646D01*
X77768Y109679D01*
X77749Y109709D01*
X77730Y109736D01*
X77711Y109758D01*
X77695Y109777D01*
X77681Y109794D01*
X77667Y109807D01*
X77657Y109816D01*
X77648Y109824D01*
X77646Y109829D01*
X77643D01*
X77613Y109851D01*
X77577Y109867D01*
X77501Y109897D01*
X77422Y109919D01*
X77343Y109933D01*
X77307Y109936D01*
X77272Y109941D01*
X77242Y109944D01*
X77214D01*
X77190Y109947D01*
X77160D01*
X77097Y109944D01*
X77037Y109941D01*
X76982Y109933D01*
X76930Y109922D01*
X76881Y109911D01*
X76840Y109897D01*
X76799Y109881D01*
X76764Y109867D01*
X76734Y109854D01*
X76706Y109837D01*
X76685Y109824D01*
X76666Y109813D01*
X76652Y109802D01*
X76641Y109796D01*
X76636Y109791D01*
X76633Y109788D01*
X76608Y109764D01*
X76589Y109739D01*
X76570Y109709D01*
X76556Y109679D01*
X76532Y109611D01*
X76515Y109545D01*
X76507Y109485D01*
X76502Y109458D01*
Y109436D01*
X76499Y109417D01*
Y109403D01*
Y109392D01*
Y109390D01*
Y109376D01*
Y109360D01*
Y109319D01*
X76502Y109300D01*
Y109286D01*
Y109275D01*
Y109269D01*
X76556Y109253D01*
X76614Y109237D01*
X76676Y109220D01*
X76745Y109204D01*
X76881Y109177D01*
X76950Y109166D01*
X77015Y109155D01*
X77078Y109144D01*
X77138Y109136D01*
X77190Y109127D01*
X77236Y109119D01*
X77274Y109117D01*
X77304Y109111D01*
X77315D01*
X77324Y109108D01*
X77329D01*
X77378Y109103D01*
X77425Y109098D01*
X77468Y109089D01*
X77509Y109084D01*
X77547Y109078D01*
X77580Y109073D01*
X77610Y109067D01*
X77637Y109062D01*
X77662Y109056D01*
X77684Y109054D01*
X77700Y109048D01*
X77717Y109046D01*
X77728Y109043D01*
X77736D01*
X77738Y109040D01*
X77741D01*
X77810Y109018D01*
X77872Y108994D01*
X77930Y108969D01*
X77979Y108945D01*
X78020Y108923D01*
X78036Y108912D01*
X78050Y108904D01*
X78061Y108898D01*
X78069Y108893D01*
X78074Y108887D01*
X78077D01*
X78129Y108846D01*
X78175Y108803D01*
X78216Y108759D01*
X78252Y108715D01*
X78279Y108677D01*
X78298Y108647D01*
X78306Y108636D01*
X78309Y108628D01*
X78315Y108623D01*
Y108620D01*
X78345Y108557D01*
X78366Y108494D01*
X78383Y108431D01*
X78394Y108377D01*
X78399Y108328D01*
X78402Y108306D01*
Y108289D01*
X78405Y108273D01*
Y108262D01*
Y108257D01*
Y108254D01*
X78402Y108191D01*
X78394Y108131D01*
X78383Y108076D01*
X78366Y108022D01*
X78350Y107973D01*
X78328Y107926D01*
X78306Y107883D01*
X78285Y107844D01*
X78263Y107809D01*
X78241Y107779D01*
X78219Y107754D01*
X78203Y107732D01*
X78186Y107713D01*
X78175Y107702D01*
X78167Y107694D01*
X78164Y107692D01*
X78115Y107653D01*
X78066Y107621D01*
X78009Y107590D01*
X77954Y107566D01*
X77897Y107544D01*
X77837Y107528D01*
X77782Y107511D01*
X77728Y107500D01*
X77676Y107492D01*
X77627Y107484D01*
X77583Y107479D01*
X77545Y107476D01*
X77515D01*
X77490Y107473D01*
X77471D01*
X77370Y107476D01*
X77277Y107487D01*
X77190Y107500D01*
X77149Y107509D01*
X77113Y107517D01*
X77081Y107525D01*
X77051Y107533D01*
X77023Y107541D01*
X77001Y107547D01*
X76985Y107552D01*
X76971Y107558D01*
X76963Y107561D01*
X76960D01*
X76917Y107580D01*
X76870Y107599D01*
X76783Y107648D01*
X76698Y107700D01*
X76660Y107724D01*
X76622Y107749D01*
X76589Y107773D01*
X76559Y107798D01*
X76532Y107817D01*
X76507Y107836D01*
X76488Y107850D01*
X76474Y107861D01*
X76466Y107869D01*
X76464Y107872D01*
X76453Y107801D01*
X76442Y107738D01*
X76425Y107681D01*
X76409Y107629D01*
X76393Y107590D01*
X76387Y107571D01*
X76379Y107558D01*
X76376Y107547D01*
X76371Y107539D01*
X76368Y107536D01*
Y107533D01*
X75885D01*
X75915Y107593D01*
X75942Y107651D01*
X75961Y107705D01*
X75978Y107754D01*
X75991Y107798D01*
X75994Y107817D01*
X75999Y107831D01*
X76002Y107844D01*
Y107853D01*
X76005Y107858D01*
Y107861D01*
X76008Y107877D01*
X76010Y107899D01*
X76013Y107945D01*
X76019Y108000D01*
X76021Y108060D01*
X76024Y108128D01*
X76027Y108197D01*
X76029Y108336D01*
Y108401D01*
Y108467D01*
X76032Y108524D01*
Y108576D01*
Y108620D01*
Y108636D01*
Y108652D01*
Y108663D01*
Y108672D01*
Y108677D01*
Y108680D01*
Y109297D01*
Y109351D01*
Y109403D01*
X76035Y109450D01*
Y109493D01*
X76038Y109531D01*
X76040Y109567D01*
X76043Y109597D01*
Y109624D01*
X76046Y109649D01*
X76049Y109668D01*
X76051Y109687D01*
X76054Y109701D01*
Y109709D01*
X76057Y109717D01*
Y109723D01*
X76076Y109791D01*
X76098Y109854D01*
X76120Y109906D01*
X76144Y109952D01*
X76166Y109990D01*
X76185Y110018D01*
X76191Y110026D01*
X76196Y110034D01*
X76201Y110037D01*
Y110039D01*
X76245Y110086D01*
X76294Y110124D01*
X76349Y110159D01*
X76401Y110189D01*
X76450Y110214D01*
X76469Y110225D01*
X76488Y110233D01*
X76502Y110239D01*
X76513Y110244D01*
X76521Y110247D01*
X76524D01*
X76565Y110260D01*
X76611Y110274D01*
X76704Y110296D01*
X76799Y110310D01*
X76889Y110320D01*
X76930Y110323D01*
X76969Y110326D01*
X77004Y110329D01*
X77034Y110331D01*
X77091D01*
X77220Y110326D01*
D02*
G37*
G36*
X75227Y110948D02*
Y110271D01*
X75571D01*
Y109911D01*
X75227D01*
Y108333D01*
Y108259D01*
X75224Y108188D01*
X75221Y108128D01*
X75219Y108071D01*
X75213Y108022D01*
X75210Y107975D01*
X75205Y107937D01*
X75200Y107902D01*
X75194Y107872D01*
X75189Y107847D01*
X75186Y107828D01*
X75181Y107812D01*
X75178Y107798D01*
X75175Y107790D01*
X75172Y107787D01*
Y107784D01*
X75148Y107738D01*
X75118Y107697D01*
X75085Y107661D01*
X75052Y107632D01*
X75022Y107610D01*
X74998Y107590D01*
X74981Y107580D01*
X74978Y107577D01*
X74976D01*
X74918Y107550D01*
X74856Y107530D01*
X74790Y107517D01*
X74727Y107509D01*
X74673Y107503D01*
X74648Y107500D01*
X74626Y107498D01*
X74585D01*
X74525Y107500D01*
X74465Y107503D01*
X74405Y107511D01*
X74351Y107519D01*
X74304Y107525D01*
X74282Y107530D01*
X74266Y107533D01*
X74252Y107536D01*
X74241D01*
X74236Y107539D01*
X74233D01*
X74301Y107948D01*
X74345Y107943D01*
X74386Y107940D01*
X74422Y107934D01*
X74449D01*
X74473Y107932D01*
X74503D01*
X74539Y107934D01*
X74572Y107937D01*
X74599Y107943D01*
X74621Y107948D01*
X74640Y107954D01*
X74651Y107959D01*
X74659Y107965D01*
X74662D01*
X74681Y107978D01*
X74697Y107992D01*
X74722Y108022D01*
X74730Y108036D01*
X74735Y108046D01*
X74741Y108052D01*
Y108055D01*
X74744Y108068D01*
X74749Y108082D01*
X74755Y108117D01*
X74757Y108161D01*
X74760Y108202D01*
X74763Y108243D01*
Y108276D01*
Y108289D01*
Y108300D01*
Y108306D01*
Y108308D01*
Y109911D01*
X74301D01*
Y110271D01*
X74763D01*
Y111227D01*
X75227Y110948D01*
D02*
G37*
G36*
X72827Y110326D02*
X72926Y110315D01*
X73018Y110296D01*
X73108Y110271D01*
X73190Y110244D01*
X73264Y110211D01*
X73335Y110176D01*
X73398Y110140D01*
X73455Y110105D01*
X73504Y110069D01*
X73545Y110039D01*
X73581Y110009D01*
X73611Y109985D01*
X73630Y109966D01*
X73641Y109955D01*
X73646Y109949D01*
X73709Y109876D01*
X73764Y109794D01*
X73810Y109709D01*
X73851Y109622D01*
X73886Y109531D01*
X73914Y109441D01*
X73938Y109354D01*
X73957Y109272D01*
X73971Y109190D01*
X73982Y109117D01*
X73990Y109051D01*
X73996Y108994D01*
X73998Y108966D01*
Y108945D01*
Y108925D01*
X74001Y108909D01*
Y108896D01*
Y108887D01*
Y108882D01*
Y108879D01*
X73998Y108756D01*
X73985Y108642D01*
X73968Y108535D01*
X73946Y108434D01*
X73919Y108341D01*
X73889Y108257D01*
X73859Y108180D01*
X73826Y108109D01*
X73794Y108046D01*
X73761Y107995D01*
X73734Y107948D01*
X73706Y107910D01*
X73684Y107880D01*
X73665Y107858D01*
X73654Y107847D01*
X73652Y107842D01*
X73583Y107776D01*
X73510Y107719D01*
X73433Y107670D01*
X73354Y107629D01*
X73275Y107593D01*
X73196Y107563D01*
X73117Y107539D01*
X73043Y107519D01*
X72972Y107503D01*
X72906Y107492D01*
X72849Y107484D01*
X72797Y107479D01*
X72756Y107476D01*
X72740D01*
X72726Y107473D01*
X72699D01*
X72611Y107476D01*
X72527Y107484D01*
X72448Y107495D01*
X72374Y107509D01*
X72306Y107528D01*
X72240Y107547D01*
X72183Y107569D01*
X72128Y107590D01*
X72079Y107610D01*
X72038Y107632D01*
X72000Y107651D01*
X71970Y107670D01*
X71945Y107683D01*
X71929Y107694D01*
X71918Y107702D01*
X71915Y107705D01*
X71861Y107752D01*
X71809Y107801D01*
X71763Y107853D01*
X71722Y107905D01*
X71683Y107959D01*
X71648Y108014D01*
X71618Y108068D01*
X71591Y108117D01*
X71566Y108167D01*
X71547Y108213D01*
X71530Y108254D01*
X71517Y108289D01*
X71509Y108317D01*
X71500Y108338D01*
X71495Y108352D01*
Y108358D01*
X71973Y108420D01*
X71995Y108366D01*
X72016Y108317D01*
X72038Y108270D01*
X72063Y108227D01*
X72087Y108188D01*
X72109Y108153D01*
X72134Y108123D01*
X72156Y108093D01*
X72177Y108068D01*
X72197Y108046D01*
X72213Y108030D01*
X72229Y108014D01*
X72243Y108003D01*
X72251Y107995D01*
X72257Y107992D01*
X72259Y107989D01*
X72295Y107965D01*
X72330Y107945D01*
X72366Y107926D01*
X72404Y107913D01*
X72478Y107888D01*
X72546Y107872D01*
X72576Y107866D01*
X72606Y107863D01*
X72631Y107861D01*
X72653Y107858D01*
X72672Y107855D01*
X72696D01*
X72759Y107858D01*
X72819Y107866D01*
X72876Y107877D01*
X72931Y107894D01*
X72983Y107910D01*
X73029Y107932D01*
X73073Y107951D01*
X73111Y107975D01*
X73147Y107997D01*
X73179Y108019D01*
X73207Y108038D01*
X73229Y108055D01*
X73245Y108071D01*
X73259Y108082D01*
X73267Y108090D01*
X73269Y108093D01*
X73310Y108139D01*
X73346Y108191D01*
X73379Y108246D01*
X73406Y108303D01*
X73431Y108360D01*
X73450Y108418D01*
X73469Y108472D01*
X73482Y108530D01*
X73493Y108581D01*
X73504Y108628D01*
X73510Y108672D01*
X73515Y108710D01*
X73521Y108740D01*
Y108764D01*
X73523Y108778D01*
Y108783D01*
X71481D01*
Y108814D01*
X71479Y108838D01*
Y108857D01*
Y108876D01*
Y108890D01*
Y108898D01*
Y108904D01*
Y108906D01*
X71481Y109029D01*
X71492Y109147D01*
X71511Y109256D01*
X71533Y109357D01*
X71561Y109450D01*
X71588Y109537D01*
X71621Y109616D01*
X71653Y109687D01*
X71686Y109750D01*
X71716Y109804D01*
X71746Y109851D01*
X71773Y109889D01*
X71795Y109919D01*
X71812Y109941D01*
X71825Y109952D01*
X71828Y109957D01*
X71896Y110023D01*
X71967Y110080D01*
X72038Y110132D01*
X72115Y110173D01*
X72188Y110211D01*
X72265Y110241D01*
X72336Y110266D01*
X72407Y110285D01*
X72472Y110301D01*
X72532Y110312D01*
X72584Y110320D01*
X72633Y110326D01*
X72672Y110329D01*
X72699Y110331D01*
X72724D01*
X72827Y110326D01*
D02*
G37*
G36*
X82000Y107533D02*
X80638D01*
X80515Y107536D01*
X80455Y107539D01*
X80400Y107544D01*
X80346Y107547D01*
X80296Y107552D01*
X80250Y107558D01*
X80206Y107566D01*
X80168Y107571D01*
X80133Y107577D01*
X80103Y107582D01*
X80078Y107585D01*
X80059Y107590D01*
X80043Y107593D01*
X80034Y107596D01*
X80032D01*
X79936Y107623D01*
X79849Y107653D01*
X79811Y107670D01*
X79772Y107683D01*
X79740Y107700D01*
X79707Y107716D01*
X79680Y107730D01*
X79655Y107743D01*
X79633Y107754D01*
X79614Y107765D01*
X79600Y107773D01*
X79589Y107779D01*
X79584Y107784D01*
X79581D01*
X79513Y107836D01*
X79448Y107891D01*
X79390Y107948D01*
X79338Y108003D01*
X79297Y108052D01*
X79278Y108074D01*
X79264Y108093D01*
X79254Y108107D01*
X79245Y108120D01*
X79240Y108126D01*
X79237Y108128D01*
X79180Y108216D01*
X79131Y108306D01*
X79084Y108399D01*
X79049Y108486D01*
X79032Y108524D01*
X79019Y108562D01*
X79005Y108595D01*
X78997Y108623D01*
X78989Y108644D01*
X78983Y108663D01*
X78978Y108674D01*
Y108677D01*
X78945Y108805D01*
X78921Y108936D01*
X78901Y109065D01*
X78896Y109127D01*
X78891Y109185D01*
X78885Y109239D01*
X78882Y109289D01*
X78880Y109332D01*
Y109368D01*
X78877Y109400D01*
Y109422D01*
Y109436D01*
Y109441D01*
X78880Y109534D01*
X78882Y109624D01*
X78891Y109712D01*
X78901Y109794D01*
X78912Y109873D01*
X78923Y109947D01*
X78937Y110018D01*
X78951Y110080D01*
X78967Y110138D01*
X78981Y110189D01*
X78992Y110233D01*
X79002Y110271D01*
X79013Y110301D01*
X79022Y110320D01*
X79024Y110334D01*
X79027Y110340D01*
X79057Y110411D01*
X79090Y110482D01*
X79123Y110544D01*
X79158Y110607D01*
X79196Y110664D01*
X79234Y110716D01*
X79270Y110766D01*
X79305Y110812D01*
X79341Y110850D01*
X79371Y110886D01*
X79401Y110916D01*
X79426Y110940D01*
X79445Y110959D01*
X79461Y110976D01*
X79472Y110984D01*
X79475Y110987D01*
X79518Y111022D01*
X79565Y111055D01*
X79658Y111109D01*
X79751Y111159D01*
X79835Y111194D01*
X79876Y111211D01*
X79912Y111221D01*
X79944Y111232D01*
X79972Y111243D01*
X79996Y111249D01*
X80013Y111254D01*
X80023Y111257D01*
X80026D01*
X80073Y111268D01*
X80122Y111276D01*
X80174Y111282D01*
X80228Y111290D01*
X80340Y111298D01*
X80449Y111306D01*
X80501D01*
X80548Y111309D01*
X80591D01*
X80627Y111311D01*
X82000D01*
Y107533D01*
D02*
G37*
G36*
X70782D02*
X70256D01*
Y108060D01*
X70782D01*
Y107533D01*
D02*
G37*
G36*
X61978D02*
X61451D01*
Y108060D01*
X61978D01*
Y107533D01*
D02*
G37*
G36*
X54643D02*
X54116D01*
Y108060D01*
X54643D01*
Y107533D01*
D02*
G37*
G36*
X66955Y111322D02*
X67026Y111317D01*
X67094Y111306D01*
X67160Y111290D01*
X67220Y111273D01*
X67277Y111254D01*
X67329Y111235D01*
X67375Y111216D01*
X67419Y111194D01*
X67455Y111175D01*
X67487Y111156D01*
X67515Y111140D01*
X67536Y111126D01*
X67550Y111115D01*
X67561Y111107D01*
X67564Y111104D01*
X67613Y111060D01*
X67659Y111014D01*
X67703Y110965D01*
X67744Y110913D01*
X67779Y110861D01*
X67812Y110806D01*
X67845Y110755D01*
X67870Y110705D01*
X67894Y110659D01*
X67916Y110615D01*
X67932Y110574D01*
X67949Y110542D01*
X67960Y110512D01*
X67968Y110493D01*
X67971Y110479D01*
X67973Y110473D01*
X67998Y110394D01*
X68017Y110310D01*
X68036Y110222D01*
X68052Y110132D01*
X68077Y109952D01*
X68085Y109865D01*
X68093Y109780D01*
X68099Y109701D01*
X68102Y109627D01*
X68104Y109562D01*
X68107Y109507D01*
Y109482D01*
X68110Y109461D01*
Y109441D01*
Y109425D01*
Y109411D01*
Y109403D01*
Y109398D01*
Y109395D01*
Y109297D01*
X68104Y109201D01*
X68102Y109111D01*
X68093Y109024D01*
X68085Y108939D01*
X68074Y108857D01*
X68063Y108781D01*
X68052Y108707D01*
X68039Y108633D01*
X68022Y108568D01*
X68009Y108502D01*
X67992Y108442D01*
X67976Y108382D01*
X67960Y108328D01*
X67940Y108276D01*
X67924Y108227D01*
X67908Y108183D01*
X67889Y108139D01*
X67872Y108101D01*
X67856Y108063D01*
X67839Y108030D01*
X67826Y108000D01*
X67809Y107973D01*
X67796Y107948D01*
X67785Y107926D01*
X67774Y107910D01*
X67763Y107894D01*
X67755Y107880D01*
X67747Y107872D01*
X67741Y107863D01*
X67738Y107861D01*
Y107858D01*
X67678Y107790D01*
X67613Y107730D01*
X67545Y107678D01*
X67474Y107634D01*
X67400Y107596D01*
X67329Y107566D01*
X67261Y107539D01*
X67193Y107519D01*
X67127Y107503D01*
X67070Y107492D01*
X67015Y107481D01*
X66969Y107476D01*
X66930Y107473D01*
X66903Y107470D01*
X66878D01*
X66802Y107473D01*
X66731Y107481D01*
X66663Y107492D01*
X66597Y107506D01*
X66537Y107522D01*
X66483Y107541D01*
X66431Y107561D01*
X66382Y107582D01*
X66341Y107601D01*
X66303Y107621D01*
X66272Y107640D01*
X66245Y107656D01*
X66223Y107672D01*
X66210Y107683D01*
X66199Y107689D01*
X66196Y107692D01*
X66147Y107735D01*
X66101Y107782D01*
X66057Y107831D01*
X66016Y107883D01*
X65980Y107937D01*
X65948Y107989D01*
X65915Y108041D01*
X65887Y108090D01*
X65866Y108136D01*
X65844Y108180D01*
X65828Y108221D01*
X65811Y108254D01*
X65800Y108284D01*
X65792Y108303D01*
X65789Y108317D01*
X65786Y108322D01*
X65762Y108401D01*
X65740Y108486D01*
X65721Y108573D01*
X65705Y108663D01*
X65680Y108841D01*
X65672Y108928D01*
X65664Y109013D01*
X65658Y109092D01*
X65655Y109163D01*
X65653Y109229D01*
X65650Y109286D01*
Y109310D01*
X65647Y109332D01*
Y109351D01*
Y109365D01*
Y109379D01*
Y109387D01*
Y109392D01*
Y109395D01*
Y109499D01*
X65650Y109594D01*
X65655Y109687D01*
X65661Y109772D01*
X65666Y109851D01*
X65675Y109925D01*
X65683Y109993D01*
X65691Y110053D01*
X65699Y110108D01*
X65707Y110154D01*
X65715Y110195D01*
X65721Y110228D01*
X65727Y110255D01*
X65732Y110271D01*
X65735Y110285D01*
Y110288D01*
X65751Y110348D01*
X65770Y110408D01*
X65786Y110462D01*
X65806Y110514D01*
X65828Y110564D01*
X65847Y110610D01*
X65866Y110654D01*
X65885Y110692D01*
X65901Y110727D01*
X65918Y110757D01*
X65931Y110785D01*
X65945Y110806D01*
X65956Y110823D01*
X65964Y110837D01*
X65967Y110845D01*
X65969Y110847D01*
X66027Y110929D01*
X66090Y111000D01*
X66152Y111063D01*
X66212Y111112D01*
X66240Y111134D01*
X66267Y111150D01*
X66289Y111167D01*
X66308Y111180D01*
X66324Y111189D01*
X66335Y111197D01*
X66343Y111202D01*
X66346D01*
X66390Y111224D01*
X66434Y111243D01*
X66526Y111273D01*
X66616Y111295D01*
X66698Y111309D01*
X66737Y111314D01*
X66769Y111320D01*
X66802Y111322D01*
X66827D01*
X66848Y111325D01*
X66878D01*
X66955Y111322D01*
D02*
G37*
G36*
X59619D02*
X59690Y111317D01*
X59759Y111306D01*
X59824Y111290D01*
X59884Y111273D01*
X59942Y111254D01*
X59993Y111235D01*
X60040Y111216D01*
X60084Y111194D01*
X60119Y111175D01*
X60152Y111156D01*
X60179Y111140D01*
X60201Y111126D01*
X60215Y111115D01*
X60225Y111107D01*
X60228Y111104D01*
X60277Y111060D01*
X60324Y111014D01*
X60368Y110965D01*
X60408Y110913D01*
X60444Y110861D01*
X60477Y110806D01*
X60509Y110755D01*
X60534Y110705D01*
X60559Y110659D01*
X60580Y110615D01*
X60597Y110574D01*
X60613Y110542D01*
X60624Y110512D01*
X60632Y110493D01*
X60635Y110479D01*
X60638Y110473D01*
X60662Y110394D01*
X60681Y110310D01*
X60701Y110222D01*
X60717Y110132D01*
X60742Y109952D01*
X60750Y109865D01*
X60758Y109780D01*
X60763Y109701D01*
X60766Y109627D01*
X60769Y109562D01*
X60772Y109507D01*
Y109482D01*
X60774Y109461D01*
Y109441D01*
Y109425D01*
Y109411D01*
Y109403D01*
Y109398D01*
Y109395D01*
Y109297D01*
X60769Y109201D01*
X60766Y109111D01*
X60758Y109024D01*
X60750Y108939D01*
X60739Y108857D01*
X60728Y108781D01*
X60717Y108707D01*
X60703Y108633D01*
X60687Y108568D01*
X60673Y108502D01*
X60657Y108442D01*
X60641Y108382D01*
X60624Y108328D01*
X60605Y108276D01*
X60589Y108227D01*
X60572Y108183D01*
X60553Y108139D01*
X60537Y108101D01*
X60520Y108063D01*
X60504Y108030D01*
X60490Y108000D01*
X60474Y107973D01*
X60460Y107948D01*
X60449Y107926D01*
X60439Y107910D01*
X60427Y107894D01*
X60419Y107880D01*
X60411Y107872D01*
X60406Y107863D01*
X60403Y107861D01*
Y107858D01*
X60343Y107790D01*
X60277Y107730D01*
X60209Y107678D01*
X60138Y107634D01*
X60064Y107596D01*
X59993Y107566D01*
X59925Y107539D01*
X59857Y107519D01*
X59791Y107503D01*
X59734Y107492D01*
X59680Y107481D01*
X59633Y107476D01*
X59595Y107473D01*
X59568Y107470D01*
X59543D01*
X59467Y107473D01*
X59396Y107481D01*
X59327Y107492D01*
X59262Y107506D01*
X59202Y107522D01*
X59147Y107541D01*
X59095Y107561D01*
X59046Y107582D01*
X59005Y107601D01*
X58967Y107621D01*
X58937Y107640D01*
X58910Y107656D01*
X58888Y107672D01*
X58874Y107683D01*
X58863Y107689D01*
X58860Y107692D01*
X58811Y107735D01*
X58765Y107782D01*
X58721Y107831D01*
X58680Y107883D01*
X58645Y107937D01*
X58612Y107989D01*
X58579Y108041D01*
X58552Y108090D01*
X58530Y108136D01*
X58508Y108180D01*
X58492Y108221D01*
X58476Y108254D01*
X58465Y108284D01*
X58456Y108303D01*
X58454Y108317D01*
X58451Y108322D01*
X58426Y108401D01*
X58405Y108486D01*
X58385Y108573D01*
X58369Y108663D01*
X58345Y108841D01*
X58336Y108928D01*
X58328Y109013D01*
X58323Y109092D01*
X58320Y109163D01*
X58317Y109229D01*
X58315Y109286D01*
Y109310D01*
X58312Y109332D01*
Y109351D01*
Y109365D01*
Y109379D01*
Y109387D01*
Y109392D01*
Y109395D01*
Y109499D01*
X58315Y109594D01*
X58320Y109687D01*
X58325Y109772D01*
X58331Y109851D01*
X58339Y109925D01*
X58347Y109993D01*
X58355Y110053D01*
X58364Y110108D01*
X58372Y110154D01*
X58380Y110195D01*
X58385Y110228D01*
X58391Y110255D01*
X58396Y110271D01*
X58399Y110285D01*
Y110288D01*
X58416Y110348D01*
X58435Y110408D01*
X58451Y110462D01*
X58470Y110514D01*
X58492Y110564D01*
X58511Y110610D01*
X58530Y110654D01*
X58549Y110692D01*
X58566Y110727D01*
X58582Y110757D01*
X58596Y110785D01*
X58609Y110806D01*
X58620Y110823D01*
X58628Y110837D01*
X58631Y110845D01*
X58634Y110847D01*
X58691Y110929D01*
X58754Y111000D01*
X58817Y111063D01*
X58877Y111112D01*
X58904Y111134D01*
X58931Y111150D01*
X58953Y111167D01*
X58973Y111180D01*
X58989Y111189D01*
X59000Y111197D01*
X59008Y111202D01*
X59011D01*
X59054Y111224D01*
X59098Y111243D01*
X59191Y111273D01*
X59281Y111295D01*
X59363Y111309D01*
X59401Y111314D01*
X59434Y111320D01*
X59467Y111322D01*
X59491D01*
X59513Y111325D01*
X59543D01*
X59619Y111322D01*
D02*
G37*
G36*
X56698D02*
X56783Y111314D01*
X56865Y111301D01*
X56939Y111282D01*
X57010Y111260D01*
X57075Y111235D01*
X57135Y111211D01*
X57187Y111186D01*
X57236Y111159D01*
X57277Y111134D01*
X57313Y111109D01*
X57343Y111088D01*
X57367Y111071D01*
X57384Y111055D01*
X57394Y111047D01*
X57397Y111044D01*
X57449Y110989D01*
X57495Y110935D01*
X57534Y110875D01*
X57566Y110817D01*
X57596Y110757D01*
X57621Y110700D01*
X57640Y110645D01*
X57654Y110591D01*
X57667Y110542D01*
X57676Y110495D01*
X57684Y110454D01*
X57687Y110419D01*
X57689Y110391D01*
X57692Y110370D01*
Y110356D01*
Y110351D01*
X57689Y110301D01*
X57687Y110252D01*
X57670Y110162D01*
X57659Y110121D01*
X57648Y110083D01*
X57635Y110047D01*
X57621Y110015D01*
X57610Y109985D01*
X57596Y109957D01*
X57586Y109936D01*
X57575Y109916D01*
X57566Y109900D01*
X57558Y109889D01*
X57556Y109884D01*
X57553Y109881D01*
X57525Y109845D01*
X57495Y109813D01*
X57427Y109753D01*
X57356Y109701D01*
X57285Y109657D01*
X57253Y109641D01*
X57222Y109624D01*
X57195Y109611D01*
X57171Y109600D01*
X57152Y109592D01*
X57138Y109586D01*
X57127Y109581D01*
X57124D01*
X57187Y109562D01*
X57247Y109540D01*
X57302Y109515D01*
X57354Y109491D01*
X57403Y109463D01*
X57446Y109433D01*
X57485Y109406D01*
X57523Y109379D01*
X57553Y109351D01*
X57580Y109327D01*
X57605Y109302D01*
X57624Y109283D01*
X57640Y109267D01*
X57651Y109253D01*
X57657Y109245D01*
X57659Y109242D01*
X57692Y109193D01*
X57719Y109144D01*
X57744Y109092D01*
X57766Y109040D01*
X57785Y108988D01*
X57799Y108939D01*
X57812Y108887D01*
X57820Y108841D01*
X57829Y108797D01*
X57834Y108756D01*
X57840Y108718D01*
X57842Y108688D01*
X57845Y108661D01*
Y108642D01*
Y108631D01*
Y108625D01*
X57842Y108535D01*
X57831Y108448D01*
X57812Y108366D01*
X57790Y108287D01*
X57766Y108216D01*
X57736Y108147D01*
X57706Y108085D01*
X57673Y108027D01*
X57643Y107975D01*
X57613Y107932D01*
X57583Y107894D01*
X57556Y107861D01*
X57537Y107834D01*
X57517Y107817D01*
X57506Y107803D01*
X57504Y107801D01*
X57436Y107743D01*
X57367Y107692D01*
X57293Y107648D01*
X57217Y107610D01*
X57141Y107577D01*
X57067Y107552D01*
X56993Y107530D01*
X56922Y107511D01*
X56857Y107498D01*
X56794Y107487D01*
X56739Y107481D01*
X56693Y107476D01*
X56655Y107473D01*
X56625Y107470D01*
X56600D01*
X56499Y107473D01*
X56401Y107484D01*
X56311Y107500D01*
X56223Y107522D01*
X56144Y107547D01*
X56071Y107574D01*
X56002Y107604D01*
X55939Y107634D01*
X55885Y107664D01*
X55838Y107694D01*
X55795Y107722D01*
X55762Y107746D01*
X55735Y107768D01*
X55716Y107784D01*
X55702Y107795D01*
X55699Y107798D01*
X55639Y107861D01*
X55585Y107929D01*
X55541Y107995D01*
X55500Y108065D01*
X55467Y108134D01*
X55440Y108199D01*
X55415Y108265D01*
X55399Y108328D01*
X55385Y108388D01*
X55374Y108442D01*
X55366Y108489D01*
X55361Y108530D01*
X55358Y108565D01*
X55355Y108590D01*
Y108606D01*
Y108612D01*
X55358Y108677D01*
X55363Y108740D01*
X55372Y108797D01*
X55383Y108854D01*
X55399Y108906D01*
X55413Y108958D01*
X55429Y109002D01*
X55445Y109046D01*
X55464Y109084D01*
X55481Y109117D01*
X55494Y109147D01*
X55508Y109171D01*
X55522Y109190D01*
X55530Y109204D01*
X55535Y109212D01*
X55538Y109215D01*
X55574Y109261D01*
X55615Y109302D01*
X55655Y109343D01*
X55699Y109379D01*
X55743Y109411D01*
X55787Y109441D01*
X55830Y109469D01*
X55874Y109493D01*
X55912Y109515D01*
X55950Y109531D01*
X55983Y109548D01*
X56013Y109559D01*
X56038Y109570D01*
X56054Y109575D01*
X56068Y109581D01*
X56071D01*
X56019Y109602D01*
X55972Y109624D01*
X55928Y109649D01*
X55885Y109674D01*
X55849Y109698D01*
X55814Y109723D01*
X55784Y109747D01*
X55754Y109772D01*
X55729Y109794D01*
X55710Y109816D01*
X55691Y109832D01*
X55677Y109848D01*
X55664Y109862D01*
X55655Y109873D01*
X55653Y109878D01*
X55650Y109881D01*
X55625Y109919D01*
X55604Y109957D01*
X55585Y109996D01*
X55568Y110034D01*
X55544Y110110D01*
X55527Y110181D01*
X55522Y110214D01*
X55519Y110244D01*
X55516Y110271D01*
X55514Y110293D01*
X55511Y110312D01*
Y110326D01*
Y110334D01*
Y110337D01*
X55514Y110413D01*
X55524Y110484D01*
X55538Y110555D01*
X55557Y110621D01*
X55582Y110681D01*
X55606Y110738D01*
X55634Y110793D01*
X55661Y110842D01*
X55691Y110886D01*
X55718Y110924D01*
X55743Y110957D01*
X55767Y110984D01*
X55787Y111006D01*
X55800Y111022D01*
X55811Y111033D01*
X55814Y111036D01*
X55871Y111088D01*
X55934Y111131D01*
X55999Y111170D01*
X56065Y111202D01*
X56130Y111232D01*
X56196Y111254D01*
X56262Y111273D01*
X56324Y111290D01*
X56382Y111301D01*
X56436Y111309D01*
X56485Y111317D01*
X56526Y111320D01*
X56562Y111322D01*
X56586Y111325D01*
X56608D01*
X56698Y111322D01*
D02*
G37*
G36*
X49349Y111322D02*
X49420Y111317D01*
X49488Y111306D01*
X49554Y111290D01*
X49614Y111273D01*
X49671Y111254D01*
X49723Y111235D01*
X49770Y111216D01*
X49813Y111194D01*
X49849Y111175D01*
X49882Y111156D01*
X49909Y111140D01*
X49931Y111126D01*
X49944Y111115D01*
X49955Y111107D01*
X49958Y111104D01*
X50007Y111060D01*
X50054Y111014D01*
X50097Y110965D01*
X50138Y110913D01*
X50174Y110861D01*
X50206Y110806D01*
X50239Y110755D01*
X50264Y110705D01*
X50288Y110659D01*
X50310Y110615D01*
X50327Y110574D01*
X50343Y110542D01*
X50354Y110512D01*
X50362Y110493D01*
X50365Y110479D01*
X50367Y110473D01*
X50392Y110394D01*
X50411Y110310D01*
X50430Y110222D01*
X50447Y110132D01*
X50471Y109952D01*
X50479Y109865D01*
X50488Y109780D01*
X50493Y109701D01*
X50496Y109627D01*
X50498Y109562D01*
X50501Y109507D01*
Y109482D01*
X50504Y109460D01*
Y109441D01*
Y109425D01*
Y109411D01*
Y109403D01*
Y109398D01*
Y109395D01*
Y109297D01*
X50498Y109201D01*
X50496Y109111D01*
X50488Y109024D01*
X50479Y108939D01*
X50468Y108857D01*
X50458Y108781D01*
X50447Y108707D01*
X50433Y108633D01*
X50417Y108568D01*
X50403Y108502D01*
X50387Y108442D01*
X50370Y108382D01*
X50354Y108328D01*
X50335Y108276D01*
X50318Y108227D01*
X50302Y108183D01*
X50283Y108139D01*
X50266Y108101D01*
X50250Y108063D01*
X50234Y108030D01*
X50220Y108000D01*
X50204Y107973D01*
X50190Y107948D01*
X50179Y107926D01*
X50168Y107910D01*
X50157Y107894D01*
X50149Y107880D01*
X50141Y107872D01*
X50135Y107863D01*
X50133Y107861D01*
Y107858D01*
X50073Y107790D01*
X50007Y107730D01*
X49939Y107678D01*
X49868Y107634D01*
X49794Y107596D01*
X49723Y107566D01*
X49655Y107539D01*
X49587Y107519D01*
X49521Y107503D01*
X49464Y107492D01*
X49409Y107481D01*
X49363Y107476D01*
X49325Y107473D01*
X49297Y107470D01*
X49273D01*
X49196Y107473D01*
X49125Y107481D01*
X49057Y107492D01*
X48992Y107506D01*
X48932Y107522D01*
X48877Y107541D01*
X48825Y107561D01*
X48776Y107582D01*
X48735Y107601D01*
X48697Y107621D01*
X48667Y107640D01*
X48639Y107656D01*
X48618Y107672D01*
X48604Y107683D01*
X48593Y107689D01*
X48590Y107692D01*
X48541Y107735D01*
X48495Y107782D01*
X48451Y107831D01*
X48410Y107883D01*
X48375Y107937D01*
X48342Y107989D01*
X48309Y108041D01*
X48282Y108090D01*
X48260Y108136D01*
X48238Y108180D01*
X48222Y108221D01*
X48205Y108254D01*
X48194Y108284D01*
X48186Y108303D01*
X48184Y108317D01*
X48181Y108322D01*
X48156Y108401D01*
X48134Y108486D01*
X48115Y108573D01*
X48099Y108663D01*
X48074Y108841D01*
X48066Y108928D01*
X48058Y109013D01*
X48052Y109092D01*
X48050Y109163D01*
X48047Y109229D01*
X48044Y109286D01*
Y109310D01*
X48041Y109332D01*
Y109351D01*
Y109365D01*
Y109379D01*
Y109387D01*
Y109392D01*
Y109395D01*
Y109499D01*
X48044Y109594D01*
X48050Y109687D01*
X48055Y109772D01*
X48061Y109851D01*
X48069Y109925D01*
X48077Y109993D01*
X48085Y110053D01*
X48093Y110108D01*
X48102Y110154D01*
X48110Y110195D01*
X48115Y110228D01*
X48121Y110255D01*
X48126Y110271D01*
X48129Y110285D01*
Y110288D01*
X48145Y110348D01*
X48164Y110408D01*
X48181Y110462D01*
X48200Y110514D01*
X48222Y110564D01*
X48241Y110610D01*
X48260Y110654D01*
X48279Y110692D01*
X48295Y110727D01*
X48312Y110757D01*
X48325Y110785D01*
X48339Y110806D01*
X48350Y110823D01*
X48358Y110837D01*
X48361Y110845D01*
X48364Y110847D01*
X48421Y110929D01*
X48484Y111000D01*
X48547Y111063D01*
X48607Y111112D01*
X48634Y111134D01*
X48661Y111150D01*
X48683Y111167D01*
X48702Y111180D01*
X48719Y111189D01*
X48730Y111197D01*
X48738Y111202D01*
X48740D01*
X48784Y111224D01*
X48828Y111243D01*
X48921Y111273D01*
X49011Y111295D01*
X49093Y111309D01*
X49131Y111314D01*
X49164Y111320D01*
X49196Y111322D01*
X49221D01*
X49243Y111325D01*
X49273D01*
X49349Y111322D01*
D02*
G37*
G36*
X43480D02*
X43551Y111317D01*
X43619Y111306D01*
X43684Y111290D01*
X43745Y111273D01*
X43802Y111254D01*
X43854Y111235D01*
X43900Y111216D01*
X43944Y111194D01*
X43979Y111175D01*
X44012Y111156D01*
X44039Y111140D01*
X44061Y111126D01*
X44075Y111115D01*
X44086Y111107D01*
X44089Y111104D01*
X44138Y111060D01*
X44184Y111014D01*
X44228Y110965D01*
X44269Y110913D01*
X44304Y110861D01*
X44337Y110806D01*
X44370Y110755D01*
X44394Y110705D01*
X44419Y110659D01*
X44441Y110615D01*
X44457Y110574D01*
X44473Y110542D01*
X44484Y110512D01*
X44493Y110493D01*
X44495Y110479D01*
X44498Y110473D01*
X44523Y110394D01*
X44542Y110310D01*
X44561Y110222D01*
X44577Y110132D01*
X44602Y109952D01*
X44610Y109865D01*
X44618Y109780D01*
X44624Y109701D01*
X44626Y109627D01*
X44629Y109562D01*
X44632Y109507D01*
Y109482D01*
X44635Y109460D01*
Y109441D01*
Y109425D01*
Y109411D01*
Y109403D01*
Y109398D01*
Y109395D01*
Y109297D01*
X44629Y109201D01*
X44626Y109111D01*
X44618Y109024D01*
X44610Y108939D01*
X44599Y108857D01*
X44588Y108781D01*
X44577Y108707D01*
X44563Y108633D01*
X44547Y108568D01*
X44534Y108502D01*
X44517Y108442D01*
X44501Y108382D01*
X44484Y108328D01*
X44465Y108276D01*
X44449Y108227D01*
X44433Y108183D01*
X44413Y108139D01*
X44397Y108101D01*
X44381Y108063D01*
X44364Y108030D01*
X44351Y108000D01*
X44334Y107973D01*
X44320Y107948D01*
X44310Y107926D01*
X44299Y107910D01*
X44288Y107894D01*
X44280Y107880D01*
X44271Y107872D01*
X44266Y107863D01*
X44263Y107861D01*
Y107858D01*
X44203Y107790D01*
X44138Y107730D01*
X44069Y107678D01*
X43998Y107634D01*
X43925Y107596D01*
X43854Y107566D01*
X43786Y107539D01*
X43717Y107519D01*
X43652Y107503D01*
X43594Y107492D01*
X43540Y107481D01*
X43493Y107476D01*
X43455Y107473D01*
X43428Y107470D01*
X43403D01*
X43327Y107473D01*
X43256Y107481D01*
X43188Y107492D01*
X43122Y107506D01*
X43062Y107522D01*
X43007Y107541D01*
X42955Y107561D01*
X42906Y107582D01*
X42865Y107601D01*
X42827Y107621D01*
X42797Y107640D01*
X42770Y107656D01*
X42748Y107672D01*
X42734Y107683D01*
X42724Y107689D01*
X42721Y107692D01*
X42672Y107735D01*
X42625Y107782D01*
X42581Y107831D01*
X42541Y107883D01*
X42505Y107937D01*
X42472Y107989D01*
X42440Y108041D01*
X42412Y108090D01*
X42390Y108136D01*
X42369Y108180D01*
X42352Y108221D01*
X42336Y108254D01*
X42325Y108284D01*
X42317Y108303D01*
X42314Y108317D01*
X42311Y108322D01*
X42287Y108401D01*
X42265Y108486D01*
X42246Y108573D01*
X42229Y108663D01*
X42205Y108841D01*
X42197Y108928D01*
X42188Y109013D01*
X42183Y109092D01*
X42180Y109163D01*
X42178Y109229D01*
X42175Y109286D01*
Y109310D01*
X42172Y109332D01*
Y109351D01*
Y109365D01*
Y109379D01*
Y109387D01*
Y109392D01*
Y109395D01*
Y109499D01*
X42175Y109594D01*
X42180Y109687D01*
X42186Y109772D01*
X42191Y109851D01*
X42199Y109925D01*
X42208Y109993D01*
X42216Y110053D01*
X42224Y110108D01*
X42232Y110154D01*
X42240Y110195D01*
X42246Y110228D01*
X42251Y110255D01*
X42257Y110271D01*
X42259Y110285D01*
Y110288D01*
X42276Y110348D01*
X42295Y110408D01*
X42311Y110462D01*
X42330Y110514D01*
X42352Y110564D01*
X42371Y110610D01*
X42390Y110654D01*
X42410Y110692D01*
X42426Y110727D01*
X42442Y110757D01*
X42456Y110785D01*
X42470Y110806D01*
X42480Y110823D01*
X42489Y110837D01*
X42491Y110845D01*
X42494Y110847D01*
X42551Y110929D01*
X42614Y111000D01*
X42677Y111063D01*
X42737Y111112D01*
X42764Y111134D01*
X42792Y111150D01*
X42814Y111167D01*
X42833Y111180D01*
X42849Y111189D01*
X42860Y111197D01*
X42868Y111202D01*
X42871D01*
X42915Y111224D01*
X42958Y111243D01*
X43051Y111273D01*
X43141Y111295D01*
X43223Y111309D01*
X43261Y111314D01*
X43294Y111320D01*
X43327Y111322D01*
X43351D01*
X43373Y111325D01*
X43403D01*
X43480Y111322D01*
D02*
G37*
%LPC*%
G36*
X58632Y83741D02*
X54368D01*
Y83679D01*
Y83618D01*
Y83556D01*
Y83494D01*
Y83432D01*
Y83370D01*
Y83309D01*
Y83247D01*
Y83185D01*
Y83123D01*
Y83061D01*
Y83000D01*
Y82938D01*
Y82876D01*
Y82814D01*
Y82752D01*
Y82691D01*
Y82629D01*
Y82567D01*
Y82505D01*
Y82443D01*
Y82382D01*
Y82320D01*
Y82258D01*
Y82196D01*
Y82134D01*
Y82073D01*
Y82011D01*
Y81949D01*
Y81887D01*
Y81826D01*
Y81764D01*
Y81702D01*
Y81640D01*
Y81578D01*
Y81516D01*
Y81455D01*
Y81393D01*
Y81331D01*
Y81269D01*
Y81208D01*
Y81146D01*
Y81084D01*
Y81022D01*
Y80960D01*
Y80899D01*
Y80837D01*
Y80775D01*
Y80713D01*
Y80651D01*
Y80590D01*
Y80528D01*
Y80466D01*
Y80404D01*
Y80343D01*
Y80281D01*
Y80219D01*
Y80157D01*
Y80095D01*
Y80033D01*
Y79972D01*
Y79910D01*
Y79848D01*
Y79786D01*
Y79725D01*
Y79663D01*
Y79601D01*
Y79539D01*
Y79477D01*
Y79416D01*
Y79354D01*
Y79292D01*
Y79230D01*
Y79168D01*
Y79107D01*
Y79045D01*
Y78983D01*
Y78921D01*
Y78859D01*
Y78798D01*
Y78736D01*
Y78674D01*
Y78612D01*
Y78550D01*
Y78489D01*
Y78427D01*
Y78365D01*
Y78303D01*
Y78241D01*
Y78180D01*
Y78118D01*
Y78056D01*
Y77994D01*
Y77933D01*
Y77871D01*
Y77809D01*
Y77747D01*
Y77685D01*
Y77624D01*
Y77562D01*
Y77500D01*
X58632D01*
Y77562D01*
Y77624D01*
Y77685D01*
Y77747D01*
Y77809D01*
Y77871D01*
Y77933D01*
Y77994D01*
Y78056D01*
Y78118D01*
Y78180D01*
Y78241D01*
Y78303D01*
Y78365D01*
Y78427D01*
Y78489D01*
Y78550D01*
Y78612D01*
Y78674D01*
Y78736D01*
Y78798D01*
Y78859D01*
Y78921D01*
Y78983D01*
Y79045D01*
Y79107D01*
Y79168D01*
Y79230D01*
Y79292D01*
Y79354D01*
Y79416D01*
Y79477D01*
Y79539D01*
Y79601D01*
Y79663D01*
Y79725D01*
Y79786D01*
Y79848D01*
Y79910D01*
Y79972D01*
Y80033D01*
Y80095D01*
Y80157D01*
Y80219D01*
Y80281D01*
Y80343D01*
Y80404D01*
Y80466D01*
Y80528D01*
Y80590D01*
Y80651D01*
Y80713D01*
Y80775D01*
Y80837D01*
Y80899D01*
Y80960D01*
Y81022D01*
Y81084D01*
Y81146D01*
Y81208D01*
Y81269D01*
Y81331D01*
Y81393D01*
Y81455D01*
Y81516D01*
Y81578D01*
Y81640D01*
Y81702D01*
Y81764D01*
Y81826D01*
Y81887D01*
Y81949D01*
Y82011D01*
Y82073D01*
Y82134D01*
Y82196D01*
Y82258D01*
Y82320D01*
Y82382D01*
Y82443D01*
Y82505D01*
Y82567D01*
Y82629D01*
Y82691D01*
Y82752D01*
Y82814D01*
Y82876D01*
Y82938D01*
Y83000D01*
Y83061D01*
Y83123D01*
Y83185D01*
Y83247D01*
Y83309D01*
Y83370D01*
Y83432D01*
Y83494D01*
Y83556D01*
Y83618D01*
Y83679D01*
Y83741D01*
D02*
G37*
G36*
X36263Y99004D02*
X36139D01*
Y98942D01*
X35707D01*
Y98880D01*
X35521D01*
Y98819D01*
X35398D01*
Y98757D01*
X35274D01*
Y98695D01*
X35151D01*
Y98633D01*
X35089D01*
Y98571D01*
X35027D01*
Y98510D01*
X34965D01*
Y98448D01*
X34903D01*
Y98386D01*
X34842D01*
Y98324D01*
Y98262D01*
X34780D01*
Y98201D01*
Y98139D01*
X34718D01*
Y98077D01*
Y98015D01*
Y97953D01*
X34656D01*
Y97892D01*
Y97830D01*
Y97768D01*
Y97706D01*
Y97645D01*
Y97583D01*
Y97521D01*
Y97459D01*
Y97397D01*
X34718D01*
Y97335D01*
Y97274D01*
Y97212D01*
X34780D01*
Y97150D01*
Y97088D01*
X34842D01*
Y97027D01*
X34903D01*
Y96965D01*
Y96903D01*
X34965D01*
Y96841D01*
X35027D01*
Y96779D01*
X35089D01*
Y96718D01*
X35212D01*
Y96656D01*
X35274D01*
Y96594D01*
X35398D01*
Y96532D01*
X35521D01*
Y96470D01*
X35707D01*
Y96409D01*
X36016D01*
Y96347D01*
X36386D01*
Y96409D01*
X36757D01*
Y96470D01*
X36942D01*
Y96532D01*
X37066D01*
Y96594D01*
X37128D01*
Y96656D01*
X37251D01*
Y96718D01*
X37313D01*
Y96779D01*
X37375D01*
Y96841D01*
X37437D01*
Y96903D01*
X37499D01*
Y96965D01*
X37560D01*
Y97027D01*
X37622D01*
Y97088D01*
Y97150D01*
X37684D01*
Y97212D01*
Y97274D01*
X37746D01*
Y97335D01*
Y97397D01*
Y97459D01*
Y97521D01*
Y97583D01*
X37808D01*
Y97645D01*
Y97706D01*
Y97768D01*
X37746D01*
Y97830D01*
Y97892D01*
Y97953D01*
Y98015D01*
Y98077D01*
X37684D01*
Y98139D01*
Y98201D01*
X37622D01*
Y98262D01*
Y98324D01*
X37560D01*
Y98386D01*
X37499D01*
Y98448D01*
X37437D01*
Y98510D01*
X37375D01*
Y98571D01*
X37313D01*
Y98633D01*
X37251D01*
Y98695D01*
X37128D01*
Y98757D01*
X37066D01*
Y98819D01*
X36881D01*
Y98880D01*
X36757D01*
Y98942D01*
X36263D01*
Y99004D01*
D02*
G37*
G36*
X36325Y95544D02*
X36201D01*
Y95482D01*
X36139D01*
Y95420D01*
X36077D01*
Y95358D01*
X36016D01*
Y95296D01*
X35954D01*
Y95235D01*
Y95173D01*
X35892D01*
Y95111D01*
Y95049D01*
X35830D01*
Y94987D01*
X35768D01*
Y94926D01*
Y94864D01*
X35707D01*
Y94802D01*
Y94740D01*
X35645D01*
Y94678D01*
Y94617D01*
X35583D01*
Y94555D01*
X35521D01*
Y94493D01*
Y94431D01*
X35460D01*
Y94370D01*
Y94308D01*
X35398D01*
Y94246D01*
Y94184D01*
Y94122D01*
X35336D01*
Y94060D01*
Y93999D01*
X35274D01*
Y93937D01*
Y93875D01*
Y93813D01*
Y93752D01*
X35212D01*
Y93690D01*
Y93628D01*
X35151D01*
Y93566D01*
Y93504D01*
Y93443D01*
X35089D01*
Y93381D01*
Y93319D01*
Y93257D01*
X35027D01*
Y93195D01*
Y93134D01*
Y93072D01*
X34965D01*
Y93010D01*
Y92948D01*
X34903D01*
Y92887D01*
Y92825D01*
Y92763D01*
X34842D01*
Y92701D01*
Y92639D01*
Y92577D01*
X34780D01*
Y92516D01*
Y92454D01*
Y92392D01*
Y92330D01*
X34718D01*
Y92269D01*
Y92207D01*
Y92145D01*
X34656D01*
Y92083D01*
Y92021D01*
Y91960D01*
X34594D01*
Y91898D01*
Y91836D01*
Y91774D01*
X34533D01*
Y91712D01*
Y91651D01*
Y91589D01*
X34471D01*
Y91527D01*
Y91465D01*
X34409D01*
Y91403D01*
Y91342D01*
Y91280D01*
X34347D01*
Y91218D01*
Y91156D01*
Y91094D01*
X34285D01*
Y91033D01*
Y90971D01*
Y90909D01*
X34224D01*
Y90847D01*
Y90785D01*
Y90724D01*
X34162D01*
Y90662D01*
Y90600D01*
Y90538D01*
Y90477D01*
X34224D01*
Y90415D01*
X34285D01*
Y90353D01*
X34347D01*
Y90291D01*
X34471D01*
Y90229D01*
X34533D01*
Y90168D01*
X34594D01*
Y90106D01*
X34718D01*
Y90044D01*
X34780D01*
Y89982D01*
X34842D01*
Y89920D01*
X34965D01*
Y89859D01*
X35027D01*
Y89797D01*
X35089D01*
Y89735D01*
X35212D01*
Y89673D01*
X35274D01*
Y89611D01*
X35336D01*
Y89550D01*
X35398D01*
Y89488D01*
X35521D01*
Y89426D01*
X35583D01*
Y89364D01*
X35645D01*
Y89302D01*
X35768D01*
Y89241D01*
X35830D01*
Y89179D01*
X35892D01*
Y89117D01*
X35954D01*
Y89055D01*
X36077D01*
Y88994D01*
X36139D01*
Y88932D01*
X36386D01*
Y88994D01*
X36510D01*
Y89055D01*
X36572D01*
Y89117D01*
X36634D01*
Y89179D01*
X36695D01*
Y89241D01*
X36819D01*
Y89302D01*
X36881D01*
Y89364D01*
X36942D01*
Y89426D01*
X37004D01*
Y89488D01*
X37128D01*
Y89550D01*
X37190D01*
Y89611D01*
X37251D01*
Y89673D01*
X37375D01*
Y89735D01*
X37437D01*
Y89797D01*
X37499D01*
Y89859D01*
X37560D01*
Y89920D01*
X37622D01*
Y89982D01*
X37746D01*
Y90044D01*
X37808D01*
Y90106D01*
X37869D01*
Y90168D01*
X37931D01*
Y90229D01*
X38055D01*
Y90291D01*
X38117D01*
Y90353D01*
X38178D01*
Y90415D01*
X38240D01*
Y90477D01*
X38302D01*
Y90538D01*
X38364D01*
Y90600D01*
Y90662D01*
X38302D01*
Y90724D01*
Y90785D01*
Y90847D01*
Y90909D01*
X38240D01*
Y90971D01*
Y91033D01*
X38178D01*
Y91094D01*
Y91156D01*
Y91218D01*
X38117D01*
Y91280D01*
Y91342D01*
Y91403D01*
Y91465D01*
X38055D01*
Y91527D01*
Y91589D01*
Y91651D01*
X37993D01*
Y91712D01*
Y91774D01*
Y91836D01*
X37931D01*
Y91898D01*
Y91960D01*
Y92021D01*
X37869D01*
Y92083D01*
Y92145D01*
Y92207D01*
X37808D01*
Y92269D01*
Y92330D01*
Y92392D01*
X37746D01*
Y92454D01*
Y92516D01*
Y92577D01*
X37684D01*
Y92639D01*
Y92701D01*
X37622D01*
Y92763D01*
Y92825D01*
Y92887D01*
Y92948D01*
Y93010D01*
X37560D01*
Y93072D01*
Y93134D01*
X37499D01*
Y93195D01*
Y93257D01*
Y93319D01*
X37437D01*
Y93381D01*
Y93443D01*
Y93504D01*
X37375D01*
Y93566D01*
Y93628D01*
X37313D01*
Y93690D01*
Y93752D01*
Y93813D01*
X37251D01*
Y93875D01*
Y93937D01*
Y93999D01*
X37190D01*
Y94060D01*
Y94122D01*
X37128D01*
Y94184D01*
Y94246D01*
X37066D01*
Y94308D01*
Y94370D01*
X37004D01*
Y94431D01*
Y94493D01*
Y94555D01*
X36942D01*
Y94617D01*
Y94678D01*
X36881D01*
Y94740D01*
Y94802D01*
X36819D01*
Y94864D01*
Y94926D01*
X36757D01*
Y94987D01*
X36695D01*
Y95049D01*
X36634D01*
Y95111D01*
Y95173D01*
X36572D01*
Y95235D01*
Y95296D01*
X36510D01*
Y95358D01*
X36448D01*
Y95420D01*
X36386D01*
Y95482D01*
X36325D01*
Y95544D01*
D02*
G37*
G36*
X38611Y89982D02*
X38302D01*
Y89920D01*
X38240D01*
Y89859D01*
X38178D01*
Y89797D01*
X38117D01*
Y89735D01*
X37993D01*
Y89673D01*
X37931D01*
Y89611D01*
X37869D01*
Y89550D01*
X37808D01*
Y89488D01*
X37684D01*
Y89426D01*
X37622D01*
Y89364D01*
X37560D01*
Y89302D01*
X37499D01*
Y89241D01*
X37437D01*
Y89179D01*
X37313D01*
Y89117D01*
X37251D01*
Y89055D01*
X37190D01*
Y88994D01*
X37128D01*
Y88932D01*
X37004D01*
Y88870D01*
X36942D01*
Y88808D01*
X36881D01*
Y88746D01*
X36819D01*
Y88684D01*
X36757D01*
Y88623D01*
Y88561D01*
Y88499D01*
X36819D01*
Y88437D01*
X36881D01*
Y88376D01*
X36942D01*
Y88314D01*
X37004D01*
Y88252D01*
X37066D01*
Y88190D01*
X37190D01*
Y88128D01*
X37251D01*
Y88067D01*
X37313D01*
Y88005D01*
X37437D01*
Y87943D01*
X37499D01*
Y87881D01*
X37560D01*
Y87819D01*
X37684D01*
Y87758D01*
X37746D01*
Y87696D01*
X37808D01*
Y87634D01*
X37931D01*
Y87572D01*
X37993D01*
Y87511D01*
X38055D01*
Y87449D01*
X38117D01*
Y87387D01*
X38178D01*
Y87325D01*
X38302D01*
Y87263D01*
X38364D01*
Y87201D01*
X38425D01*
Y87140D01*
X38549D01*
Y87078D01*
X38611D01*
Y87016D01*
X38734D01*
Y86954D01*
X38796D01*
Y86892D01*
X38858D01*
Y86831D01*
X38920D01*
Y86769D01*
X39044D01*
Y86707D01*
X39105D01*
Y86645D01*
X39167D01*
Y86584D01*
X39291D01*
Y86522D01*
X39352D01*
Y86460D01*
X39414D01*
Y86398D01*
X39538D01*
Y86336D01*
X39600D01*
Y86275D01*
X39785D01*
Y86336D01*
Y86398D01*
Y86460D01*
X39723D01*
Y86522D01*
Y86584D01*
Y86645D01*
X39661D01*
Y86707D01*
Y86769D01*
Y86831D01*
X39600D01*
Y86892D01*
Y86954D01*
Y87016D01*
X39538D01*
Y87078D01*
Y87140D01*
Y87201D01*
X39476D01*
Y87263D01*
Y87325D01*
Y87387D01*
X39414D01*
Y87449D01*
Y87511D01*
Y87572D01*
X39352D01*
Y87634D01*
Y87696D01*
Y87758D01*
X39291D01*
Y87819D01*
Y87881D01*
X39229D01*
Y87943D01*
Y88005D01*
Y88067D01*
X39167D01*
Y88128D01*
Y88190D01*
Y88252D01*
Y88314D01*
X39105D01*
Y88376D01*
Y88437D01*
Y88499D01*
X39044D01*
Y88561D01*
Y88623D01*
Y88684D01*
X38982D01*
Y88746D01*
Y88808D01*
Y88870D01*
X38920D01*
Y88932D01*
Y88994D01*
Y89055D01*
X38858D01*
Y89117D01*
Y89179D01*
Y89241D01*
X38796D01*
Y89302D01*
Y89364D01*
Y89426D01*
X38734D01*
Y89488D01*
Y89550D01*
X38673D01*
Y89611D01*
Y89673D01*
Y89735D01*
Y89797D01*
X38611D01*
Y89859D01*
Y89920D01*
Y89982D01*
D02*
G37*
G36*
X34162D02*
X33976D01*
Y89920D01*
X33915D01*
Y89859D01*
Y89797D01*
Y89735D01*
X33853D01*
Y89673D01*
Y89611D01*
Y89550D01*
X33791D01*
Y89488D01*
Y89426D01*
X33729D01*
Y89364D01*
Y89302D01*
Y89241D01*
Y89179D01*
X33667D01*
Y89117D01*
Y89055D01*
Y88994D01*
X33606D01*
Y88932D01*
Y88870D01*
Y88808D01*
X33544D01*
Y88746D01*
Y88684D01*
X33482D01*
Y88623D01*
Y88561D01*
Y88499D01*
X33420D01*
Y88437D01*
Y88376D01*
Y88314D01*
X33358D01*
Y88252D01*
Y88190D01*
Y88128D01*
X33297D01*
Y88067D01*
Y88005D01*
Y87943D01*
X33235D01*
Y87881D01*
Y87819D01*
Y87758D01*
X33173D01*
Y87696D01*
Y87634D01*
Y87572D01*
Y87511D01*
X33111D01*
Y87449D01*
Y87387D01*
Y87325D01*
X33050D01*
Y87263D01*
Y87201D01*
Y87140D01*
X32988D01*
Y87078D01*
Y87016D01*
Y86954D01*
X32926D01*
Y86892D01*
Y86831D01*
Y86769D01*
X32864D01*
Y86707D01*
Y86645D01*
Y86584D01*
X32802D01*
Y86522D01*
Y86460D01*
Y86398D01*
Y86336D01*
X32741D01*
Y86275D01*
Y86213D01*
Y86151D01*
X32926D01*
Y86213D01*
X32988D01*
Y86275D01*
X33111D01*
Y86336D01*
X33173D01*
Y86398D01*
X33235D01*
Y86460D01*
X33297D01*
Y86522D01*
X33358D01*
Y86584D01*
X33420D01*
Y86645D01*
X33544D01*
Y86707D01*
X33606D01*
Y86769D01*
X33667D01*
Y86831D01*
X33791D01*
Y86892D01*
X33853D01*
Y86954D01*
X33915D01*
Y87016D01*
X33976D01*
Y87078D01*
X34100D01*
Y87140D01*
X34162D01*
Y87201D01*
X34224D01*
Y87263D01*
X34285D01*
Y87325D01*
X34409D01*
Y87387D01*
X34471D01*
Y87449D01*
X34533D01*
Y87511D01*
X34656D01*
Y87572D01*
X34718D01*
Y87634D01*
X34780D01*
Y87696D01*
X34842D01*
Y87758D01*
X34965D01*
Y87819D01*
X35027D01*
Y87881D01*
X35089D01*
Y87943D01*
X35151D01*
Y88005D01*
X35274D01*
Y88067D01*
X35336D01*
Y88128D01*
X35398D01*
Y88190D01*
X35460D01*
Y88252D01*
X35583D01*
Y88314D01*
X35645D01*
Y88376D01*
X35707D01*
Y88437D01*
X35768D01*
Y88499D01*
X35892D01*
Y88561D01*
Y88623D01*
X35830D01*
Y88684D01*
X35768D01*
Y88746D01*
X35707D01*
Y88808D01*
X35645D01*
Y88870D01*
X35521D01*
Y88932D01*
X35460D01*
Y88994D01*
X35398D01*
Y89055D01*
X35336D01*
Y89117D01*
X35212D01*
Y89179D01*
X35151D01*
Y89241D01*
X35089D01*
Y89302D01*
X35027D01*
Y89364D01*
X34903D01*
Y89426D01*
X34842D01*
Y89488D01*
X34780D01*
Y89550D01*
X34656D01*
Y89611D01*
X34594D01*
Y89673D01*
X34533D01*
Y89735D01*
X34409D01*
Y89797D01*
X34347D01*
Y89859D01*
X34285D01*
Y89920D01*
X34162D01*
Y89982D01*
D02*
G37*
G36*
X25696Y83926D02*
X21618D01*
Y83865D01*
X21494D01*
Y83803D01*
Y83741D01*
Y83679D01*
Y83618D01*
Y83556D01*
Y83494D01*
Y83432D01*
Y83370D01*
Y83309D01*
Y83247D01*
Y83185D01*
Y83123D01*
Y83061D01*
Y83000D01*
Y82938D01*
Y82876D01*
Y82814D01*
Y82752D01*
Y82691D01*
Y82629D01*
Y82567D01*
Y82505D01*
Y82443D01*
Y82382D01*
Y82320D01*
Y82258D01*
Y82196D01*
Y82134D01*
Y82073D01*
Y82011D01*
Y81949D01*
Y81887D01*
Y81826D01*
Y81764D01*
Y81702D01*
Y81640D01*
Y81578D01*
Y81516D01*
Y81455D01*
Y81393D01*
Y81331D01*
Y81269D01*
Y81208D01*
Y81146D01*
Y81084D01*
Y81022D01*
Y80960D01*
Y80899D01*
Y80837D01*
Y80775D01*
Y80713D01*
Y80651D01*
Y80590D01*
Y80528D01*
Y80466D01*
Y80404D01*
Y80343D01*
Y80281D01*
Y80219D01*
Y80157D01*
Y80095D01*
Y80033D01*
Y79972D01*
Y79910D01*
Y79848D01*
Y79786D01*
Y79725D01*
Y79663D01*
Y79601D01*
Y79539D01*
Y79477D01*
Y79416D01*
Y79354D01*
Y79292D01*
Y79230D01*
Y79168D01*
Y79107D01*
Y79045D01*
Y78983D01*
Y78921D01*
Y78859D01*
Y78798D01*
Y78736D01*
Y78674D01*
Y78612D01*
Y78550D01*
Y78489D01*
Y78427D01*
Y78365D01*
Y78303D01*
Y78241D01*
Y78180D01*
Y78118D01*
Y78056D01*
Y77994D01*
Y77933D01*
Y77871D01*
Y77809D01*
Y77747D01*
Y77685D01*
Y77624D01*
Y77562D01*
Y77500D01*
X25882D01*
Y77562D01*
Y77624D01*
Y77685D01*
Y77747D01*
Y77809D01*
Y77871D01*
Y77933D01*
Y77994D01*
Y78056D01*
Y78118D01*
Y78180D01*
Y78241D01*
Y78303D01*
Y78365D01*
Y78427D01*
Y78489D01*
Y78550D01*
Y78612D01*
Y78674D01*
Y78736D01*
Y78798D01*
Y78859D01*
Y78921D01*
Y78983D01*
Y79045D01*
Y79107D01*
Y79168D01*
Y79230D01*
Y79292D01*
Y79354D01*
Y79416D01*
Y79477D01*
Y79539D01*
Y79601D01*
Y79663D01*
Y79725D01*
Y79786D01*
Y79848D01*
Y79910D01*
Y79972D01*
Y80033D01*
Y80095D01*
Y80157D01*
Y80219D01*
Y80281D01*
Y80343D01*
Y80404D01*
Y80466D01*
Y80528D01*
Y80590D01*
Y80651D01*
Y80713D01*
Y80775D01*
Y80837D01*
Y80899D01*
Y80960D01*
Y81022D01*
Y81084D01*
Y81146D01*
Y81208D01*
Y81269D01*
Y81331D01*
Y81393D01*
Y81455D01*
Y81516D01*
Y81578D01*
Y81640D01*
Y81702D01*
Y81764D01*
Y81826D01*
Y81887D01*
Y81949D01*
Y82011D01*
Y82073D01*
Y82134D01*
Y82196D01*
Y82258D01*
Y82320D01*
Y82382D01*
Y82443D01*
Y82505D01*
Y82567D01*
Y82629D01*
Y82691D01*
Y82752D01*
Y82814D01*
Y82876D01*
Y82938D01*
Y83000D01*
Y83061D01*
Y83123D01*
Y83185D01*
Y83247D01*
Y83309D01*
Y83370D01*
Y83432D01*
Y83494D01*
Y83556D01*
Y83618D01*
Y83679D01*
Y83741D01*
Y83803D01*
Y83865D01*
X25696D01*
Y83926D01*
D02*
G37*
G36*
X77059Y119154D02*
X77029D01*
X76963Y119151D01*
X76903Y119143D01*
X76843Y119129D01*
X76788Y119113D01*
X76737Y119091D01*
X76690Y119069D01*
X76647Y119044D01*
X76608Y119020D01*
X76573Y118995D01*
X76540Y118971D01*
X76515Y118949D01*
X76494Y118927D01*
X76474Y118911D01*
X76464Y118897D01*
X76455Y118889D01*
X76453Y118886D01*
X76428Y118853D01*
X76403Y118815D01*
X76363Y118733D01*
X76332Y118649D01*
X76311Y118564D01*
X76300Y118526D01*
X76294Y118488D01*
X76286Y118455D01*
X76283Y118428D01*
X76278Y118403D01*
Y118387D01*
X76275Y118373D01*
Y118370D01*
X77807D01*
X77801Y118436D01*
X77790Y118496D01*
X77777Y118556D01*
X77760Y118608D01*
X77741Y118660D01*
X77722Y118706D01*
X77700Y118750D01*
X77678Y118788D01*
X77657Y118821D01*
X77637Y118851D01*
X77618Y118878D01*
X77602Y118900D01*
X77586Y118916D01*
X77575Y118927D01*
X77569Y118935D01*
X77566Y118938D01*
X77526Y118976D01*
X77482Y119009D01*
X77435Y119039D01*
X77389Y119064D01*
X77345Y119083D01*
X77299Y119102D01*
X77258Y119115D01*
X77214Y119126D01*
X77176Y119135D01*
X77141Y119143D01*
X77111Y119148D01*
X77081Y119151D01*
X77059Y119154D01*
D02*
G37*
G36*
X68560Y119151D02*
X68544D01*
X68481Y119148D01*
X68421Y119140D01*
X68364Y119126D01*
X68309Y119110D01*
X68257Y119091D01*
X68211Y119069D01*
X68167Y119044D01*
X68129Y119020D01*
X68093Y118995D01*
X68061Y118971D01*
X68033Y118949D01*
X68011Y118930D01*
X67995Y118913D01*
X67981Y118900D01*
X67973Y118892D01*
X67971Y118889D01*
X67930Y118837D01*
X67894Y118780D01*
X67864Y118720D01*
X67837Y118660D01*
X67815Y118594D01*
X67796Y118531D01*
X67779Y118468D01*
X67769Y118408D01*
X67758Y118348D01*
X67749Y118297D01*
X67747Y118247D01*
X67741Y118204D01*
Y118171D01*
X67738Y118144D01*
Y118127D01*
Y118124D01*
Y118122D01*
X67741Y118024D01*
X67749Y117933D01*
X67760Y117849D01*
X67774Y117770D01*
X67790Y117699D01*
X67812Y117633D01*
X67831Y117573D01*
X67853Y117521D01*
X67875Y117475D01*
X67894Y117434D01*
X67913Y117398D01*
X67932Y117371D01*
X67946Y117349D01*
X67957Y117335D01*
X67965Y117325D01*
X67968Y117322D01*
X68011Y117276D01*
X68058Y117235D01*
X68107Y117202D01*
X68153Y117172D01*
X68203Y117144D01*
X68252Y117123D01*
X68298Y117106D01*
X68342Y117093D01*
X68383Y117082D01*
X68421Y117073D01*
X68457Y117068D01*
X68486Y117065D01*
X68511Y117062D01*
X68527Y117060D01*
X68544D01*
X68607Y117062D01*
X68667Y117071D01*
X68727Y117084D01*
X68781Y117101D01*
X68831Y117120D01*
X68880Y117142D01*
X68923Y117166D01*
X68962Y117191D01*
X68997Y117213D01*
X69030Y117237D01*
X69057Y117259D01*
X69079Y117278D01*
X69095Y117295D01*
X69109Y117308D01*
X69117Y117316D01*
X69120Y117319D01*
X69161Y117371D01*
X69194Y117428D01*
X69224Y117488D01*
X69251Y117554D01*
X69273Y117617D01*
X69292Y117682D01*
X69305Y117748D01*
X69319Y117810D01*
X69327Y117871D01*
X69336Y117925D01*
X69338Y117977D01*
X69344Y118021D01*
Y118056D01*
X69346Y118084D01*
Y118092D01*
Y118100D01*
Y118103D01*
Y118105D01*
X69344Y118201D01*
X69336Y118288D01*
X69325Y118373D01*
X69311Y118449D01*
X69295Y118520D01*
X69275Y118583D01*
X69254Y118640D01*
X69232Y118695D01*
X69213Y118739D01*
X69191Y118780D01*
X69172Y118812D01*
X69155Y118840D01*
X69142Y118862D01*
X69131Y118878D01*
X69123Y118886D01*
X69120Y118889D01*
X69076Y118935D01*
X69030Y118976D01*
X68981Y119012D01*
X68934Y119042D01*
X68885Y119066D01*
X68836Y119088D01*
X68789Y119105D01*
X68746Y119118D01*
X68705Y119129D01*
X68667Y119137D01*
X68631Y119143D01*
X68601Y119148D01*
X68577D01*
X68560Y119151D01*
D02*
G37*
G36*
X55366Y120145D02*
X55352D01*
X55292Y120142D01*
X55235Y120131D01*
X55183Y120117D01*
X55131Y120096D01*
X55082Y120074D01*
X55038Y120046D01*
X54998Y120019D01*
X54959Y119992D01*
X54927Y119962D01*
X54897Y119934D01*
X54872Y119907D01*
X54850Y119885D01*
X54834Y119863D01*
X54823Y119850D01*
X54815Y119839D01*
X54812Y119836D01*
X54793Y119806D01*
X54774Y119771D01*
X54757Y119735D01*
X54741Y119694D01*
X54711Y119610D01*
X54686Y119514D01*
X54664Y119413D01*
X54645Y119309D01*
X54632Y119206D01*
X54621Y119105D01*
X54613Y119003D01*
X54604Y118911D01*
X54599Y118826D01*
Y118785D01*
X54596Y118750D01*
Y118717D01*
X54593Y118687D01*
Y118662D01*
Y118640D01*
Y118624D01*
Y118610D01*
Y118602D01*
Y118599D01*
Y118515D01*
X54596Y118433D01*
X54599Y118354D01*
X54602Y118280D01*
X54607Y118209D01*
X54613Y118141D01*
X54621Y118075D01*
X54626Y118015D01*
X54634Y117955D01*
X54645Y117901D01*
X54654Y117849D01*
X54662Y117800D01*
X54673Y117753D01*
X54684Y117712D01*
X54692Y117671D01*
X54703Y117633D01*
X54722Y117565D01*
X54744Y117510D01*
X54760Y117464D01*
X54776Y117426D01*
X54793Y117398D01*
X54804Y117379D01*
X54809Y117366D01*
X54812Y117363D01*
X54853Y117308D01*
X54897Y117262D01*
X54943Y117221D01*
X54987Y117185D01*
X55033Y117155D01*
X55077Y117131D01*
X55120Y117112D01*
X55161Y117095D01*
X55200Y117082D01*
X55235Y117073D01*
X55268Y117065D01*
X55295Y117062D01*
X55317Y117060D01*
X55333Y117057D01*
X55347D01*
X55404Y117060D01*
X55462Y117071D01*
X55516Y117084D01*
X55565Y117106D01*
X55615Y117128D01*
X55658Y117153D01*
X55699Y117183D01*
X55735Y117210D01*
X55770Y117237D01*
X55797Y117267D01*
X55825Y117292D01*
X55847Y117316D01*
X55863Y117335D01*
X55874Y117349D01*
X55882Y117360D01*
X55885Y117363D01*
X55904Y117393D01*
X55923Y117428D01*
X55939Y117464D01*
X55956Y117505D01*
X55986Y117589D01*
X56010Y117685D01*
X56029Y117786D01*
X56049Y117890D01*
X56062Y117993D01*
X56073Y118097D01*
X56081Y118195D01*
X56090Y118288D01*
X56095Y118376D01*
Y118414D01*
X56098Y118449D01*
Y118482D01*
Y118512D01*
X56100Y118537D01*
Y118559D01*
Y118578D01*
Y118589D01*
Y118597D01*
Y118599D01*
Y118684D01*
X56098Y118766D01*
X56095Y118845D01*
X56090Y118922D01*
X56084Y118993D01*
X56079Y119061D01*
X56071Y119126D01*
X56062Y119189D01*
X56054Y119249D01*
X56046Y119307D01*
X56035Y119361D01*
X56024Y119410D01*
X56016Y119459D01*
X56005Y119503D01*
X55994Y119547D01*
X55980Y119585D01*
X55958Y119656D01*
X55937Y119716D01*
X55918Y119765D01*
X55901Y119806D01*
X55885Y119836D01*
X55874Y119858D01*
X55866Y119872D01*
X55863Y119874D01*
X55825Y119921D01*
X55787Y119965D01*
X55746Y120000D01*
X55702Y120030D01*
X55661Y120057D01*
X55617Y120079D01*
X55576Y120096D01*
X55535Y120112D01*
X55497Y120123D01*
X55464Y120131D01*
X55432Y120136D01*
X55404Y120139D01*
X55383Y120142D01*
X55366Y120145D01*
D02*
G37*
G36*
X77160Y114557D02*
X77130D01*
X77064Y114554D01*
X77004Y114546D01*
X76944Y114532D01*
X76889Y114516D01*
X76838Y114494D01*
X76791Y114472D01*
X76748Y114448D01*
X76709Y114423D01*
X76674Y114399D01*
X76641Y114374D01*
X76616Y114352D01*
X76595Y114330D01*
X76575Y114314D01*
X76565Y114300D01*
X76556Y114292D01*
X76554Y114289D01*
X76529Y114257D01*
X76504Y114218D01*
X76464Y114137D01*
X76433Y114052D01*
X76412Y113967D01*
X76401Y113929D01*
X76395Y113891D01*
X76387Y113858D01*
X76384Y113831D01*
X76379Y113806D01*
Y113790D01*
X76376Y113776D01*
Y113773D01*
X77908D01*
X77902Y113839D01*
X77891Y113899D01*
X77878Y113959D01*
X77861Y114011D01*
X77842Y114063D01*
X77823Y114109D01*
X77801Y114153D01*
X77779Y114191D01*
X77758Y114224D01*
X77738Y114254D01*
X77719Y114281D01*
X77703Y114303D01*
X77687Y114319D01*
X77676Y114330D01*
X77670Y114339D01*
X77667Y114341D01*
X77627Y114380D01*
X77583Y114412D01*
X77536Y114442D01*
X77490Y114467D01*
X77446Y114486D01*
X77400Y114505D01*
X77359Y114519D01*
X77315Y114530D01*
X77277Y114538D01*
X77242Y114546D01*
X77212Y114551D01*
X77182Y114554D01*
X77160Y114557D01*
D02*
G37*
G36*
X81500Y115501D02*
X80307D01*
X80231Y115499D01*
X80160Y115493D01*
X80094Y115485D01*
X80034Y115474D01*
X79980Y115461D01*
X79928Y115447D01*
X79882Y115430D01*
X79843Y115414D01*
X79808Y115398D01*
X79778Y115381D01*
X79751Y115368D01*
X79729Y115354D01*
X79715Y115343D01*
X79701Y115335D01*
X79696Y115330D01*
X79693Y115327D01*
X79658Y115294D01*
X79628Y115259D01*
X79603Y115223D01*
X79579Y115185D01*
X79559Y115149D01*
X79546Y115111D01*
X79532Y115076D01*
X79521Y115043D01*
X79513Y115010D01*
X79507Y114980D01*
X79502Y114955D01*
X79499Y114931D01*
X79497Y114912D01*
Y114898D01*
Y114890D01*
Y114887D01*
X79502Y114819D01*
X79513Y114756D01*
X79529Y114699D01*
X79546Y114650D01*
X79565Y114609D01*
X79573Y114590D01*
X79581Y114576D01*
X79589Y114565D01*
X79592Y114557D01*
X79598Y114551D01*
Y114549D01*
X79638Y114494D01*
X79685Y114448D01*
X79734Y114409D01*
X79783Y114377D01*
X79827Y114352D01*
X79843Y114344D01*
X79860Y114336D01*
X79873Y114330D01*
X79884Y114325D01*
X79890Y114322D01*
X79892D01*
X79931Y114311D01*
X79969Y114300D01*
X80056Y114284D01*
X80146Y114270D01*
X80231Y114262D01*
X80272Y114259D01*
X80307Y114257D01*
X80343D01*
X80370Y114254D01*
X81500D01*
Y115501D01*
D02*
G37*
G36*
X66608Y114554D02*
X66592D01*
X66529Y114551D01*
X66469Y114543D01*
X66412Y114530D01*
X66357Y114513D01*
X66305Y114494D01*
X66259Y114472D01*
X66215Y114448D01*
X66177Y114423D01*
X66141Y114399D01*
X66109Y114374D01*
X66081Y114352D01*
X66059Y114333D01*
X66043Y114317D01*
X66030Y114303D01*
X66021Y114295D01*
X66019Y114292D01*
X65978Y114240D01*
X65942Y114183D01*
X65912Y114123D01*
X65885Y114063D01*
X65863Y113997D01*
X65844Y113935D01*
X65828Y113872D01*
X65817Y113812D01*
X65806Y113752D01*
X65798Y113700D01*
X65795Y113651D01*
X65789Y113607D01*
Y113574D01*
X65786Y113547D01*
Y113530D01*
Y113528D01*
Y113525D01*
X65789Y113427D01*
X65798Y113337D01*
X65808Y113252D01*
X65822Y113173D01*
X65838Y113102D01*
X65860Y113036D01*
X65879Y112976D01*
X65901Y112924D01*
X65923Y112878D01*
X65942Y112837D01*
X65961Y112802D01*
X65980Y112774D01*
X65994Y112752D01*
X66005Y112739D01*
X66013Y112728D01*
X66016Y112725D01*
X66059Y112679D01*
X66106Y112638D01*
X66155Y112605D01*
X66202Y112575D01*
X66251Y112548D01*
X66300Y112526D01*
X66346Y112509D01*
X66390Y112496D01*
X66431Y112485D01*
X66469Y112477D01*
X66505Y112471D01*
X66535Y112469D01*
X66559Y112466D01*
X66575Y112463D01*
X66592D01*
X66655Y112466D01*
X66715Y112474D01*
X66775Y112488D01*
X66829Y112504D01*
X66878Y112523D01*
X66928Y112545D01*
X66971Y112569D01*
X67010Y112594D01*
X67045Y112616D01*
X67078Y112641D01*
X67105Y112662D01*
X67127Y112681D01*
X67143Y112698D01*
X67157Y112711D01*
X67165Y112720D01*
X67168Y112722D01*
X67209Y112774D01*
X67242Y112832D01*
X67272Y112892D01*
X67299Y112957D01*
X67321Y113020D01*
X67340Y113085D01*
X67353Y113151D01*
X67367Y113214D01*
X67375Y113274D01*
X67384Y113328D01*
X67386Y113380D01*
X67392Y113424D01*
Y113460D01*
X67395Y113487D01*
Y113495D01*
Y113503D01*
Y113506D01*
Y113509D01*
X67392Y113604D01*
X67384Y113691D01*
X67373Y113776D01*
X67359Y113853D01*
X67343Y113924D01*
X67323Y113986D01*
X67302Y114044D01*
X67280Y114098D01*
X67261Y114142D01*
X67239Y114183D01*
X67220Y114216D01*
X67203Y114243D01*
X67190Y114265D01*
X67179Y114281D01*
X67171Y114289D01*
X67168Y114292D01*
X67124Y114339D01*
X67078Y114380D01*
X67029Y114415D01*
X66982Y114445D01*
X66933Y114470D01*
X66884Y114491D01*
X66838Y114508D01*
X66794Y114521D01*
X66753Y114532D01*
X66715Y114541D01*
X66679Y114546D01*
X66649Y114551D01*
X66625D01*
X66608Y114554D01*
D02*
G37*
G36*
X63925Y109575D02*
X63911D01*
X63854Y109573D01*
X63796Y109564D01*
X63744Y109553D01*
X63695Y109540D01*
X63649Y109523D01*
X63605Y109504D01*
X63567Y109482D01*
X63529Y109463D01*
X63499Y109441D01*
X63469Y109420D01*
X63444Y109400D01*
X63425Y109384D01*
X63409Y109371D01*
X63395Y109360D01*
X63390Y109351D01*
X63387Y109349D01*
X63349Y109305D01*
X63319Y109256D01*
X63289Y109207D01*
X63264Y109158D01*
X63245Y109106D01*
X63228Y109054D01*
X63215Y109005D01*
X63204Y108956D01*
X63193Y108909D01*
X63188Y108868D01*
X63182Y108830D01*
X63179Y108797D01*
X63177Y108770D01*
Y108748D01*
Y108737D01*
Y108732D01*
X63179Y108658D01*
X63185Y108587D01*
X63196Y108521D01*
X63209Y108459D01*
X63226Y108401D01*
X63245Y108350D01*
X63264Y108300D01*
X63283Y108257D01*
X63302Y108218D01*
X63321Y108183D01*
X63340Y108156D01*
X63357Y108131D01*
X63371Y108112D01*
X63381Y108098D01*
X63387Y108090D01*
X63390Y108087D01*
X63431Y108046D01*
X63472Y108011D01*
X63515Y107978D01*
X63556Y107951D01*
X63600Y107929D01*
X63641Y107910D01*
X63682Y107894D01*
X63720Y107883D01*
X63758Y107872D01*
X63791Y107866D01*
X63821Y107861D01*
X63845Y107855D01*
X63865D01*
X63881Y107853D01*
X63895D01*
X63968Y107858D01*
X64039Y107869D01*
X64105Y107888D01*
X64162Y107910D01*
X64189Y107918D01*
X64211Y107929D01*
X64230Y107940D01*
X64247Y107948D01*
X64261Y107954D01*
X64271Y107959D01*
X64277Y107965D01*
X64280D01*
X64342Y108011D01*
X64400Y108065D01*
X64449Y108120D01*
X64487Y108175D01*
X64520Y108224D01*
X64531Y108243D01*
X64542Y108262D01*
X64550Y108276D01*
X64555Y108289D01*
X64561Y108295D01*
Y108298D01*
X64593Y108382D01*
X64618Y108464D01*
X64637Y108541D01*
X64648Y108612D01*
X64654Y108642D01*
X64656Y108672D01*
X64659Y108696D01*
Y108718D01*
X64662Y108734D01*
Y108748D01*
Y108756D01*
Y108759D01*
X64659Y108825D01*
X64654Y108887D01*
X64643Y108947D01*
X64626Y109005D01*
X64610Y109056D01*
X64593Y109106D01*
X64572Y109149D01*
X64553Y109190D01*
X64534Y109226D01*
X64512Y109258D01*
X64495Y109286D01*
X64476Y109308D01*
X64463Y109324D01*
X64452Y109338D01*
X64446Y109346D01*
X64443Y109349D01*
X64402Y109390D01*
X64359Y109422D01*
X64312Y109455D01*
X64269Y109480D01*
X64222Y109502D01*
X64179Y109521D01*
X64135Y109534D01*
X64094Y109548D01*
X64056Y109556D01*
X64023Y109564D01*
X63990Y109567D01*
X63963Y109573D01*
X63941D01*
X63925Y109575D01*
D02*
G37*
G36*
X76504Y108906D02*
X76502D01*
Y108734D01*
Y108680D01*
X76504Y108628D01*
X76510Y108579D01*
X76513Y108532D01*
X76518Y108491D01*
X76526Y108453D01*
X76532Y108420D01*
X76540Y108390D01*
X76548Y108363D01*
X76554Y108338D01*
X76559Y108319D01*
X76567Y108303D01*
X76570Y108289D01*
X76575Y108281D01*
X76578Y108276D01*
Y108273D01*
X76619Y108199D01*
X76668Y108136D01*
X76717Y108082D01*
X76767Y108036D01*
X76813Y108000D01*
X76832Y107984D01*
X76851Y107973D01*
X76865Y107962D01*
X76876Y107956D01*
X76881Y107954D01*
X76884Y107951D01*
X76963Y107913D01*
X77045Y107885D01*
X77127Y107863D01*
X77201Y107850D01*
X77233Y107847D01*
X77266Y107842D01*
X77293Y107839D01*
X77315D01*
X77334Y107836D01*
X77362D01*
X77411Y107839D01*
X77457Y107842D01*
X77501Y107847D01*
X77539Y107855D01*
X77577Y107863D01*
X77610Y107874D01*
X77640Y107885D01*
X77667Y107899D01*
X77692Y107910D01*
X77714Y107921D01*
X77730Y107932D01*
X77744Y107940D01*
X77758Y107948D01*
X77766Y107954D01*
X77768Y107959D01*
X77771D01*
X77796Y107984D01*
X77818Y108008D01*
X77837Y108033D01*
X77850Y108060D01*
X77878Y108112D01*
X77894Y108158D01*
X77902Y108202D01*
X77905Y108221D01*
X77908Y108238D01*
X77911Y108248D01*
Y108259D01*
Y108265D01*
Y108268D01*
X77908Y108311D01*
X77899Y108352D01*
X77891Y108390D01*
X77878Y108423D01*
X77867Y108448D01*
X77859Y108470D01*
X77850Y108481D01*
X77848Y108486D01*
X77820Y108521D01*
X77790Y108552D01*
X77760Y108579D01*
X77730Y108598D01*
X77706Y108614D01*
X77684Y108628D01*
X77670Y108633D01*
X77665Y108636D01*
X77640Y108647D01*
X77613Y108655D01*
X77553Y108672D01*
X77485Y108688D01*
X77419Y108702D01*
X77356Y108712D01*
X77332Y108718D01*
X77307Y108721D01*
X77288Y108726D01*
X77274D01*
X77263Y108729D01*
X77261D01*
X77168Y108743D01*
X77083Y108759D01*
X77004Y108773D01*
X76928Y108789D01*
X76862Y108803D01*
X76799Y108816D01*
X76742Y108833D01*
X76693Y108846D01*
X76647Y108857D01*
X76608Y108871D01*
X76575Y108879D01*
X76548Y108890D01*
X76529Y108896D01*
X76513Y108901D01*
X76504Y108906D01*
D02*
G37*
G36*
X72751Y109949D02*
X72721D01*
X72655Y109947D01*
X72595Y109938D01*
X72535Y109925D01*
X72480Y109908D01*
X72429Y109886D01*
X72382Y109865D01*
X72338Y109840D01*
X72300Y109816D01*
X72265Y109791D01*
X72232Y109766D01*
X72207Y109745D01*
X72186Y109723D01*
X72167Y109706D01*
X72156Y109693D01*
X72147Y109684D01*
X72145Y109682D01*
X72120Y109649D01*
X72096Y109611D01*
X72055Y109529D01*
X72025Y109444D01*
X72003Y109360D01*
X71992Y109321D01*
X71986Y109283D01*
X71978Y109250D01*
X71975Y109223D01*
X71970Y109198D01*
Y109182D01*
X71967Y109169D01*
Y109166D01*
X73499D01*
X73493Y109231D01*
X73482Y109291D01*
X73469Y109351D01*
X73452Y109403D01*
X73433Y109455D01*
X73414Y109502D01*
X73392Y109545D01*
X73370Y109583D01*
X73349Y109616D01*
X73330Y109646D01*
X73310Y109674D01*
X73294Y109695D01*
X73278Y109712D01*
X73267Y109723D01*
X73261Y109731D01*
X73259Y109734D01*
X73218Y109772D01*
X73174Y109804D01*
X73128Y109835D01*
X73081Y109859D01*
X73037Y109878D01*
X72991Y109897D01*
X72950Y109911D01*
X72906Y109922D01*
X72868Y109930D01*
X72833Y109938D01*
X72803Y109944D01*
X72773Y109947D01*
X72751Y109949D01*
D02*
G37*
G36*
X81500Y110866D02*
X80627D01*
X80553Y110864D01*
X80485Y110858D01*
X80419Y110856D01*
X80362Y110847D01*
X80307Y110842D01*
X80261Y110834D01*
X80217Y110828D01*
X80182Y110820D01*
X80149Y110812D01*
X80122Y110806D01*
X80100Y110801D01*
X80084Y110795D01*
X80070Y110790D01*
X80064Y110787D01*
X80062D01*
X80010Y110766D01*
X79961Y110738D01*
X79914Y110708D01*
X79871Y110675D01*
X79830Y110640D01*
X79789Y110604D01*
X79753Y110569D01*
X79720Y110533D01*
X79690Y110498D01*
X79666Y110465D01*
X79644Y110435D01*
X79625Y110411D01*
X79609Y110389D01*
X79598Y110372D01*
X79592Y110362D01*
X79589Y110359D01*
X79554Y110296D01*
X79524Y110228D01*
X79499Y110157D01*
X79475Y110083D01*
X79456Y110007D01*
X79442Y109933D01*
X79428Y109856D01*
X79417Y109785D01*
X79409Y109717D01*
X79404Y109654D01*
X79398Y109597D01*
X79396Y109548D01*
X79393Y109507D01*
Y109491D01*
Y109477D01*
Y109463D01*
Y109455D01*
Y109452D01*
Y109450D01*
Y109371D01*
X79398Y109294D01*
X79401Y109223D01*
X79409Y109155D01*
X79417Y109092D01*
X79426Y109032D01*
X79434Y108975D01*
X79442Y108925D01*
X79453Y108879D01*
X79461Y108838D01*
X79469Y108803D01*
X79478Y108775D01*
X79486Y108751D01*
X79488Y108734D01*
X79494Y108723D01*
Y108721D01*
X79513Y108666D01*
X79535Y108614D01*
X79557Y108565D01*
X79579Y108519D01*
X79600Y108478D01*
X79625Y108437D01*
X79647Y108401D01*
X79669Y108369D01*
X79690Y108341D01*
X79710Y108314D01*
X79726Y108292D01*
X79740Y108276D01*
X79753Y108262D01*
X79761Y108251D01*
X79767Y108246D01*
X79770Y108243D01*
X79821Y108199D01*
X79876Y108158D01*
X79933Y108126D01*
X79988Y108098D01*
X80037Y108076D01*
X80056Y108065D01*
X80075Y108060D01*
X80089Y108055D01*
X80103Y108049D01*
X80108Y108046D01*
X80111D01*
X80152Y108036D01*
X80195Y108025D01*
X80291Y108008D01*
X80389Y107995D01*
X80482Y107986D01*
X80526Y107984D01*
X80567Y107981D01*
X80602D01*
X80632Y107978D01*
X81500D01*
Y110866D01*
D02*
G37*
G36*
X66898Y110940D02*
X66884D01*
X66824Y110938D01*
X66767Y110927D01*
X66715Y110913D01*
X66663Y110891D01*
X66614Y110869D01*
X66570Y110842D01*
X66529Y110815D01*
X66491Y110787D01*
X66458Y110757D01*
X66428Y110730D01*
X66404Y110703D01*
X66382Y110681D01*
X66365Y110659D01*
X66354Y110645D01*
X66346Y110635D01*
X66343Y110632D01*
X66324Y110602D01*
X66305Y110566D01*
X66289Y110531D01*
X66272Y110490D01*
X66242Y110405D01*
X66218Y110310D01*
X66196Y110209D01*
X66177Y110105D01*
X66163Y110001D01*
X66152Y109900D01*
X66144Y109799D01*
X66136Y109706D01*
X66131Y109622D01*
Y109581D01*
X66128Y109545D01*
Y109512D01*
X66125Y109482D01*
Y109458D01*
Y109436D01*
Y109420D01*
Y109406D01*
Y109398D01*
Y109395D01*
Y109310D01*
X66128Y109229D01*
X66131Y109149D01*
X66133Y109076D01*
X66139Y109005D01*
X66144Y108936D01*
X66152Y108871D01*
X66158Y108811D01*
X66166Y108751D01*
X66177Y108696D01*
X66185Y108644D01*
X66193Y108595D01*
X66204Y108549D01*
X66215Y108508D01*
X66223Y108467D01*
X66234Y108429D01*
X66253Y108360D01*
X66275Y108306D01*
X66292Y108259D01*
X66308Y108221D01*
X66324Y108194D01*
X66335Y108175D01*
X66341Y108161D01*
X66343Y108158D01*
X66384Y108104D01*
X66428Y108057D01*
X66474Y108016D01*
X66518Y107981D01*
X66565Y107951D01*
X66608Y107926D01*
X66652Y107907D01*
X66693Y107891D01*
X66731Y107877D01*
X66767Y107869D01*
X66799Y107861D01*
X66827Y107858D01*
X66848Y107855D01*
X66865Y107853D01*
X66878D01*
X66936Y107855D01*
X66993Y107866D01*
X67048Y107880D01*
X67097Y107902D01*
X67146Y107924D01*
X67190Y107948D01*
X67231Y107978D01*
X67266Y108005D01*
X67302Y108033D01*
X67329Y108063D01*
X67356Y108087D01*
X67378Y108112D01*
X67395Y108131D01*
X67405Y108145D01*
X67414Y108156D01*
X67416Y108158D01*
X67435Y108188D01*
X67455Y108224D01*
X67471Y108259D01*
X67487Y108300D01*
X67517Y108385D01*
X67542Y108481D01*
X67561Y108581D01*
X67580Y108685D01*
X67594Y108789D01*
X67605Y108893D01*
X67613Y108991D01*
X67621Y109084D01*
X67627Y109171D01*
Y109209D01*
X67629Y109245D01*
Y109278D01*
Y109308D01*
X67632Y109332D01*
Y109354D01*
Y109373D01*
Y109384D01*
Y109392D01*
Y109395D01*
Y109480D01*
X67629Y109562D01*
X67627Y109641D01*
X67621Y109717D01*
X67616Y109788D01*
X67610Y109856D01*
X67602Y109922D01*
X67594Y109985D01*
X67586Y110045D01*
X67577Y110102D01*
X67567Y110157D01*
X67556Y110206D01*
X67547Y110255D01*
X67536Y110299D01*
X67526Y110342D01*
X67512Y110381D01*
X67490Y110451D01*
X67468Y110512D01*
X67449Y110561D01*
X67433Y110602D01*
X67416Y110632D01*
X67405Y110654D01*
X67397Y110667D01*
X67395Y110670D01*
X67356Y110716D01*
X67318Y110760D01*
X67277Y110795D01*
X67233Y110826D01*
X67193Y110853D01*
X67149Y110875D01*
X67108Y110891D01*
X67067Y110907D01*
X67029Y110918D01*
X66996Y110927D01*
X66963Y110932D01*
X66936Y110935D01*
X66914Y110938D01*
X66898Y110940D01*
D02*
G37*
G36*
X59562D02*
X59548D01*
X59488Y110938D01*
X59431Y110927D01*
X59379Y110913D01*
X59327Y110891D01*
X59278Y110869D01*
X59234Y110842D01*
X59194Y110815D01*
X59155Y110787D01*
X59123Y110757D01*
X59093Y110730D01*
X59068Y110703D01*
X59046Y110681D01*
X59030Y110659D01*
X59019Y110645D01*
X59011Y110635D01*
X59008Y110632D01*
X58989Y110602D01*
X58970Y110566D01*
X58953Y110531D01*
X58937Y110490D01*
X58907Y110405D01*
X58882Y110310D01*
X58860Y110209D01*
X58841Y110105D01*
X58828Y110001D01*
X58817Y109900D01*
X58809Y109799D01*
X58801Y109706D01*
X58795Y109622D01*
Y109581D01*
X58792Y109545D01*
Y109512D01*
X58789Y109482D01*
Y109458D01*
Y109436D01*
Y109420D01*
Y109406D01*
Y109398D01*
Y109395D01*
Y109310D01*
X58792Y109229D01*
X58795Y109149D01*
X58798Y109076D01*
X58803Y109005D01*
X58809Y108936D01*
X58817Y108871D01*
X58822Y108811D01*
X58830Y108751D01*
X58841Y108696D01*
X58850Y108644D01*
X58858Y108595D01*
X58869Y108549D01*
X58880Y108508D01*
X58888Y108467D01*
X58899Y108429D01*
X58918Y108360D01*
X58940Y108306D01*
X58956Y108259D01*
X58973Y108221D01*
X58989Y108194D01*
X59000Y108175D01*
X59005Y108161D01*
X59008Y108158D01*
X59049Y108104D01*
X59093Y108057D01*
X59139Y108016D01*
X59183Y107981D01*
X59229Y107951D01*
X59273Y107926D01*
X59316Y107907D01*
X59357Y107891D01*
X59396Y107877D01*
X59431Y107869D01*
X59464Y107861D01*
X59491Y107858D01*
X59513Y107855D01*
X59529Y107853D01*
X59543D01*
X59600Y107855D01*
X59658Y107866D01*
X59712Y107880D01*
X59761Y107902D01*
X59811Y107924D01*
X59854Y107948D01*
X59895Y107978D01*
X59931Y108005D01*
X59966Y108033D01*
X59993Y108063D01*
X60021Y108087D01*
X60043Y108112D01*
X60059Y108131D01*
X60070Y108145D01*
X60078Y108156D01*
X60081Y108158D01*
X60100Y108188D01*
X60119Y108224D01*
X60135Y108259D01*
X60152Y108300D01*
X60182Y108385D01*
X60206Y108481D01*
X60225Y108581D01*
X60245Y108685D01*
X60258Y108789D01*
X60269Y108893D01*
X60277Y108991D01*
X60286Y109084D01*
X60291Y109171D01*
Y109209D01*
X60294Y109245D01*
Y109278D01*
Y109308D01*
X60296Y109332D01*
Y109354D01*
Y109373D01*
Y109384D01*
Y109392D01*
Y109395D01*
Y109480D01*
X60294Y109562D01*
X60291Y109641D01*
X60286Y109717D01*
X60280Y109788D01*
X60275Y109856D01*
X60267Y109922D01*
X60258Y109985D01*
X60250Y110045D01*
X60242Y110102D01*
X60231Y110157D01*
X60220Y110206D01*
X60212Y110255D01*
X60201Y110299D01*
X60190Y110342D01*
X60176Y110381D01*
X60154Y110451D01*
X60133Y110512D01*
X60114Y110561D01*
X60097Y110602D01*
X60081Y110632D01*
X60070Y110654D01*
X60062Y110667D01*
X60059Y110670D01*
X60021Y110716D01*
X59983Y110760D01*
X59942Y110795D01*
X59898Y110826D01*
X59857Y110853D01*
X59813Y110875D01*
X59772Y110891D01*
X59731Y110907D01*
X59693Y110918D01*
X59660Y110927D01*
X59628Y110932D01*
X59600Y110935D01*
X59579Y110938D01*
X59562Y110940D01*
D02*
G37*
G36*
X56627Y110943D02*
X56603D01*
X56554Y110940D01*
X56510Y110935D01*
X56466Y110927D01*
X56423Y110916D01*
X56384Y110902D01*
X56349Y110888D01*
X56316Y110872D01*
X56286Y110856D01*
X56259Y110839D01*
X56234Y110823D01*
X56215Y110809D01*
X56196Y110795D01*
X56185Y110785D01*
X56174Y110776D01*
X56169Y110771D01*
X56166Y110768D01*
X56136Y110735D01*
X56109Y110700D01*
X56084Y110664D01*
X56062Y110629D01*
X56046Y110591D01*
X56032Y110555D01*
X56010Y110490D01*
X56002Y110457D01*
X55997Y110430D01*
X55994Y110405D01*
X55991Y110383D01*
X55989Y110364D01*
Y110351D01*
Y110342D01*
Y110340D01*
X55991Y110296D01*
X55997Y110252D01*
X56005Y110211D01*
X56016Y110173D01*
X56043Y110102D01*
X56059Y110072D01*
X56073Y110042D01*
X56090Y110018D01*
X56106Y109993D01*
X56120Y109974D01*
X56133Y109957D01*
X56144Y109944D01*
X56152Y109936D01*
X56158Y109930D01*
X56161Y109927D01*
X56193Y109897D01*
X56229Y109873D01*
X56264Y109851D01*
X56300Y109832D01*
X56338Y109816D01*
X56374Y109802D01*
X56442Y109783D01*
X56475Y109774D01*
X56504Y109769D01*
X56529Y109766D01*
X56554Y109764D01*
X56573Y109761D01*
X56597D01*
X56647Y109764D01*
X56696Y109769D01*
X56742Y109777D01*
X56783Y109788D01*
X56824Y109799D01*
X56859Y109816D01*
X56895Y109829D01*
X56925Y109845D01*
X56952Y109862D01*
X56977Y109876D01*
X56996Y109892D01*
X57015Y109903D01*
X57026Y109914D01*
X57037Y109922D01*
X57042Y109927D01*
X57045Y109930D01*
X57075Y109963D01*
X57100Y109998D01*
X57124Y110034D01*
X57143Y110069D01*
X57160Y110108D01*
X57173Y110143D01*
X57192Y110211D01*
X57201Y110244D01*
X57206Y110274D01*
X57209Y110299D01*
X57212Y110323D01*
X57214Y110342D01*
Y110356D01*
Y110364D01*
Y110367D01*
X57212Y110411D01*
X57206Y110451D01*
X57198Y110493D01*
X57187Y110528D01*
X57160Y110599D01*
X57143Y110629D01*
X57127Y110656D01*
X57113Y110684D01*
X57097Y110705D01*
X57083Y110724D01*
X57070Y110741D01*
X57059Y110755D01*
X57051Y110763D01*
X57045Y110768D01*
X57042Y110771D01*
X57010Y110801D01*
X56974Y110828D01*
X56936Y110850D01*
X56900Y110869D01*
X56862Y110888D01*
X56827Y110902D01*
X56756Y110921D01*
X56726Y110929D01*
X56696Y110935D01*
X56668Y110938D01*
X56647Y110940D01*
X56627Y110943D01*
D02*
G37*
G36*
X56647Y109381D02*
X56614D01*
X56551Y109379D01*
X56494Y109373D01*
X56436Y109362D01*
X56384Y109346D01*
X56335Y109329D01*
X56289Y109310D01*
X56248Y109291D01*
X56210Y109272D01*
X56174Y109250D01*
X56144Y109231D01*
X56120Y109212D01*
X56098Y109196D01*
X56079Y109182D01*
X56068Y109171D01*
X56059Y109163D01*
X56057Y109160D01*
X56019Y109119D01*
X55983Y109073D01*
X55953Y109029D01*
X55928Y108983D01*
X55907Y108936D01*
X55888Y108890D01*
X55874Y108846D01*
X55860Y108803D01*
X55852Y108762D01*
X55844Y108726D01*
X55838Y108693D01*
X55836Y108663D01*
Y108642D01*
X55833Y108623D01*
Y108612D01*
Y108609D01*
X55836Y108549D01*
X55841Y108491D01*
X55852Y108437D01*
X55866Y108385D01*
X55882Y108336D01*
X55901Y108292D01*
X55920Y108251D01*
X55939Y108213D01*
X55961Y108180D01*
X55980Y108150D01*
X55999Y108126D01*
X56016Y108104D01*
X56029Y108087D01*
X56040Y108076D01*
X56046Y108068D01*
X56049Y108065D01*
X56090Y108027D01*
X56133Y107995D01*
X56180Y107967D01*
X56226Y107943D01*
X56273Y107921D01*
X56316Y107905D01*
X56363Y107891D01*
X56403Y107880D01*
X56445Y107872D01*
X56480Y107863D01*
X56513Y107858D01*
X56543Y107855D01*
X56565D01*
X56584Y107853D01*
X56597D01*
X56677Y107858D01*
X56750Y107869D01*
X56816Y107885D01*
X56876Y107905D01*
X56903Y107913D01*
X56925Y107921D01*
X56947Y107929D01*
X56963Y107937D01*
X56977Y107945D01*
X56988Y107948D01*
X56993Y107954D01*
X56996D01*
X57061Y107995D01*
X57119Y108041D01*
X57165Y108090D01*
X57203Y108134D01*
X57236Y108177D01*
X57247Y108194D01*
X57258Y108210D01*
X57263Y108224D01*
X57269Y108232D01*
X57274Y108238D01*
Y108240D01*
X57304Y108311D01*
X57329Y108379D01*
X57345Y108442D01*
X57356Y108502D01*
X57359Y108527D01*
X57362Y108552D01*
X57364Y108571D01*
Y108590D01*
X57367Y108603D01*
Y108614D01*
Y108620D01*
Y108623D01*
X57364Y108683D01*
X57359Y108740D01*
X57348Y108792D01*
X57335Y108844D01*
X57318Y108893D01*
X57299Y108936D01*
X57280Y108977D01*
X57261Y109016D01*
X57242Y109048D01*
X57222Y109078D01*
X57203Y109103D01*
X57187Y109125D01*
X57173Y109141D01*
X57162Y109152D01*
X57157Y109160D01*
X57154Y109163D01*
X57113Y109201D01*
X57070Y109234D01*
X57026Y109264D01*
X56980Y109289D01*
X56933Y109310D01*
X56889Y109329D01*
X56846Y109343D01*
X56805Y109354D01*
X56764Y109362D01*
X56728Y109371D01*
X56696Y109376D01*
X56668Y109379D01*
X56647Y109381D01*
D02*
G37*
G36*
X49292Y110940D02*
X49278D01*
X49218Y110938D01*
X49161Y110927D01*
X49109Y110913D01*
X49057Y110891D01*
X49008Y110869D01*
X48964Y110842D01*
X48923Y110815D01*
X48885Y110787D01*
X48852Y110757D01*
X48822Y110730D01*
X48798Y110703D01*
X48776Y110681D01*
X48759Y110659D01*
X48749Y110645D01*
X48740Y110634D01*
X48738Y110632D01*
X48719Y110602D01*
X48700Y110566D01*
X48683Y110531D01*
X48667Y110490D01*
X48637Y110405D01*
X48612Y110310D01*
X48590Y110209D01*
X48571Y110105D01*
X48557Y110001D01*
X48547Y109900D01*
X48538Y109799D01*
X48530Y109706D01*
X48525Y109622D01*
Y109581D01*
X48522Y109545D01*
Y109512D01*
X48519Y109482D01*
Y109458D01*
Y109436D01*
Y109420D01*
Y109406D01*
Y109398D01*
Y109395D01*
Y109310D01*
X48522Y109229D01*
X48525Y109149D01*
X48528Y109076D01*
X48533Y109005D01*
X48538Y108936D01*
X48547Y108871D01*
X48552Y108811D01*
X48560Y108751D01*
X48571Y108696D01*
X48579Y108644D01*
X48588Y108595D01*
X48599Y108549D01*
X48609Y108508D01*
X48618Y108467D01*
X48629Y108429D01*
X48648Y108360D01*
X48669Y108306D01*
X48686Y108259D01*
X48702Y108221D01*
X48719Y108194D01*
X48730Y108175D01*
X48735Y108161D01*
X48738Y108158D01*
X48779Y108104D01*
X48822Y108057D01*
X48869Y108016D01*
X48912Y107981D01*
X48959Y107951D01*
X49003Y107926D01*
X49046Y107907D01*
X49087Y107891D01*
X49125Y107877D01*
X49161Y107869D01*
X49194Y107861D01*
X49221Y107858D01*
X49243Y107855D01*
X49259Y107853D01*
X49273D01*
X49330Y107855D01*
X49387Y107866D01*
X49442Y107880D01*
X49491Y107902D01*
X49540Y107924D01*
X49584Y107948D01*
X49625Y107978D01*
X49660Y108005D01*
X49696Y108033D01*
X49723Y108063D01*
X49751Y108087D01*
X49772Y108112D01*
X49789Y108131D01*
X49800Y108145D01*
X49808Y108156D01*
X49811Y108158D01*
X49830Y108188D01*
X49849Y108224D01*
X49865Y108259D01*
X49882Y108300D01*
X49912Y108385D01*
X49936Y108481D01*
X49955Y108581D01*
X49974Y108685D01*
X49988Y108789D01*
X49999Y108893D01*
X50007Y108991D01*
X50015Y109084D01*
X50021Y109171D01*
Y109209D01*
X50024Y109245D01*
Y109278D01*
Y109308D01*
X50026Y109332D01*
Y109354D01*
Y109373D01*
Y109384D01*
Y109392D01*
Y109395D01*
Y109480D01*
X50024Y109562D01*
X50021Y109641D01*
X50015Y109717D01*
X50010Y109788D01*
X50004Y109856D01*
X49996Y109922D01*
X49988Y109985D01*
X49980Y110045D01*
X49972Y110102D01*
X49961Y110157D01*
X49950Y110206D01*
X49942Y110255D01*
X49931Y110299D01*
X49920Y110342D01*
X49906Y110381D01*
X49884Y110451D01*
X49862Y110512D01*
X49843Y110561D01*
X49827Y110602D01*
X49811Y110632D01*
X49800Y110654D01*
X49791Y110667D01*
X49789Y110670D01*
X49751Y110716D01*
X49712Y110760D01*
X49671Y110795D01*
X49628Y110826D01*
X49587Y110853D01*
X49543Y110875D01*
X49502Y110891D01*
X49461Y110907D01*
X49423Y110918D01*
X49390Y110927D01*
X49357Y110932D01*
X49330Y110935D01*
X49308Y110938D01*
X49292Y110940D01*
D02*
G37*
G36*
X43422D02*
X43409D01*
X43349Y110938D01*
X43291Y110927D01*
X43240Y110913D01*
X43188Y110891D01*
X43139Y110869D01*
X43095Y110842D01*
X43054Y110815D01*
X43016Y110787D01*
X42983Y110757D01*
X42953Y110730D01*
X42928Y110703D01*
X42906Y110681D01*
X42890Y110659D01*
X42879Y110645D01*
X42871Y110634D01*
X42868Y110632D01*
X42849Y110602D01*
X42830Y110566D01*
X42814Y110531D01*
X42797Y110490D01*
X42767Y110405D01*
X42743Y110310D01*
X42721Y110209D01*
X42702Y110105D01*
X42688Y110001D01*
X42677Y109900D01*
X42669Y109799D01*
X42661Y109706D01*
X42655Y109622D01*
Y109581D01*
X42652Y109545D01*
Y109512D01*
X42650Y109482D01*
Y109458D01*
Y109436D01*
Y109420D01*
Y109406D01*
Y109398D01*
Y109395D01*
Y109310D01*
X42652Y109229D01*
X42655Y109149D01*
X42658Y109076D01*
X42663Y109005D01*
X42669Y108936D01*
X42677Y108871D01*
X42682Y108811D01*
X42691Y108751D01*
X42702Y108696D01*
X42710Y108644D01*
X42718Y108595D01*
X42729Y108549D01*
X42740Y108508D01*
X42748Y108467D01*
X42759Y108429D01*
X42778Y108360D01*
X42800Y108306D01*
X42816Y108259D01*
X42833Y108221D01*
X42849Y108194D01*
X42860Y108175D01*
X42865Y108161D01*
X42868Y108158D01*
X42909Y108104D01*
X42953Y108057D01*
X42999Y108016D01*
X43043Y107981D01*
X43089Y107951D01*
X43133Y107926D01*
X43177Y107907D01*
X43218Y107891D01*
X43256Y107877D01*
X43291Y107869D01*
X43324Y107861D01*
X43351Y107858D01*
X43373Y107855D01*
X43390Y107853D01*
X43403D01*
X43461Y107855D01*
X43518Y107866D01*
X43573Y107880D01*
X43622Y107902D01*
X43671Y107924D01*
X43714Y107948D01*
X43755Y107978D01*
X43791Y108005D01*
X43826Y108033D01*
X43854Y108063D01*
X43881Y108087D01*
X43903Y108112D01*
X43919Y108131D01*
X43930Y108145D01*
X43938Y108156D01*
X43941Y108158D01*
X43960Y108188D01*
X43979Y108224D01*
X43996Y108259D01*
X44012Y108300D01*
X44042Y108385D01*
X44067Y108481D01*
X44086Y108581D01*
X44105Y108685D01*
X44118Y108789D01*
X44129Y108893D01*
X44138Y108991D01*
X44146Y109084D01*
X44151Y109171D01*
Y109209D01*
X44154Y109245D01*
Y109278D01*
Y109308D01*
X44157Y109332D01*
Y109354D01*
Y109373D01*
Y109384D01*
Y109392D01*
Y109395D01*
Y109480D01*
X44154Y109562D01*
X44151Y109641D01*
X44146Y109717D01*
X44140Y109788D01*
X44135Y109856D01*
X44127Y109922D01*
X44118Y109985D01*
X44110Y110045D01*
X44102Y110102D01*
X44091Y110157D01*
X44080Y110206D01*
X44072Y110255D01*
X44061Y110299D01*
X44050Y110342D01*
X44037Y110381D01*
X44015Y110451D01*
X43993Y110512D01*
X43974Y110561D01*
X43957Y110602D01*
X43941Y110632D01*
X43930Y110654D01*
X43922Y110667D01*
X43919Y110670D01*
X43881Y110716D01*
X43843Y110760D01*
X43802Y110795D01*
X43758Y110826D01*
X43717Y110853D01*
X43674Y110875D01*
X43633Y110891D01*
X43592Y110907D01*
X43553Y110918D01*
X43521Y110927D01*
X43488Y110932D01*
X43461Y110935D01*
X43439Y110938D01*
X43422Y110940D01*
D02*
G37*
%LPD*%
M02*
